%TF.GenerationSoftware,KiCad,Pcbnew,8.0.4*%
%TF.CreationDate,2024-11-22T16:24:22-05:00*%
%TF.ProjectId,stm32wb_base,73746d33-3277-4625-9f62-6173652e6b69,rev?*%
%TF.SameCoordinates,PX6422c40PY66c2270*%
%TF.FileFunction,Legend,Top*%
%TF.FilePolarity,Positive*%
%FSLAX46Y46*%
G04 Gerber Fmt 4.6, Leading zero omitted, Abs format (unit mm)*
G04 Created by KiCad (PCBNEW 8.0.4) date 2024-11-22 16:24:22*
%MOMM*%
%LPD*%
G01*
G04 APERTURE LIST*
%ADD10C,0.150000*%
%ADD11C,0.120000*%
%ADD12C,0.100000*%
G04 APERTURE END LIST*
D10*
X29206200Y30501065D02*
X29244295Y30615351D01*
X29244295Y30615351D02*
X29244295Y30805827D01*
X29244295Y30805827D02*
X29206200Y30882018D01*
X29206200Y30882018D02*
X29168104Y30920113D01*
X29168104Y30920113D02*
X29091914Y30958208D01*
X29091914Y30958208D02*
X29015723Y30958208D01*
X29015723Y30958208D02*
X28939533Y30920113D01*
X28939533Y30920113D02*
X28901438Y30882018D01*
X28901438Y30882018D02*
X28863342Y30805827D01*
X28863342Y30805827D02*
X28825247Y30653446D01*
X28825247Y30653446D02*
X28787152Y30577256D01*
X28787152Y30577256D02*
X28749057Y30539161D01*
X28749057Y30539161D02*
X28672866Y30501065D01*
X28672866Y30501065D02*
X28596676Y30501065D01*
X28596676Y30501065D02*
X28520485Y30539161D01*
X28520485Y30539161D02*
X28482390Y30577256D01*
X28482390Y30577256D02*
X28444295Y30653446D01*
X28444295Y30653446D02*
X28444295Y30843923D01*
X28444295Y30843923D02*
X28482390Y30958208D01*
X29244295Y31682018D02*
X29244295Y31301066D01*
X29244295Y31301066D02*
X28444295Y31301066D01*
X28710961Y31872494D02*
X29244295Y32062970D01*
X29244295Y32062970D02*
X28710961Y32253447D01*
X28444295Y32710590D02*
X28444295Y32786780D01*
X28444295Y32786780D02*
X28482390Y32862971D01*
X28482390Y32862971D02*
X28520485Y32901066D01*
X28520485Y32901066D02*
X28596676Y32939161D01*
X28596676Y32939161D02*
X28749057Y32977256D01*
X28749057Y32977256D02*
X28939533Y32977256D01*
X28939533Y32977256D02*
X29091914Y32939161D01*
X29091914Y32939161D02*
X29168104Y32901066D01*
X29168104Y32901066D02*
X29206200Y32862971D01*
X29206200Y32862971D02*
X29244295Y32786780D01*
X29244295Y32786780D02*
X29244295Y32710590D01*
X29244295Y32710590D02*
X29206200Y32634399D01*
X29206200Y32634399D02*
X29168104Y32596304D01*
X29168104Y32596304D02*
X29091914Y32558209D01*
X29091914Y32558209D02*
X28939533Y32520113D01*
X28939533Y32520113D02*
X28749057Y32520113D01*
X28749057Y32520113D02*
X28596676Y32558209D01*
X28596676Y32558209D02*
X28520485Y32596304D01*
X28520485Y32596304D02*
X28482390Y32634399D01*
X28482390Y32634399D02*
X28444295Y32710590D01*
X20348809Y12321372D02*
X20348809Y11845181D01*
X20015476Y12845181D02*
X20348809Y12321372D01*
X20348809Y12321372D02*
X20682142Y12845181D01*
X21539285Y11845181D02*
X20967857Y11845181D01*
X21253571Y11845181D02*
X21253571Y12845181D01*
X21253571Y12845181D02*
X21158333Y12702324D01*
X21158333Y12702324D02*
X21063095Y12607086D01*
X21063095Y12607086D02*
X20967857Y12559467D01*
X8338095Y11595181D02*
X8338095Y10785658D01*
X8338095Y10785658D02*
X8385714Y10690420D01*
X8385714Y10690420D02*
X8433333Y10642800D01*
X8433333Y10642800D02*
X8528571Y10595181D01*
X8528571Y10595181D02*
X8719047Y10595181D01*
X8719047Y10595181D02*
X8814285Y10642800D01*
X8814285Y10642800D02*
X8861904Y10690420D01*
X8861904Y10690420D02*
X8909523Y10785658D01*
X8909523Y10785658D02*
X8909523Y11595181D01*
X9909523Y10595181D02*
X9338095Y10595181D01*
X9623809Y10595181D02*
X9623809Y11595181D01*
X9623809Y11595181D02*
X9528571Y11452324D01*
X9528571Y11452324D02*
X9433333Y11357086D01*
X9433333Y11357086D02*
X9338095Y11309467D01*
X4766666Y33445181D02*
X4766666Y32730896D01*
X4766666Y32730896D02*
X4719047Y32588039D01*
X4719047Y32588039D02*
X4623809Y32492800D01*
X4623809Y32492800D02*
X4480952Y32445181D01*
X4480952Y32445181D02*
X4385714Y32445181D01*
X5147619Y33445181D02*
X5766666Y33445181D01*
X5766666Y33445181D02*
X5433333Y33064229D01*
X5433333Y33064229D02*
X5576190Y33064229D01*
X5576190Y33064229D02*
X5671428Y33016610D01*
X5671428Y33016610D02*
X5719047Y32968991D01*
X5719047Y32968991D02*
X5766666Y32873753D01*
X5766666Y32873753D02*
X5766666Y32635658D01*
X5766666Y32635658D02*
X5719047Y32540420D01*
X5719047Y32540420D02*
X5671428Y32492800D01*
X5671428Y32492800D02*
X5576190Y32445181D01*
X5576190Y32445181D02*
X5290476Y32445181D01*
X5290476Y32445181D02*
X5195238Y32492800D01*
X5195238Y32492800D02*
X5147619Y32540420D01*
X24004819Y18913096D02*
X24814342Y18913096D01*
X24814342Y18913096D02*
X24909580Y18960715D01*
X24909580Y18960715D02*
X24957200Y19008334D01*
X24957200Y19008334D02*
X25004819Y19103572D01*
X25004819Y19103572D02*
X25004819Y19294048D01*
X25004819Y19294048D02*
X24957200Y19389286D01*
X24957200Y19389286D02*
X24909580Y19436905D01*
X24909580Y19436905D02*
X24814342Y19484524D01*
X24814342Y19484524D02*
X24004819Y19484524D01*
X24004819Y20436905D02*
X24004819Y19960715D01*
X24004819Y19960715D02*
X24481009Y19913096D01*
X24481009Y19913096D02*
X24433390Y19960715D01*
X24433390Y19960715D02*
X24385771Y20055953D01*
X24385771Y20055953D02*
X24385771Y20294048D01*
X24385771Y20294048D02*
X24433390Y20389286D01*
X24433390Y20389286D02*
X24481009Y20436905D01*
X24481009Y20436905D02*
X24576247Y20484524D01*
X24576247Y20484524D02*
X24814342Y20484524D01*
X24814342Y20484524D02*
X24909580Y20436905D01*
X24909580Y20436905D02*
X24957200Y20389286D01*
X24957200Y20389286D02*
X25004819Y20294048D01*
X25004819Y20294048D02*
X25004819Y20055953D01*
X25004819Y20055953D02*
X24957200Y19960715D01*
X24957200Y19960715D02*
X24909580Y19913096D01*
X24066666Y31645181D02*
X24066666Y30930896D01*
X24066666Y30930896D02*
X24019047Y30788039D01*
X24019047Y30788039D02*
X23923809Y30692800D01*
X23923809Y30692800D02*
X23780952Y30645181D01*
X23780952Y30645181D02*
X23685714Y30645181D01*
X24971428Y31311848D02*
X24971428Y30645181D01*
X24733333Y31692800D02*
X24495238Y30978515D01*
X24495238Y30978515D02*
X25114285Y30978515D01*
X128322142Y-14484580D02*
X128274523Y-14532200D01*
X128274523Y-14532200D02*
X128131666Y-14579819D01*
X128131666Y-14579819D02*
X128036428Y-14579819D01*
X128036428Y-14579819D02*
X127893571Y-14532200D01*
X127893571Y-14532200D02*
X127798333Y-14436961D01*
X127798333Y-14436961D02*
X127750714Y-14341723D01*
X127750714Y-14341723D02*
X127703095Y-14151247D01*
X127703095Y-14151247D02*
X127703095Y-14008390D01*
X127703095Y-14008390D02*
X127750714Y-13817914D01*
X127750714Y-13817914D02*
X127798333Y-13722676D01*
X127798333Y-13722676D02*
X127893571Y-13627438D01*
X127893571Y-13627438D02*
X128036428Y-13579819D01*
X128036428Y-13579819D02*
X128131666Y-13579819D01*
X128131666Y-13579819D02*
X128274523Y-13627438D01*
X128274523Y-13627438D02*
X128322142Y-13675057D01*
X129274523Y-14579819D02*
X128703095Y-14579819D01*
X128988809Y-14579819D02*
X128988809Y-13579819D01*
X128988809Y-13579819D02*
X128893571Y-13722676D01*
X128893571Y-13722676D02*
X128798333Y-13817914D01*
X128798333Y-13817914D02*
X128703095Y-13865533D01*
X130226904Y-14579819D02*
X129655476Y-14579819D01*
X129941190Y-14579819D02*
X129941190Y-13579819D01*
X129941190Y-13579819D02*
X129845952Y-13722676D01*
X129845952Y-13722676D02*
X129750714Y-13817914D01*
X129750714Y-13817914D02*
X129655476Y-13865533D01*
X22691666Y5870181D02*
X22691666Y5155896D01*
X22691666Y5155896D02*
X22644047Y5013039D01*
X22644047Y5013039D02*
X22548809Y4917800D01*
X22548809Y4917800D02*
X22405952Y4870181D01*
X22405952Y4870181D02*
X22310714Y4870181D01*
X23120238Y5774943D02*
X23167857Y5822562D01*
X23167857Y5822562D02*
X23263095Y5870181D01*
X23263095Y5870181D02*
X23501190Y5870181D01*
X23501190Y5870181D02*
X23596428Y5822562D01*
X23596428Y5822562D02*
X23644047Y5774943D01*
X23644047Y5774943D02*
X23691666Y5679705D01*
X23691666Y5679705D02*
X23691666Y5584467D01*
X23691666Y5584467D02*
X23644047Y5441610D01*
X23644047Y5441610D02*
X23072619Y4870181D01*
X23072619Y4870181D02*
X23691666Y4870181D01*
X28359580Y22932143D02*
X28407200Y22884524D01*
X28407200Y22884524D02*
X28454819Y22741667D01*
X28454819Y22741667D02*
X28454819Y22646429D01*
X28454819Y22646429D02*
X28407200Y22503572D01*
X28407200Y22503572D02*
X28311961Y22408334D01*
X28311961Y22408334D02*
X28216723Y22360715D01*
X28216723Y22360715D02*
X28026247Y22313096D01*
X28026247Y22313096D02*
X27883390Y22313096D01*
X27883390Y22313096D02*
X27692914Y22360715D01*
X27692914Y22360715D02*
X27597676Y22408334D01*
X27597676Y22408334D02*
X27502438Y22503572D01*
X27502438Y22503572D02*
X27454819Y22646429D01*
X27454819Y22646429D02*
X27454819Y22741667D01*
X27454819Y22741667D02*
X27502438Y22884524D01*
X27502438Y22884524D02*
X27550057Y22932143D01*
X27550057Y23313096D02*
X27502438Y23360715D01*
X27502438Y23360715D02*
X27454819Y23455953D01*
X27454819Y23455953D02*
X27454819Y23694048D01*
X27454819Y23694048D02*
X27502438Y23789286D01*
X27502438Y23789286D02*
X27550057Y23836905D01*
X27550057Y23836905D02*
X27645295Y23884524D01*
X27645295Y23884524D02*
X27740533Y23884524D01*
X27740533Y23884524D02*
X27883390Y23836905D01*
X27883390Y23836905D02*
X28454819Y23265477D01*
X28454819Y23265477D02*
X28454819Y23884524D01*
X27550057Y24265477D02*
X27502438Y24313096D01*
X27502438Y24313096D02*
X27454819Y24408334D01*
X27454819Y24408334D02*
X27454819Y24646429D01*
X27454819Y24646429D02*
X27502438Y24741667D01*
X27502438Y24741667D02*
X27550057Y24789286D01*
X27550057Y24789286D02*
X27645295Y24836905D01*
X27645295Y24836905D02*
X27740533Y24836905D01*
X27740533Y24836905D02*
X27883390Y24789286D01*
X27883390Y24789286D02*
X28454819Y24217858D01*
X28454819Y24217858D02*
X28454819Y24836905D01*
X5557200Y9216668D02*
X5604819Y9359525D01*
X5604819Y9359525D02*
X5604819Y9597620D01*
X5604819Y9597620D02*
X5557200Y9692858D01*
X5557200Y9692858D02*
X5509580Y9740477D01*
X5509580Y9740477D02*
X5414342Y9788096D01*
X5414342Y9788096D02*
X5319104Y9788096D01*
X5319104Y9788096D02*
X5223866Y9740477D01*
X5223866Y9740477D02*
X5176247Y9692858D01*
X5176247Y9692858D02*
X5128628Y9597620D01*
X5128628Y9597620D02*
X5081009Y9407144D01*
X5081009Y9407144D02*
X5033390Y9311906D01*
X5033390Y9311906D02*
X4985771Y9264287D01*
X4985771Y9264287D02*
X4890533Y9216668D01*
X4890533Y9216668D02*
X4795295Y9216668D01*
X4795295Y9216668D02*
X4700057Y9264287D01*
X4700057Y9264287D02*
X4652438Y9311906D01*
X4652438Y9311906D02*
X4604819Y9407144D01*
X4604819Y9407144D02*
X4604819Y9645239D01*
X4604819Y9645239D02*
X4652438Y9788096D01*
X4604819Y10121430D02*
X5604819Y10359525D01*
X5604819Y10359525D02*
X4890533Y10550001D01*
X4890533Y10550001D02*
X5604819Y10740477D01*
X5604819Y10740477D02*
X4604819Y10978572D01*
X5604819Y11883334D02*
X5604819Y11311906D01*
X5604819Y11597620D02*
X4604819Y11597620D01*
X4604819Y11597620D02*
X4747676Y11502382D01*
X4747676Y11502382D02*
X4842914Y11407144D01*
X4842914Y11407144D02*
X4890533Y11311906D01*
X23982142Y26740420D02*
X23934523Y26692800D01*
X23934523Y26692800D02*
X23791666Y26645181D01*
X23791666Y26645181D02*
X23696428Y26645181D01*
X23696428Y26645181D02*
X23553571Y26692800D01*
X23553571Y26692800D02*
X23458333Y26788039D01*
X23458333Y26788039D02*
X23410714Y26883277D01*
X23410714Y26883277D02*
X23363095Y27073753D01*
X23363095Y27073753D02*
X23363095Y27216610D01*
X23363095Y27216610D02*
X23410714Y27407086D01*
X23410714Y27407086D02*
X23458333Y27502324D01*
X23458333Y27502324D02*
X23553571Y27597562D01*
X23553571Y27597562D02*
X23696428Y27645181D01*
X23696428Y27645181D02*
X23791666Y27645181D01*
X23791666Y27645181D02*
X23934523Y27597562D01*
X23934523Y27597562D02*
X23982142Y27549943D01*
X24363095Y27549943D02*
X24410714Y27597562D01*
X24410714Y27597562D02*
X24505952Y27645181D01*
X24505952Y27645181D02*
X24744047Y27645181D01*
X24744047Y27645181D02*
X24839285Y27597562D01*
X24839285Y27597562D02*
X24886904Y27549943D01*
X24886904Y27549943D02*
X24934523Y27454705D01*
X24934523Y27454705D02*
X24934523Y27359467D01*
X24934523Y27359467D02*
X24886904Y27216610D01*
X24886904Y27216610D02*
X24315476Y26645181D01*
X24315476Y26645181D02*
X24934523Y26645181D01*
X25553571Y27645181D02*
X25648809Y27645181D01*
X25648809Y27645181D02*
X25744047Y27597562D01*
X25744047Y27597562D02*
X25791666Y27549943D01*
X25791666Y27549943D02*
X25839285Y27454705D01*
X25839285Y27454705D02*
X25886904Y27264229D01*
X25886904Y27264229D02*
X25886904Y27026134D01*
X25886904Y27026134D02*
X25839285Y26835658D01*
X25839285Y26835658D02*
X25791666Y26740420D01*
X25791666Y26740420D02*
X25744047Y26692800D01*
X25744047Y26692800D02*
X25648809Y26645181D01*
X25648809Y26645181D02*
X25553571Y26645181D01*
X25553571Y26645181D02*
X25458333Y26692800D01*
X25458333Y26692800D02*
X25410714Y26740420D01*
X25410714Y26740420D02*
X25363095Y26835658D01*
X25363095Y26835658D02*
X25315476Y27026134D01*
X25315476Y27026134D02*
X25315476Y27264229D01*
X25315476Y27264229D02*
X25363095Y27454705D01*
X25363095Y27454705D02*
X25410714Y27549943D01*
X25410714Y27549943D02*
X25458333Y27597562D01*
X25458333Y27597562D02*
X25553571Y27645181D01*
X17186905Y28995181D02*
X17186905Y29995181D01*
X17186905Y29995181D02*
X17425000Y29995181D01*
X17425000Y29995181D02*
X17567857Y29947562D01*
X17567857Y29947562D02*
X17663095Y29852324D01*
X17663095Y29852324D02*
X17710714Y29757086D01*
X17710714Y29757086D02*
X17758333Y29566610D01*
X17758333Y29566610D02*
X17758333Y29423753D01*
X17758333Y29423753D02*
X17710714Y29233277D01*
X17710714Y29233277D02*
X17663095Y29138039D01*
X17663095Y29138039D02*
X17567857Y29042800D01*
X17567857Y29042800D02*
X17425000Y28995181D01*
X17425000Y28995181D02*
X17186905Y28995181D01*
X18139286Y29899943D02*
X18186905Y29947562D01*
X18186905Y29947562D02*
X18282143Y29995181D01*
X18282143Y29995181D02*
X18520238Y29995181D01*
X18520238Y29995181D02*
X18615476Y29947562D01*
X18615476Y29947562D02*
X18663095Y29899943D01*
X18663095Y29899943D02*
X18710714Y29804705D01*
X18710714Y29804705D02*
X18710714Y29709467D01*
X18710714Y29709467D02*
X18663095Y29566610D01*
X18663095Y29566610D02*
X18091667Y28995181D01*
X18091667Y28995181D02*
X18710714Y28995181D01*
X14858333Y30570181D02*
X14525000Y31046372D01*
X14286905Y30570181D02*
X14286905Y31570181D01*
X14286905Y31570181D02*
X14667857Y31570181D01*
X14667857Y31570181D02*
X14763095Y31522562D01*
X14763095Y31522562D02*
X14810714Y31474943D01*
X14810714Y31474943D02*
X14858333Y31379705D01*
X14858333Y31379705D02*
X14858333Y31236848D01*
X14858333Y31236848D02*
X14810714Y31141610D01*
X14810714Y31141610D02*
X14763095Y31093991D01*
X14763095Y31093991D02*
X14667857Y31046372D01*
X14667857Y31046372D02*
X14286905Y31046372D01*
X15715476Y31236848D02*
X15715476Y30570181D01*
X15477381Y31617800D02*
X15239286Y30903515D01*
X15239286Y30903515D02*
X15858333Y30903515D01*
X4908333Y30345181D02*
X4575000Y30821372D01*
X4336905Y30345181D02*
X4336905Y31345181D01*
X4336905Y31345181D02*
X4717857Y31345181D01*
X4717857Y31345181D02*
X4813095Y31297562D01*
X4813095Y31297562D02*
X4860714Y31249943D01*
X4860714Y31249943D02*
X4908333Y31154705D01*
X4908333Y31154705D02*
X4908333Y31011848D01*
X4908333Y31011848D02*
X4860714Y30916610D01*
X4860714Y30916610D02*
X4813095Y30868991D01*
X4813095Y30868991D02*
X4717857Y30821372D01*
X4717857Y30821372D02*
X4336905Y30821372D01*
X5241667Y31345181D02*
X5860714Y31345181D01*
X5860714Y31345181D02*
X5527381Y30964229D01*
X5527381Y30964229D02*
X5670238Y30964229D01*
X5670238Y30964229D02*
X5765476Y30916610D01*
X5765476Y30916610D02*
X5813095Y30868991D01*
X5813095Y30868991D02*
X5860714Y30773753D01*
X5860714Y30773753D02*
X5860714Y30535658D01*
X5860714Y30535658D02*
X5813095Y30440420D01*
X5813095Y30440420D02*
X5765476Y30392800D01*
X5765476Y30392800D02*
X5670238Y30345181D01*
X5670238Y30345181D02*
X5384524Y30345181D01*
X5384524Y30345181D02*
X5289286Y30392800D01*
X5289286Y30392800D02*
X5241667Y30440420D01*
X2358333Y22145181D02*
X2025000Y22621372D01*
X1786905Y22145181D02*
X1786905Y23145181D01*
X1786905Y23145181D02*
X2167857Y23145181D01*
X2167857Y23145181D02*
X2263095Y23097562D01*
X2263095Y23097562D02*
X2310714Y23049943D01*
X2310714Y23049943D02*
X2358333Y22954705D01*
X2358333Y22954705D02*
X2358333Y22811848D01*
X2358333Y22811848D02*
X2310714Y22716610D01*
X2310714Y22716610D02*
X2263095Y22668991D01*
X2263095Y22668991D02*
X2167857Y22621372D01*
X2167857Y22621372D02*
X1786905Y22621372D01*
X3263095Y23145181D02*
X2786905Y23145181D01*
X2786905Y23145181D02*
X2739286Y22668991D01*
X2739286Y22668991D02*
X2786905Y22716610D01*
X2786905Y22716610D02*
X2882143Y22764229D01*
X2882143Y22764229D02*
X3120238Y22764229D01*
X3120238Y22764229D02*
X3215476Y22716610D01*
X3215476Y22716610D02*
X3263095Y22668991D01*
X3263095Y22668991D02*
X3310714Y22573753D01*
X3310714Y22573753D02*
X3310714Y22335658D01*
X3310714Y22335658D02*
X3263095Y22240420D01*
X3263095Y22240420D02*
X3215476Y22192800D01*
X3215476Y22192800D02*
X3120238Y22145181D01*
X3120238Y22145181D02*
X2882143Y22145181D01*
X2882143Y22145181D02*
X2786905Y22192800D01*
X2786905Y22192800D02*
X2739286Y22240420D01*
X2008333Y25895181D02*
X1675000Y26371372D01*
X1436905Y25895181D02*
X1436905Y26895181D01*
X1436905Y26895181D02*
X1817857Y26895181D01*
X1817857Y26895181D02*
X1913095Y26847562D01*
X1913095Y26847562D02*
X1960714Y26799943D01*
X1960714Y26799943D02*
X2008333Y26704705D01*
X2008333Y26704705D02*
X2008333Y26561848D01*
X2008333Y26561848D02*
X1960714Y26466610D01*
X1960714Y26466610D02*
X1913095Y26418991D01*
X1913095Y26418991D02*
X1817857Y26371372D01*
X1817857Y26371372D02*
X1436905Y26371372D01*
X2865476Y26895181D02*
X2675000Y26895181D01*
X2675000Y26895181D02*
X2579762Y26847562D01*
X2579762Y26847562D02*
X2532143Y26799943D01*
X2532143Y26799943D02*
X2436905Y26657086D01*
X2436905Y26657086D02*
X2389286Y26466610D01*
X2389286Y26466610D02*
X2389286Y26085658D01*
X2389286Y26085658D02*
X2436905Y25990420D01*
X2436905Y25990420D02*
X2484524Y25942800D01*
X2484524Y25942800D02*
X2579762Y25895181D01*
X2579762Y25895181D02*
X2770238Y25895181D01*
X2770238Y25895181D02*
X2865476Y25942800D01*
X2865476Y25942800D02*
X2913095Y25990420D01*
X2913095Y25990420D02*
X2960714Y26085658D01*
X2960714Y26085658D02*
X2960714Y26323753D01*
X2960714Y26323753D02*
X2913095Y26418991D01*
X2913095Y26418991D02*
X2865476Y26466610D01*
X2865476Y26466610D02*
X2770238Y26514229D01*
X2770238Y26514229D02*
X2579762Y26514229D01*
X2579762Y26514229D02*
X2484524Y26466610D01*
X2484524Y26466610D02*
X2436905Y26418991D01*
X2436905Y26418991D02*
X2389286Y26323753D01*
X21461905Y28545181D02*
X21461905Y29545181D01*
X21461905Y29545181D02*
X21700000Y29545181D01*
X21700000Y29545181D02*
X21842857Y29497562D01*
X21842857Y29497562D02*
X21938095Y29402324D01*
X21938095Y29402324D02*
X21985714Y29307086D01*
X21985714Y29307086D02*
X22033333Y29116610D01*
X22033333Y29116610D02*
X22033333Y28973753D01*
X22033333Y28973753D02*
X21985714Y28783277D01*
X21985714Y28783277D02*
X21938095Y28688039D01*
X21938095Y28688039D02*
X21842857Y28592800D01*
X21842857Y28592800D02*
X21700000Y28545181D01*
X21700000Y28545181D02*
X21461905Y28545181D01*
X22985714Y28545181D02*
X22414286Y28545181D01*
X22700000Y28545181D02*
X22700000Y29545181D01*
X22700000Y29545181D02*
X22604762Y29402324D01*
X22604762Y29402324D02*
X22509524Y29307086D01*
X22509524Y29307086D02*
X22414286Y29259467D01*
X7083333Y12740420D02*
X7035714Y12692800D01*
X7035714Y12692800D02*
X6892857Y12645181D01*
X6892857Y12645181D02*
X6797619Y12645181D01*
X6797619Y12645181D02*
X6654762Y12692800D01*
X6654762Y12692800D02*
X6559524Y12788039D01*
X6559524Y12788039D02*
X6511905Y12883277D01*
X6511905Y12883277D02*
X6464286Y13073753D01*
X6464286Y13073753D02*
X6464286Y13216610D01*
X6464286Y13216610D02*
X6511905Y13407086D01*
X6511905Y13407086D02*
X6559524Y13502324D01*
X6559524Y13502324D02*
X6654762Y13597562D01*
X6654762Y13597562D02*
X6797619Y13645181D01*
X6797619Y13645181D02*
X6892857Y13645181D01*
X6892857Y13645181D02*
X7035714Y13597562D01*
X7035714Y13597562D02*
X7083333Y13549943D01*
X7416667Y13645181D02*
X8035714Y13645181D01*
X8035714Y13645181D02*
X7702381Y13264229D01*
X7702381Y13264229D02*
X7845238Y13264229D01*
X7845238Y13264229D02*
X7940476Y13216610D01*
X7940476Y13216610D02*
X7988095Y13168991D01*
X7988095Y13168991D02*
X8035714Y13073753D01*
X8035714Y13073753D02*
X8035714Y12835658D01*
X8035714Y12835658D02*
X7988095Y12740420D01*
X7988095Y12740420D02*
X7940476Y12692800D01*
X7940476Y12692800D02*
X7845238Y12645181D01*
X7845238Y12645181D02*
X7559524Y12645181D01*
X7559524Y12645181D02*
X7464286Y12692800D01*
X7464286Y12692800D02*
X7416667Y12740420D01*
X20933333Y14520181D02*
X20457143Y14520181D01*
X20457143Y14520181D02*
X20457143Y15520181D01*
X21219048Y15424943D02*
X21266667Y15472562D01*
X21266667Y15472562D02*
X21361905Y15520181D01*
X21361905Y15520181D02*
X21600000Y15520181D01*
X21600000Y15520181D02*
X21695238Y15472562D01*
X21695238Y15472562D02*
X21742857Y15424943D01*
X21742857Y15424943D02*
X21790476Y15329705D01*
X21790476Y15329705D02*
X21790476Y15234467D01*
X21790476Y15234467D02*
X21742857Y15091610D01*
X21742857Y15091610D02*
X21171429Y14520181D01*
X21171429Y14520181D02*
X21790476Y14520181D01*
X5932142Y28515420D02*
X5884523Y28467800D01*
X5884523Y28467800D02*
X5741666Y28420181D01*
X5741666Y28420181D02*
X5646428Y28420181D01*
X5646428Y28420181D02*
X5503571Y28467800D01*
X5503571Y28467800D02*
X5408333Y28563039D01*
X5408333Y28563039D02*
X5360714Y28658277D01*
X5360714Y28658277D02*
X5313095Y28848753D01*
X5313095Y28848753D02*
X5313095Y28991610D01*
X5313095Y28991610D02*
X5360714Y29182086D01*
X5360714Y29182086D02*
X5408333Y29277324D01*
X5408333Y29277324D02*
X5503571Y29372562D01*
X5503571Y29372562D02*
X5646428Y29420181D01*
X5646428Y29420181D02*
X5741666Y29420181D01*
X5741666Y29420181D02*
X5884523Y29372562D01*
X5884523Y29372562D02*
X5932142Y29324943D01*
X6884523Y28420181D02*
X6313095Y28420181D01*
X6598809Y28420181D02*
X6598809Y29420181D01*
X6598809Y29420181D02*
X6503571Y29277324D01*
X6503571Y29277324D02*
X6408333Y29182086D01*
X6408333Y29182086D02*
X6313095Y29134467D01*
X7217857Y29420181D02*
X7884523Y29420181D01*
X7884523Y29420181D02*
X7455952Y28420181D01*
X23013095Y23395181D02*
X23013095Y22585658D01*
X23013095Y22585658D02*
X23060714Y22490420D01*
X23060714Y22490420D02*
X23108333Y22442800D01*
X23108333Y22442800D02*
X23203571Y22395181D01*
X23203571Y22395181D02*
X23394047Y22395181D01*
X23394047Y22395181D02*
X23489285Y22442800D01*
X23489285Y22442800D02*
X23536904Y22490420D01*
X23536904Y22490420D02*
X23584523Y22585658D01*
X23584523Y22585658D02*
X23584523Y23395181D01*
X24489285Y23061848D02*
X24489285Y22395181D01*
X24251190Y23442800D02*
X24013095Y22728515D01*
X24013095Y22728515D02*
X24632142Y22728515D01*
X13217319Y26938096D02*
X14026842Y26938096D01*
X14026842Y26938096D02*
X14122080Y26985715D01*
X14122080Y26985715D02*
X14169700Y27033334D01*
X14169700Y27033334D02*
X14217319Y27128572D01*
X14217319Y27128572D02*
X14217319Y27319048D01*
X14217319Y27319048D02*
X14169700Y27414286D01*
X14169700Y27414286D02*
X14122080Y27461905D01*
X14122080Y27461905D02*
X14026842Y27509524D01*
X14026842Y27509524D02*
X13217319Y27509524D01*
X13312557Y27938096D02*
X13264938Y27985715D01*
X13264938Y27985715D02*
X13217319Y28080953D01*
X13217319Y28080953D02*
X13217319Y28319048D01*
X13217319Y28319048D02*
X13264938Y28414286D01*
X13264938Y28414286D02*
X13312557Y28461905D01*
X13312557Y28461905D02*
X13407795Y28509524D01*
X13407795Y28509524D02*
X13503033Y28509524D01*
X13503033Y28509524D02*
X13645890Y28461905D01*
X13645890Y28461905D02*
X14217319Y27890477D01*
X14217319Y27890477D02*
X14217319Y28509524D01*
X16133333Y23370181D02*
X15800000Y23846372D01*
X15561905Y23370181D02*
X15561905Y24370181D01*
X15561905Y24370181D02*
X15942857Y24370181D01*
X15942857Y24370181D02*
X16038095Y24322562D01*
X16038095Y24322562D02*
X16085714Y24274943D01*
X16085714Y24274943D02*
X16133333Y24179705D01*
X16133333Y24179705D02*
X16133333Y24036848D01*
X16133333Y24036848D02*
X16085714Y23941610D01*
X16085714Y23941610D02*
X16038095Y23893991D01*
X16038095Y23893991D02*
X15942857Y23846372D01*
X15942857Y23846372D02*
X15561905Y23846372D01*
X16609524Y23370181D02*
X16800000Y23370181D01*
X16800000Y23370181D02*
X16895238Y23417800D01*
X16895238Y23417800D02*
X16942857Y23465420D01*
X16942857Y23465420D02*
X17038095Y23608277D01*
X17038095Y23608277D02*
X17085714Y23798753D01*
X17085714Y23798753D02*
X17085714Y24179705D01*
X17085714Y24179705D02*
X17038095Y24274943D01*
X17038095Y24274943D02*
X16990476Y24322562D01*
X16990476Y24322562D02*
X16895238Y24370181D01*
X16895238Y24370181D02*
X16704762Y24370181D01*
X16704762Y24370181D02*
X16609524Y24322562D01*
X16609524Y24322562D02*
X16561905Y24274943D01*
X16561905Y24274943D02*
X16514286Y24179705D01*
X16514286Y24179705D02*
X16514286Y23941610D01*
X16514286Y23941610D02*
X16561905Y23846372D01*
X16561905Y23846372D02*
X16609524Y23798753D01*
X16609524Y23798753D02*
X16704762Y23751134D01*
X16704762Y23751134D02*
X16895238Y23751134D01*
X16895238Y23751134D02*
X16990476Y23798753D01*
X16990476Y23798753D02*
X17038095Y23846372D01*
X17038095Y23846372D02*
X17085714Y23941610D01*
X16066666Y5895181D02*
X16066666Y5180896D01*
X16066666Y5180896D02*
X16019047Y5038039D01*
X16019047Y5038039D02*
X15923809Y4942800D01*
X15923809Y4942800D02*
X15780952Y4895181D01*
X15780952Y4895181D02*
X15685714Y4895181D01*
X17066666Y4895181D02*
X16495238Y4895181D01*
X16780952Y4895181D02*
X16780952Y5895181D01*
X16780952Y5895181D02*
X16685714Y5752324D01*
X16685714Y5752324D02*
X16590476Y5657086D01*
X16590476Y5657086D02*
X16495238Y5609467D01*
X3513095Y27795181D02*
X3513095Y26985658D01*
X3513095Y26985658D02*
X3560714Y26890420D01*
X3560714Y26890420D02*
X3608333Y26842800D01*
X3608333Y26842800D02*
X3703571Y26795181D01*
X3703571Y26795181D02*
X3894047Y26795181D01*
X3894047Y26795181D02*
X3989285Y26842800D01*
X3989285Y26842800D02*
X4036904Y26890420D01*
X4036904Y26890420D02*
X4084523Y26985658D01*
X4084523Y26985658D02*
X4084523Y27795181D01*
X4465476Y27795181D02*
X5084523Y27795181D01*
X5084523Y27795181D02*
X4751190Y27414229D01*
X4751190Y27414229D02*
X4894047Y27414229D01*
X4894047Y27414229D02*
X4989285Y27366610D01*
X4989285Y27366610D02*
X5036904Y27318991D01*
X5036904Y27318991D02*
X5084523Y27223753D01*
X5084523Y27223753D02*
X5084523Y26985658D01*
X5084523Y26985658D02*
X5036904Y26890420D01*
X5036904Y26890420D02*
X4989285Y26842800D01*
X4989285Y26842800D02*
X4894047Y26795181D01*
X4894047Y26795181D02*
X4608333Y26795181D01*
X4608333Y26795181D02*
X4513095Y26842800D01*
X4513095Y26842800D02*
X4465476Y26890420D01*
D11*
%TO.C,Y1*%
X17300000Y12680000D02*
X17300000Y10380000D01*
X17300000Y10380000D02*
X20000000Y10380000D01*
%TO.C,Y2*%
X4880000Y17930000D02*
X6480000Y17930000D01*
X6480000Y17930000D02*
X6480000Y20330000D01*
X4880000Y20330000D02*
X4880000Y17930000D01*
%TO.C,U1*%
X9090000Y19185000D02*
X9090000Y19420000D01*
X9090000Y12440000D02*
X9090000Y12915000D01*
X9565000Y19660000D02*
X9390000Y19660000D01*
X9565000Y12440000D02*
X9090000Y12440000D01*
X15835000Y19660000D02*
X16310000Y19660000D01*
X15835000Y12440000D02*
X16310000Y12440000D01*
X16310000Y19660000D02*
X16310000Y19185000D01*
X16310000Y12440000D02*
X16310000Y12915000D01*
X9090000Y19660000D02*
X8850000Y19990000D01*
X9330000Y19990000D01*
X9090000Y19660000D01*
G36*
X9090000Y19660000D02*
G01*
X8850000Y19990000D01*
X9330000Y19990000D01*
X9090000Y19660000D01*
G37*
%TO.C,R11*%
X20950000Y22341359D02*
X20950000Y22648641D01*
X21710000Y22341359D02*
X21710000Y22648641D01*
%TO.C,J3*%
X16030000Y36790000D02*
X16030000Y35090000D01*
X6690000Y36790000D02*
X6690000Y35090000D01*
%TO.C,U5*%
X25327500Y21152500D02*
X25327500Y18152500D01*
X27547500Y21152500D02*
X27547500Y18152500D01*
X27807500Y21662500D02*
X27527500Y21662500D01*
X27527500Y21942500D01*
X27807500Y21662500D01*
G36*
X27807500Y21662500D02*
G01*
X27527500Y21662500D01*
X27527500Y21942500D01*
X27807500Y21662500D01*
G37*
%TO.C,R12*%
X27720000Y16453641D02*
X27720000Y16146359D01*
X28480000Y16453641D02*
X28480000Y16146359D01*
%TO.C,C1*%
X26507836Y14150000D02*
X26292164Y14150000D01*
X26507836Y13430000D02*
X26292164Y13430000D01*
%TO.C,J4*%
X18340000Y38910000D02*
X18340000Y30790000D01*
X18340000Y30790000D02*
X23060000Y30790000D01*
X18950000Y38300000D02*
X18950000Y31400000D01*
X18950000Y35950000D02*
X19450000Y35950000D01*
X18950000Y35850000D02*
X19450000Y35850000D01*
X18950000Y33950000D02*
X19450000Y33950000D01*
X18950000Y33850000D02*
X19450000Y33850000D01*
X18950000Y31400000D02*
X22450000Y31400000D01*
X19450000Y35950000D02*
X19450000Y35750000D01*
X19450000Y35750000D02*
X18950000Y35750000D01*
X19450000Y33950000D02*
X19450000Y33750000D01*
X19450000Y33750000D02*
X18950000Y33750000D01*
X20450000Y38910000D02*
X20450000Y38300000D01*
X20450000Y30790000D02*
X20450000Y31400000D01*
X21750000Y38910000D02*
X21750000Y38300000D01*
X21750000Y30790000D02*
X21750000Y31400000D01*
X22450000Y38300000D02*
X18950000Y38300000D01*
X22450000Y36350000D02*
X22450000Y38300000D01*
X22450000Y33350000D02*
X23060000Y33350000D01*
X22450000Y31400000D02*
X22450000Y33350000D01*
X23060000Y38910000D02*
X18340000Y38910000D01*
X23060000Y37150000D02*
X23260000Y37150000D01*
X23060000Y36350000D02*
X22450000Y36350000D01*
X23060000Y30790000D02*
X23060000Y38910000D01*
X23160000Y37150000D02*
X23160000Y37450000D01*
X23260000Y37450000D02*
X23060000Y37450000D01*
X23260000Y37150000D02*
X23260000Y37450000D01*
X23360000Y39210000D02*
X22110000Y39210000D01*
X23360000Y37960000D02*
X23360000Y39210000D01*
%TO.C,C16*%
X4515000Y16807836D02*
X4515000Y16592164D01*
X5235000Y16807836D02*
X5235000Y16592164D01*
%TO.C,C11*%
X18057836Y16270000D02*
X17842164Y16270000D01*
X18057836Y15550000D02*
X17842164Y15550000D01*
%TO.C,FLT1*%
D10*
X13985000Y7767500D02*
G75*
G02*
X13835000Y7767500I-75000J0D01*
G01*
X13835000Y7767500D02*
G75*
G02*
X13985000Y7767500I75000J0D01*
G01*
D12*
X14410000Y7517500D02*
X13410000Y7517500D01*
X13410000Y5517500D01*
X14410000Y5517500D01*
X14410000Y7517500D01*
D11*
%TO.C,J2*%
X17975000Y9380000D02*
X17975000Y6720000D01*
X25655000Y9380000D02*
X17975000Y9380000D01*
X25655000Y9380000D02*
X25655000Y6720000D01*
X25655000Y6720000D02*
X17975000Y6720000D01*
X26925000Y9380000D02*
X28255000Y9380000D01*
X28255000Y9380000D02*
X28255000Y8050000D01*
%TO.C,C22*%
X26340000Y22662164D02*
X26340000Y22877836D01*
X27060000Y22662164D02*
X27060000Y22877836D01*
%TO.C,C2*%
X13165000Y21947164D02*
X13165000Y22162836D01*
X13885000Y21947164D02*
X13885000Y22162836D01*
%TO.C,R7*%
X17950000Y26051359D02*
X17950000Y26358641D01*
X18710000Y26051359D02*
X18710000Y26358641D01*
%TO.C,SW1*%
X700000Y13610000D02*
X4400000Y13610000D01*
X700000Y7490000D02*
X700000Y13610000D01*
X4400000Y13610000D02*
X4400000Y7490000D01*
X4400000Y7490000D02*
X700000Y7490000D01*
%TO.C,C20*%
X24142164Y26265000D02*
X24357836Y26265000D01*
X24142164Y25545000D02*
X24357836Y25545000D01*
D12*
%TO.C,D2*%
X19055000Y28405000D02*
G75*
G02*
X18955000Y28405000I-50000J0D01*
G01*
X18955000Y28405000D02*
G75*
G02*
X19055000Y28405000I50000J0D01*
G01*
D11*
%TO.C,R13*%
X28570000Y20296359D02*
X28570000Y20603641D01*
X29330000Y20296359D02*
X29330000Y20603641D01*
%TO.C,C6*%
X12597836Y11590000D02*
X12382164Y11590000D01*
X12597836Y10870000D02*
X12382164Y10870000D01*
%TO.C,R4*%
X12720000Y30943641D02*
X12720000Y30636359D01*
X13480000Y30943641D02*
X13480000Y30636359D01*
%TO.C,R3*%
X7973641Y31430000D02*
X7666359Y31430000D01*
X7973641Y30670000D02*
X7666359Y30670000D01*
%TO.C,R5*%
X2403459Y24340000D02*
X2710741Y24340000D01*
X2403459Y23580000D02*
X2710741Y23580000D01*
%TO.C,C25*%
X26312164Y17350000D02*
X26527836Y17350000D01*
X26312164Y16630000D02*
X26527836Y16630000D01*
%TO.C,R1*%
X3395000Y16873641D02*
X3395000Y16566359D01*
X4155000Y16873641D02*
X4155000Y16566359D01*
%TO.C,C9*%
X18812164Y19310000D02*
X19027836Y19310000D01*
X18812164Y18590000D02*
X19027836Y18590000D01*
%TO.C,C18*%
X7167100Y23687836D02*
X7167100Y23472164D01*
X7887100Y23687836D02*
X7887100Y23472164D01*
%TO.C,C14*%
X14332164Y11580000D02*
X14547836Y11580000D01*
X14332164Y10860000D02*
X14547836Y10860000D01*
%TO.C,C21*%
X19970000Y22692836D02*
X19970000Y22477164D01*
X20690000Y22692836D02*
X20690000Y22477164D01*
%TO.C,C10*%
X17822164Y18320000D02*
X18037836Y18320000D01*
X17822164Y17600000D02*
X18037836Y17600000D01*
%TO.C,R6*%
X2403459Y25390000D02*
X2710741Y25390000D01*
X2403459Y24630000D02*
X2710741Y24630000D01*
D12*
%TO.C,D1*%
X20780000Y27800000D02*
G75*
G02*
X20680000Y27800000I-50000J0D01*
G01*
X20680000Y27800000D02*
G75*
G02*
X20780000Y27800000I50000J0D01*
G01*
D11*
%TO.C,C3*%
X7537836Y15320000D02*
X7322164Y15320000D01*
X7537836Y14600000D02*
X7322164Y14600000D01*
%TO.C,C13*%
X3867836Y20140000D02*
X3652164Y20140000D01*
X3867836Y19420000D02*
X3652164Y19420000D01*
%TO.C,L2*%
X20457878Y17285000D02*
X21257122Y17285000D01*
X20457878Y16165000D02*
X21257122Y16165000D01*
%TO.C,C15*%
X14282164Y8510000D02*
X14497836Y8510000D01*
X14282164Y7790000D02*
X14497836Y7790000D01*
%TO.C,C17*%
X6619264Y27470000D02*
X6834936Y27470000D01*
X6619264Y26750000D02*
X6834936Y26750000D01*
%TO.C,U4*%
X19470000Y27252500D02*
X19470000Y26777500D01*
X19470000Y24032500D02*
X19470000Y24507500D01*
X19945000Y27252500D02*
X19470000Y27252500D01*
X19945000Y24032500D02*
X19470000Y24032500D01*
X22215000Y27252500D02*
X22690000Y27252500D01*
X22215000Y24032500D02*
X22390000Y24032500D01*
X22690000Y27252500D02*
X22690000Y26777500D01*
X22690000Y24507500D02*
X22690000Y24272500D01*
X22930000Y23702500D02*
X22450000Y23702500D01*
X22690000Y24032500D01*
X22930000Y23702500D01*
G36*
X22930000Y23702500D02*
G01*
X22450000Y23702500D01*
X22690000Y24032500D01*
X22930000Y23702500D01*
G37*
%TO.C,C4*%
X10300000Y21092164D02*
X10300000Y21307836D01*
X9580000Y21092164D02*
X9580000Y21307836D01*
%TO.C,U2*%
X9802500Y27700000D02*
X9802500Y28500000D01*
X9802500Y27700000D02*
X9802500Y26900000D01*
X12922500Y27700000D02*
X12922500Y28500000D01*
X12922500Y27700000D02*
X12922500Y26900000D01*
X13202500Y28760000D02*
X12872500Y29000000D01*
X13202500Y29240000D01*
X13202500Y28760000D01*
G36*
X13202500Y28760000D02*
G01*
X12872500Y29000000D01*
X13202500Y29240000D01*
X13202500Y28760000D01*
G37*
%TO.C,R9*%
X17950000Y24348641D02*
X17950000Y24041359D01*
X18710000Y24348641D02*
X18710000Y24041359D01*
%TO.C,C5*%
X17130000Y19292164D02*
X17130000Y19507836D01*
X17850000Y19292164D02*
X17850000Y19507836D01*
%TO.C,C19*%
X15970000Y26097164D02*
X15970000Y26312836D01*
X16690000Y26097164D02*
X16690000Y26312836D01*
%TO.C,R2*%
X2235000Y16873641D02*
X2235000Y16566359D01*
X2995000Y16873641D02*
X2995000Y16566359D01*
%TO.C,C8*%
X15540000Y10877836D02*
X15540000Y10662164D01*
X16260000Y10877836D02*
X16260000Y10662164D01*
%TO.C,J1*%
X15345000Y4150000D02*
X14705000Y4150000D01*
X15295000Y1430000D02*
X12595000Y1430000D01*
X14705000Y4150000D02*
X14705000Y4780000D01*
X12545000Y4150000D02*
X13185000Y4150000D01*
%TO.C,C24*%
X26527836Y15150000D02*
X26312164Y15150000D01*
X26527836Y14430000D02*
X26312164Y14430000D01*
%TO.C,R10*%
X21940000Y22351359D02*
X21940000Y22658641D01*
X22700000Y22351359D02*
X22700000Y22658641D01*
D12*
%TO.C,U3*%
X3927100Y26550000D02*
X6927100Y26550000D01*
X3927100Y22950000D02*
X3927100Y26550000D01*
X3927100Y22950000D02*
X3927100Y22850000D01*
X3927100Y22850000D02*
X4927100Y22850000D01*
X6927100Y26550000D02*
X6927100Y22850000D01*
X6927100Y22850000D02*
X5927100Y22850000D01*
D10*
X5502100Y22850000D02*
G75*
G02*
X5352100Y22850000I-75000J0D01*
G01*
X5352100Y22850000D02*
G75*
G02*
X5502100Y22850000I75000J0D01*
G01*
D11*
%TO.C,C12*%
X3857836Y18720000D02*
X3642164Y18720000D01*
X3857836Y18000000D02*
X3642164Y18000000D01*
%TO.C,C7*%
X7620000Y19832164D02*
X7620000Y20047836D01*
X8340000Y19832164D02*
X8340000Y20047836D01*
%TO.C,R8*%
X16950000Y26041359D02*
X16950000Y26348641D01*
X17710000Y26041359D02*
X17710000Y26348641D01*
%TD*%
M02*
