%TF.GenerationSoftware,KiCad,Pcbnew,8.0.4*%
%TF.CreationDate,2024-11-22T16:24:22-05:00*%
%TF.ProjectId,stm32wb_base,73746d33-3277-4625-9f62-6173652e6b69,rev?*%
%TF.SameCoordinates,PX6422c40PY66c2270*%
%TF.FileFunction,Paste,Top*%
%TF.FilePolarity,Positive*%
%FSLAX46Y46*%
G04 Gerber Fmt 4.6, Leading zero omitted, Abs format (unit mm)*
G04 Created by KiCad (PCBNEW 8.0.4) date 2024-11-22 16:24:22*
%MOMM*%
%LPD*%
G01*
G04 APERTURE LIST*
G04 Aperture macros list*
%AMRoundRect*
0 Rectangle with rounded corners*
0 $1 Rounding radius*
0 $2 $3 $4 $5 $6 $7 $8 $9 X,Y pos of 4 corners*
0 Add a 4 corners polygon primitive as box body*
4,1,4,$2,$3,$4,$5,$6,$7,$8,$9,$2,$3,0*
0 Add four circle primitives for the rounded corners*
1,1,$1+$1,$2,$3*
1,1,$1+$1,$4,$5*
1,1,$1+$1,$6,$7*
1,1,$1+$1,$8,$9*
0 Add four rect primitives between the rounded corners*
20,1,$1+$1,$2,$3,$4,$5,0*
20,1,$1+$1,$4,$5,$6,$7,0*
20,1,$1+$1,$6,$7,$8,$9,0*
20,1,$1+$1,$8,$9,$2,$3,0*%
G04 Aperture macros list end*
%ADD10R,0.900000X0.800000*%
%ADD11R,1.100000X0.600000*%
%ADD12RoundRect,0.250000X-0.315000X-0.315000X0.315000X-0.315000X0.315000X0.315000X-0.315000X0.315000X0*%
%ADD13RoundRect,0.062500X-0.375000X-0.062500X0.375000X-0.062500X0.375000X0.062500X-0.375000X0.062500X0*%
%ADD14RoundRect,0.062500X-0.062500X-0.375000X0.062500X-0.375000X0.062500X0.375000X-0.062500X0.375000X0*%
%ADD15RoundRect,0.135000X0.185000X-0.135000X0.185000X0.135000X-0.185000X0.135000X-0.185000X-0.135000X0*%
%ADD16O,1.000000X1.800000*%
%ADD17O,1.000000X2.100000*%
%ADD18RoundRect,0.150000X0.150000X0.425000X-0.150000X0.425000X-0.150000X-0.425000X0.150000X-0.425000X0*%
%ADD19RoundRect,0.075000X0.075000X0.500000X-0.075000X0.500000X-0.075000X-0.500000X0.075000X-0.500000X0*%
%ADD20R,0.580000X0.710000*%
%ADD21R,0.300000X0.750000*%
%ADD22RoundRect,0.135000X-0.185000X0.135000X-0.185000X-0.135000X0.185000X-0.135000X0.185000X0.135000X0*%
%ADD23RoundRect,0.140000X0.140000X0.170000X-0.140000X0.170000X-0.140000X-0.170000X0.140000X-0.170000X0*%
%ADD24RoundRect,0.147500X-0.147500X-0.172500X0.147500X-0.172500X0.147500X0.172500X-0.147500X0.172500X0*%
%ADD25RoundRect,0.140000X-0.170000X0.140000X-0.170000X-0.140000X0.170000X-0.140000X0.170000X0.140000X0*%
%ADD26RoundRect,0.061250X-0.061250X-0.163750X0.061250X-0.163750X0.061250X0.163750X-0.061250X0.163750X0*%
%ADD27RoundRect,0.068750X-0.281250X0.068750X-0.281250X-0.068750X0.281250X-0.068750X0.281250X0.068750X0*%
%ADD28RoundRect,0.140000X0.170000X-0.140000X0.170000X0.140000X-0.170000X0.140000X-0.170000X-0.140000X0*%
%ADD29R,1.500000X1.500000*%
%ADD30RoundRect,0.140000X-0.140000X-0.170000X0.140000X-0.170000X0.140000X0.170000X-0.140000X0.170000X0*%
%ADD31RoundRect,0.147500X0.147500X0.172500X-0.147500X0.172500X-0.147500X-0.172500X0.147500X-0.172500X0*%
%ADD32RoundRect,0.147500X-0.172500X0.147500X-0.172500X-0.147500X0.172500X-0.147500X0.172500X0.147500X0*%
%ADD33RoundRect,0.135000X0.135000X0.185000X-0.135000X0.185000X-0.135000X-0.185000X0.135000X-0.185000X0*%
%ADD34RoundRect,0.135000X-0.135000X-0.185000X0.135000X-0.185000X0.135000X0.185000X-0.135000X0.185000X0*%
%ADD35RoundRect,0.147500X0.172500X-0.147500X0.172500X0.147500X-0.172500X0.147500X-0.172500X-0.147500X0*%
%ADD36RoundRect,0.218750X-0.218750X-0.381250X0.218750X-0.381250X0.218750X0.381250X-0.218750X0.381250X0*%
%ADD37RoundRect,0.160000X0.160000X0.160000X-0.160000X0.160000X-0.160000X-0.160000X0.160000X-0.160000X0*%
%ADD38RoundRect,0.062500X0.375000X0.062500X-0.375000X0.062500X-0.375000X-0.062500X0.375000X-0.062500X0*%
%ADD39RoundRect,0.062500X0.062500X0.375000X-0.062500X0.375000X-0.062500X-0.375000X0.062500X-0.375000X0*%
%ADD40RoundRect,0.150000X-0.150000X0.512500X-0.150000X-0.512500X0.150000X-0.512500X0.150000X0.512500X0*%
%ADD41RoundRect,0.250000X-0.275000X0.850000X-0.275000X-0.850000X0.275000X-0.850000X0.275000X0.850000X0*%
%ADD42RoundRect,0.250000X-0.250000X0.275000X-0.250000X-0.275000X0.250000X-0.275000X0.250000X0.275000X0*%
%ADD43RoundRect,0.076200X0.076200X0.190500X-0.076200X0.190500X-0.076200X-0.190500X0.076200X-0.190500X0*%
%ADD44RoundRect,0.076200X0.190500X-0.076200X0.190500X0.076200X-0.190500X0.076200X-0.190500X-0.076200X0*%
G04 APERTURE END LIST*
D10*
%TO.C,Y1*%
X17950000Y10980000D03*
X19350000Y10980000D03*
X19350000Y12080000D03*
X17950000Y12080000D03*
%TD*%
D11*
%TO.C,Y2*%
X5680000Y18430000D03*
X5680000Y19830000D03*
%TD*%
D12*
%TO.C,U1*%
X10600000Y18150000D03*
X10600000Y16750000D03*
X10600000Y15350000D03*
X10600000Y13950000D03*
X12000000Y18150000D03*
X12000000Y16750000D03*
X12000000Y15350000D03*
X12000000Y13950000D03*
X13400000Y18150000D03*
X13400000Y16750000D03*
X13400000Y15350000D03*
X13400000Y13950000D03*
X14800000Y18150000D03*
X14800000Y16750000D03*
X14800000Y15350000D03*
X14800000Y13950000D03*
D13*
X9262500Y18800000D03*
X9262500Y18300000D03*
X9262500Y17800000D03*
X9262500Y17300000D03*
X9262500Y16800000D03*
X9262500Y16300000D03*
X9262500Y15800000D03*
X9262500Y15300000D03*
X9262500Y14800000D03*
X9262500Y14300000D03*
X9262500Y13800000D03*
X9262500Y13300000D03*
D14*
X9950000Y12612500D03*
X10450000Y12612500D03*
X10950000Y12612500D03*
X11450000Y12612500D03*
X11950000Y12612500D03*
X12450000Y12612500D03*
X12950000Y12612500D03*
X13450000Y12612500D03*
X13950000Y12612500D03*
X14450000Y12612500D03*
X14950000Y12612500D03*
X15450000Y12612500D03*
D13*
X16137500Y13300000D03*
X16137500Y13800000D03*
X16137500Y14300000D03*
X16137500Y14800000D03*
X16137500Y15300000D03*
X16137500Y15800000D03*
X16137500Y16300000D03*
X16137500Y16800000D03*
X16137500Y17300000D03*
X16137500Y17800000D03*
X16137500Y18300000D03*
X16137500Y18800000D03*
D14*
X15450000Y19487500D03*
X14950000Y19487500D03*
X14450000Y19487500D03*
X13950000Y19487500D03*
X13450000Y19487500D03*
X12950000Y19487500D03*
X12450000Y19487500D03*
X11950000Y19487500D03*
X11450000Y19487500D03*
X10950000Y19487500D03*
X10450000Y19487500D03*
X9950000Y19487500D03*
%TD*%
D15*
%TO.C,R11*%
X21330000Y21985000D03*
X21330000Y23005000D03*
%TD*%
D16*
%TO.C,J3*%
X7040000Y37965000D03*
D17*
X7040000Y33785000D03*
D16*
X15680000Y37965000D03*
D17*
X15680000Y33785000D03*
D18*
X14560000Y33210000D03*
X13760000Y33210000D03*
D19*
X13110000Y33210000D03*
X12110000Y33210000D03*
X10610000Y33210000D03*
X9610000Y33210000D03*
D18*
X8960000Y33210000D03*
X8160000Y33210000D03*
X8160000Y33210000D03*
X8960000Y33210000D03*
D19*
X10110000Y33210000D03*
X11110000Y33210000D03*
X11610000Y33210000D03*
X12610000Y33210000D03*
D18*
X13760000Y33210000D03*
X14560000Y33210000D03*
%TD*%
D20*
%TO.C,U5*%
X26800000Y20090000D03*
X26075000Y20090000D03*
X26800000Y19215000D03*
X26075000Y19215000D03*
D21*
X27187500Y21102500D03*
X26687500Y21102500D03*
X26187500Y21102500D03*
X25687500Y21102500D03*
X25687500Y18202500D03*
X26187500Y18202500D03*
X26687500Y18202500D03*
X27187500Y18202500D03*
%TD*%
D22*
%TO.C,R12*%
X28100000Y16810000D03*
X28100000Y15790000D03*
%TD*%
D23*
%TO.C,C1*%
X26880000Y13790000D03*
X25920000Y13790000D03*
%TD*%
D24*
%TO.C,L1*%
X17460000Y16950000D03*
X18430000Y16950000D03*
%TD*%
%TO.C,L4*%
X25930000Y15890000D03*
X26900000Y15890000D03*
%TD*%
D25*
%TO.C,C16*%
X4875000Y17180000D03*
X4875000Y16220000D03*
%TD*%
D23*
%TO.C,C11*%
X18430000Y15910000D03*
X17470000Y15910000D03*
%TD*%
D26*
%TO.C,FLT1*%
X13682500Y6517500D03*
D27*
X13910000Y5905000D03*
D26*
X14137500Y6517500D03*
D27*
X13910000Y7130000D03*
%TD*%
D28*
%TO.C,C22*%
X26700000Y22290000D03*
X26700000Y23250000D03*
%TD*%
%TO.C,C2*%
X13525000Y21575000D03*
X13525000Y22535000D03*
%TD*%
D15*
%TO.C,R7*%
X18330000Y25695000D03*
X18330000Y26715000D03*
%TD*%
D29*
%TO.C,SW1*%
X2550000Y14450000D03*
X2550000Y6650000D03*
%TD*%
D30*
%TO.C,C20*%
X23770000Y25905000D03*
X24730000Y25905000D03*
%TD*%
D31*
%TO.C,D2*%
X18400000Y28405000D03*
X17430000Y28405000D03*
%TD*%
D15*
%TO.C,R13*%
X28950000Y19940000D03*
X28950000Y20960000D03*
%TD*%
D23*
%TO.C,C6*%
X12970000Y11230000D03*
X12010000Y11230000D03*
%TD*%
D32*
%TO.C,L3*%
X13970000Y10180000D03*
X13970000Y9210000D03*
%TD*%
D22*
%TO.C,R4*%
X13100000Y31300000D03*
X13100000Y30280000D03*
%TD*%
D33*
%TO.C,R3*%
X8330000Y31050000D03*
X7310000Y31050000D03*
%TD*%
D34*
%TO.C,R5*%
X2047100Y23960000D03*
X3067100Y23960000D03*
%TD*%
D30*
%TO.C,C25*%
X25940000Y16990000D03*
X26900000Y16990000D03*
%TD*%
D22*
%TO.C,R1*%
X3775000Y17230000D03*
X3775000Y16210000D03*
%TD*%
D30*
%TO.C,C9*%
X18440000Y18950000D03*
X19400000Y18950000D03*
%TD*%
D25*
%TO.C,C18*%
X7527100Y24060000D03*
X7527100Y23100000D03*
%TD*%
D30*
%TO.C,C14*%
X13960000Y11220000D03*
X14920000Y11220000D03*
%TD*%
D25*
%TO.C,C21*%
X20330000Y23065000D03*
X20330000Y22105000D03*
%TD*%
D30*
%TO.C,C10*%
X17450000Y17960000D03*
X18410000Y17960000D03*
%TD*%
D34*
%TO.C,R6*%
X2047100Y25010000D03*
X3067100Y25010000D03*
%TD*%
D35*
%TO.C,D1*%
X20730000Y28405000D03*
X20730000Y29375000D03*
%TD*%
D23*
%TO.C,C3*%
X7910000Y14960000D03*
X6950000Y14960000D03*
%TD*%
%TO.C,C13*%
X4240000Y19780000D03*
X3280000Y19780000D03*
%TD*%
D36*
%TO.C,L2*%
X19795000Y16725000D03*
X21920000Y16725000D03*
%TD*%
D30*
%TO.C,C15*%
X13910000Y8150000D03*
X14870000Y8150000D03*
%TD*%
%TO.C,C17*%
X6247100Y27110000D03*
X7207100Y27110000D03*
%TD*%
D37*
%TO.C,U4*%
X21480000Y25242500D03*
X21480000Y26042500D03*
X20680000Y25242500D03*
X20680000Y26042500D03*
D38*
X22517500Y24892500D03*
X22517500Y25392500D03*
X22517500Y25892500D03*
X22517500Y26392500D03*
D39*
X21830000Y27080000D03*
X21330000Y27080000D03*
X20830000Y27080000D03*
X20330000Y27080000D03*
D38*
X19642500Y26392500D03*
X19642500Y25892500D03*
X19642500Y25392500D03*
X19642500Y24892500D03*
D39*
X20330000Y24205000D03*
X20830000Y24205000D03*
X21330000Y24205000D03*
X21830000Y24205000D03*
%TD*%
D28*
%TO.C,C4*%
X9940000Y21680000D03*
X9940000Y20720000D03*
%TD*%
D40*
%TO.C,U2*%
X12312500Y28837500D03*
X11362500Y28837500D03*
X10412500Y28837500D03*
X10412500Y26562500D03*
X11362500Y26562500D03*
X12312500Y26562500D03*
%TD*%
D22*
%TO.C,R9*%
X18330000Y24705000D03*
X18330000Y23685000D03*
%TD*%
D28*
%TO.C,C5*%
X17490000Y18920000D03*
X17490000Y19880000D03*
%TD*%
%TO.C,C19*%
X16330000Y25725000D03*
X16330000Y26685000D03*
%TD*%
D22*
%TO.C,R2*%
X2615000Y17230000D03*
X2615000Y16210000D03*
%TD*%
D25*
%TO.C,C8*%
X15900000Y11250000D03*
X15900000Y10290000D03*
%TD*%
D41*
%TO.C,J1*%
X12470000Y2790000D03*
X15420000Y2790000D03*
D42*
X13945000Y4315000D03*
%TD*%
D23*
%TO.C,C24*%
X26900000Y14790000D03*
X25940000Y14790000D03*
%TD*%
D15*
%TO.C,R10*%
X22320000Y21995000D03*
X22320000Y23015000D03*
%TD*%
D43*
%TO.C,U3*%
X4677099Y23568900D03*
X5177100Y23568900D03*
X5677100Y23568900D03*
X6177101Y23568900D03*
D44*
X6354200Y24250001D03*
X6354200Y24750000D03*
X6354200Y25249999D03*
D43*
X6177101Y25931100D03*
X5677100Y25931100D03*
X5177100Y25931100D03*
X4677099Y25931100D03*
D44*
X4500000Y25249999D03*
X4500000Y24750000D03*
X4500000Y24250001D03*
%TD*%
D23*
%TO.C,C12*%
X4230000Y18360000D03*
X3270000Y18360000D03*
%TD*%
D28*
%TO.C,C7*%
X7980000Y19460000D03*
X7980000Y20420000D03*
%TD*%
D15*
%TO.C,R8*%
X17330000Y25685000D03*
X17330000Y26705000D03*
%TD*%
M02*
