M48
METRIC,TZ
T1C0.203
T2C0.254
T3C0.300
T4C0.600
T5C0.750
T6C1.000
%
G90
G05
T1
X10975Y17850
X11000Y16125
X11000Y14200
X12400Y17875
X12450Y16150
X12575Y14250
X14125Y17875
X14175Y16150
X14350Y14275
X20650Y25975
X21400Y25325
X26150Y20075
X26775Y19200
T2
X675Y17125
X1600Y16200
X7725Y16767
X7750Y16000
X12600Y20700
X14525Y20650
X16125Y22075
X16150Y21275
X16300Y24875
X18350Y27500
X19550Y29350
X22650Y28225
X23600Y24925
X23600Y24300
X23925Y28975
X25825Y28975
T3
X1250Y25000
X1250Y23950
X2480Y18360
X2530Y19810
X3450Y26050
X4450Y22300
X5125Y14975
X5150Y22300
X5275Y7025
X5275Y6325
X5850Y22300
X6250Y27850
X6500Y31050
X6940Y14210
X7200Y19450
X7210Y27870
X7450Y25600
X7450Y24900
X7925Y14231
X7960Y21215
X8150Y32250
X8250Y24050
X8290Y23090
X9225Y20725
X9950Y22500
X10575Y3325
X10600Y2375
X11225Y11250
X11360Y29920
X12765Y22545
X12808Y21570
X12975Y10506
X13000Y6500
X13840Y30280
X14550Y32300
X14800Y6525
X14940Y10460
X15530Y26710
X15650Y8150
X15900Y9500
X16725Y10625
X17275Y3350
X17325Y2325
X17465Y15140
X17510Y20665
X17530Y23660
X17950Y13100
X18425Y19669
X18850Y5550
X19195Y17965
X20050Y5525
X20195Y18940
X20340Y21280
X20525Y10950
X21340Y21180
X22350Y21250
X23925Y33350
X23950Y32550
X25130Y14810
X25130Y13810
X25570Y25890
X26375Y10625
X26710Y24020
X27325Y10600
X28100Y14750
X28100Y13800
X28940Y19135
T5
X21250Y36850
X21250Y34850
X21250Y32850
T6
X19305Y8050
X21845Y8050
X24385Y8050
X26925Y8050
T4
G00X7040Y37565
M15
G01X7040Y38365
M16
G05
G00X7040Y33235
M15
G01X7040Y34335
M16
G05
G00X15680Y37565
M15
G01X15680Y38365
M16
G05
G00X15680Y33235
M15
G01X15680Y34335
M16
G05
M30
