%TF.GenerationSoftware,KiCad,Pcbnew,8.0.4*%
%TF.CreationDate,2024-11-22T16:24:22-05:00*%
%TF.ProjectId,stm32wb_base,73746d33-3277-4625-9f62-6173652e6b69,rev?*%
%TF.SameCoordinates,PX6422c40PY66c2270*%
%TF.FileFunction,Soldermask,Top*%
%TF.FilePolarity,Negative*%
%FSLAX46Y46*%
G04 Gerber Fmt 4.6, Leading zero omitted, Abs format (unit mm)*
G04 Created by KiCad (PCBNEW 8.0.4) date 2024-11-22 16:24:22*
%MOMM*%
%LPD*%
G01*
G04 APERTURE LIST*
G04 APERTURE END LIST*
G36*
X14199116Y4839182D02*
G01*
X14250379Y4833234D01*
X14267892Y4825501D01*
X14290671Y4820970D01*
X14315057Y4804676D01*
X14335788Y4795522D01*
X14349946Y4781364D01*
X14371777Y4766777D01*
X14386363Y4744947D01*
X14400521Y4730789D01*
X14409673Y4710061D01*
X14425970Y4685671D01*
X14430501Y4662891D01*
X14438233Y4645380D01*
X14444178Y4594128D01*
X14445000Y4590000D01*
X14445000Y4040000D01*
X14444178Y4035872D01*
X14438233Y3984621D01*
X14430501Y3967112D01*
X14425970Y3944329D01*
X14409672Y3919938D01*
X14400521Y3899212D01*
X14386365Y3885057D01*
X14371777Y3863223D01*
X14349943Y3848635D01*
X14344027Y3842718D01*
X14370006Y3780000D01*
X14885000Y3780000D01*
X14885000Y3774531D01*
X14888069Y3771462D01*
X14930153Y3771462D01*
X14953635Y3794946D01*
X14968223Y3816777D01*
X14990051Y3831363D01*
X15004211Y3845522D01*
X15024944Y3854677D01*
X15049329Y3870970D01*
X15072105Y3875501D01*
X15089620Y3883234D01*
X15140884Y3889182D01*
X15145000Y3890000D01*
X15695000Y3890000D01*
X15699116Y3889182D01*
X15750379Y3883234D01*
X15767892Y3875501D01*
X15790671Y3870970D01*
X15815057Y3854676D01*
X15835788Y3845522D01*
X15849946Y3831364D01*
X15871777Y3816777D01*
X15886363Y3794947D01*
X15900521Y3780789D01*
X15909673Y3760061D01*
X15925970Y3735671D01*
X15930501Y3712891D01*
X15938233Y3695380D01*
X15944178Y3644128D01*
X15945000Y3640000D01*
X15945000Y1940000D01*
X15944178Y1935872D01*
X15938233Y1884621D01*
X15930501Y1867112D01*
X15925970Y1844329D01*
X15909672Y1819938D01*
X15900521Y1799212D01*
X15886365Y1785057D01*
X15871777Y1763223D01*
X15849943Y1748635D01*
X15835788Y1734479D01*
X15815062Y1725328D01*
X15790671Y1709030D01*
X15767888Y1704499D01*
X15750379Y1696767D01*
X15699129Y1690822D01*
X15695000Y1690000D01*
X15145000Y1690000D01*
X15140873Y1690821D01*
X15089620Y1696767D01*
X15072109Y1704499D01*
X15049329Y1709030D01*
X15024939Y1725327D01*
X15004211Y1734479D01*
X14990054Y1748636D01*
X14968223Y1763223D01*
X14953634Y1785057D01*
X14947718Y1790973D01*
X14885000Y1764994D01*
X14885000Y1690000D01*
X14879532Y1690000D01*
X13010468Y1690000D01*
X13005000Y1690000D01*
X13005000Y1764994D01*
X12942282Y1790973D01*
X12936365Y1785057D01*
X12921777Y1763223D01*
X12899943Y1748635D01*
X12885788Y1734479D01*
X12865062Y1725328D01*
X12840671Y1709030D01*
X12817888Y1704499D01*
X12800379Y1696767D01*
X12749129Y1690822D01*
X12745000Y1690000D01*
X12195000Y1690000D01*
X12190873Y1690821D01*
X12139620Y1696767D01*
X12122109Y1704499D01*
X12099329Y1709030D01*
X12074939Y1725327D01*
X12054211Y1734479D01*
X12040053Y1748637D01*
X12018223Y1763223D01*
X12003636Y1785054D01*
X11989478Y1799212D01*
X11980324Y1819943D01*
X11964030Y1844329D01*
X11959499Y1867108D01*
X11951766Y1884621D01*
X11945818Y1935883D01*
X11945000Y1940000D01*
X11945000Y3640000D01*
X11945818Y3644115D01*
X11951766Y3695380D01*
X11959499Y3712895D01*
X11964030Y3735671D01*
X11980323Y3760056D01*
X11989478Y3780789D01*
X12003638Y3794950D01*
X12018223Y3816777D01*
X12040050Y3831362D01*
X12054211Y3845522D01*
X12074944Y3854677D01*
X12099329Y3870970D01*
X12122105Y3875501D01*
X12139620Y3883234D01*
X12190884Y3889182D01*
X12195000Y3890000D01*
X12745000Y3890000D01*
X12749116Y3889182D01*
X12800379Y3883234D01*
X12817892Y3875501D01*
X12840671Y3870970D01*
X12865057Y3854676D01*
X12885788Y3845522D01*
X12899945Y3831365D01*
X12921777Y3816777D01*
X12936365Y3794945D01*
X12959847Y3771462D01*
X13001931Y3771462D01*
X13005000Y3774531D01*
X13005000Y3780000D01*
X13519994Y3780000D01*
X13545973Y3842718D01*
X13540056Y3848635D01*
X13518223Y3863223D01*
X13503635Y3885055D01*
X13489478Y3899212D01*
X13480324Y3919943D01*
X13464030Y3944329D01*
X13459499Y3967108D01*
X13451766Y3984621D01*
X13445818Y4035883D01*
X13445000Y4040000D01*
X13445000Y4590000D01*
X13445818Y4594115D01*
X13451766Y4645380D01*
X13459499Y4662895D01*
X13464030Y4685671D01*
X13480323Y4710056D01*
X13489478Y4730789D01*
X13503638Y4744950D01*
X13518223Y4766777D01*
X13540050Y4781362D01*
X13554211Y4795522D01*
X13574944Y4804677D01*
X13599329Y4820970D01*
X13622105Y4825501D01*
X13639620Y4833234D01*
X13690884Y4839182D01*
X13695000Y4840000D01*
X14195000Y4840000D01*
X14199116Y4839182D01*
G37*
G36*
X3297680Y4145304D02*
G01*
X3346862Y4145304D01*
X3401632Y4135066D01*
X3454845Y4129825D01*
X3495268Y4117563D01*
X3537283Y4109709D01*
X3595474Y4087166D01*
X3651818Y4070074D01*
X3684009Y4052868D01*
X3717931Y4039726D01*
X3776876Y4003229D01*
X3833349Y3973043D01*
X3857075Y3953572D01*
X3882634Y3937746D01*
X3939263Y3886121D01*
X3992462Y3842462D01*
X4008228Y3823252D01*
X4025800Y3807232D01*
X4076810Y3739683D01*
X4123043Y3683349D01*
X4131983Y3666623D01*
X4142542Y3652641D01*
X4184541Y3568294D01*
X4220074Y3501818D01*
X4223864Y3489324D01*
X4228891Y3479228D01*
X4258590Y3374846D01*
X4279825Y3304845D01*
X4280522Y3297764D01*
X4281908Y3292894D01*
X4296315Y3137414D01*
X4300000Y3100000D01*
X4296314Y3062584D01*
X4281908Y2907107D01*
X4280522Y2902238D01*
X4279825Y2895155D01*
X4258585Y2825139D01*
X4228891Y2720773D01*
X4223865Y2710680D01*
X4220074Y2698182D01*
X4184534Y2631693D01*
X4142542Y2547360D01*
X4131985Y2533381D01*
X4123043Y2516651D01*
X4076801Y2460306D01*
X4025800Y2392769D01*
X4008231Y2376753D01*
X3992462Y2357538D01*
X3939252Y2313871D01*
X3882634Y2262255D01*
X3857080Y2246433D01*
X3833349Y2226957D01*
X3776865Y2196766D01*
X3717931Y2160275D01*
X3684016Y2147137D01*
X3651818Y2129926D01*
X3595463Y2112831D01*
X3537283Y2090292D01*
X3495275Y2082440D01*
X3454845Y2070175D01*
X3401629Y2064934D01*
X3346862Y2054696D01*
X3297680Y2054696D01*
X3250000Y2050000D01*
X3202320Y2054696D01*
X3153138Y2054696D01*
X3098369Y2064934D01*
X3045155Y2070175D01*
X3004726Y2082439D01*
X2962716Y2090292D01*
X2904532Y2112833D01*
X2848182Y2129926D01*
X2815986Y2147136D01*
X2782068Y2160275D01*
X2723127Y2196770D01*
X2666651Y2226957D01*
X2642922Y2246431D01*
X2617365Y2262255D01*
X2560737Y2313879D01*
X2507538Y2357538D01*
X2491771Y2376750D01*
X2474199Y2392769D01*
X2423186Y2460321D01*
X2376957Y2516651D01*
X2368017Y2533377D01*
X2357457Y2547360D01*
X2315450Y2631721D01*
X2279926Y2698182D01*
X2276136Y2710675D01*
X2271108Y2720773D01*
X2241397Y2825193D01*
X2220175Y2895155D01*
X2219477Y2902233D01*
X2218091Y2907107D01*
X2203668Y3062756D01*
X2200000Y3100000D01*
X2203667Y3137242D01*
X2218091Y3292894D01*
X2219478Y3297770D01*
X2220175Y3304845D01*
X2241393Y3374793D01*
X2271108Y3479228D01*
X2276137Y3489329D01*
X2279926Y3501818D01*
X2315443Y3568267D01*
X2357457Y3652641D01*
X2368019Y3666628D01*
X2376957Y3683349D01*
X2423176Y3739668D01*
X2474199Y3807232D01*
X2491774Y3823255D01*
X2507538Y3842462D01*
X2560726Y3886113D01*
X2617365Y3937746D01*
X2642927Y3953574D01*
X2666651Y3973043D01*
X2723115Y4003225D01*
X2782068Y4039726D01*
X2815993Y4052869D01*
X2848182Y4070074D01*
X2904520Y4087165D01*
X2962716Y4109709D01*
X3004732Y4117564D01*
X3045155Y4129825D01*
X3098366Y4135066D01*
X3153138Y4145304D01*
X3202320Y4145304D01*
X3250000Y4150000D01*
X3297680Y4145304D01*
G37*
G36*
X26847680Y4145304D02*
G01*
X26896862Y4145304D01*
X26951632Y4135066D01*
X27004845Y4129825D01*
X27045268Y4117563D01*
X27087283Y4109709D01*
X27145474Y4087166D01*
X27201818Y4070074D01*
X27234009Y4052868D01*
X27267931Y4039726D01*
X27326876Y4003229D01*
X27383349Y3973043D01*
X27407075Y3953572D01*
X27432634Y3937746D01*
X27489263Y3886121D01*
X27542462Y3842462D01*
X27558228Y3823252D01*
X27575800Y3807232D01*
X27626810Y3739683D01*
X27673043Y3683349D01*
X27681983Y3666623D01*
X27692542Y3652641D01*
X27734541Y3568294D01*
X27770074Y3501818D01*
X27773864Y3489324D01*
X27778891Y3479228D01*
X27808590Y3374846D01*
X27829825Y3304845D01*
X27830522Y3297764D01*
X27831908Y3292894D01*
X27846315Y3137414D01*
X27850000Y3100000D01*
X27846314Y3062584D01*
X27831908Y2907107D01*
X27830522Y2902238D01*
X27829825Y2895155D01*
X27808585Y2825139D01*
X27778891Y2720773D01*
X27773865Y2710680D01*
X27770074Y2698182D01*
X27734534Y2631693D01*
X27692542Y2547360D01*
X27681985Y2533381D01*
X27673043Y2516651D01*
X27626801Y2460306D01*
X27575800Y2392769D01*
X27558231Y2376753D01*
X27542462Y2357538D01*
X27489252Y2313871D01*
X27432634Y2262255D01*
X27407080Y2246433D01*
X27383349Y2226957D01*
X27326865Y2196766D01*
X27267931Y2160275D01*
X27234016Y2147137D01*
X27201818Y2129926D01*
X27145463Y2112831D01*
X27087283Y2090292D01*
X27045275Y2082440D01*
X27004845Y2070175D01*
X26951629Y2064934D01*
X26896862Y2054696D01*
X26847680Y2054696D01*
X26800000Y2050000D01*
X26752320Y2054696D01*
X26703138Y2054696D01*
X26648369Y2064934D01*
X26595155Y2070175D01*
X26554726Y2082439D01*
X26512716Y2090292D01*
X26454532Y2112833D01*
X26398182Y2129926D01*
X26365986Y2147136D01*
X26332068Y2160275D01*
X26273127Y2196770D01*
X26216651Y2226957D01*
X26192922Y2246431D01*
X26167365Y2262255D01*
X26110737Y2313879D01*
X26057538Y2357538D01*
X26041771Y2376750D01*
X26024199Y2392769D01*
X25973186Y2460321D01*
X25926957Y2516651D01*
X25918017Y2533377D01*
X25907457Y2547360D01*
X25865450Y2631721D01*
X25829926Y2698182D01*
X25826136Y2710675D01*
X25821108Y2720773D01*
X25791397Y2825193D01*
X25770175Y2895155D01*
X25769477Y2902233D01*
X25768091Y2907107D01*
X25753668Y3062756D01*
X25750000Y3100000D01*
X25753667Y3137242D01*
X25768091Y3292894D01*
X25769478Y3297770D01*
X25770175Y3304845D01*
X25791393Y3374793D01*
X25821108Y3479228D01*
X25826137Y3489329D01*
X25829926Y3501818D01*
X25865443Y3568267D01*
X25907457Y3652641D01*
X25918019Y3666628D01*
X25926957Y3683349D01*
X25973176Y3739668D01*
X26024199Y3807232D01*
X26041774Y3823255D01*
X26057538Y3842462D01*
X26110726Y3886113D01*
X26167365Y3937746D01*
X26192927Y3953574D01*
X26216651Y3973043D01*
X26273115Y4003225D01*
X26332068Y4039726D01*
X26365993Y4052869D01*
X26398182Y4070074D01*
X26454520Y4087165D01*
X26512716Y4109709D01*
X26554732Y4117564D01*
X26595155Y4129825D01*
X26648366Y4135066D01*
X26703138Y4145304D01*
X26752320Y4145304D01*
X26800000Y4150000D01*
X26847680Y4145304D01*
G37*
G36*
X14217559Y6037267D02*
G01*
X14239864Y6022364D01*
X14254767Y6000059D01*
X14260000Y5973750D01*
X14260000Y5836250D01*
X14254767Y5809941D01*
X14239864Y5787636D01*
X14217559Y5772733D01*
X14191250Y5767500D01*
X13628750Y5767500D01*
X13602441Y5772733D01*
X13580136Y5787636D01*
X13565233Y5809941D01*
X13560000Y5836250D01*
X13560000Y5973750D01*
X13565233Y6000059D01*
X13580136Y6022364D01*
X13602441Y6037267D01*
X13628750Y6042500D01*
X14191250Y6042500D01*
X14217559Y6037267D01*
G37*
G36*
X3300000Y5900000D02*
G01*
X1800000Y5900000D01*
X1800000Y7400000D01*
X3300000Y7400000D01*
X3300000Y5900000D01*
G37*
G36*
X13767189Y6737838D02*
G01*
X13787060Y6724560D01*
X13800338Y6704689D01*
X13805000Y6681250D01*
X13805000Y6353750D01*
X13800338Y6330311D01*
X13787060Y6310440D01*
X13767189Y6297162D01*
X13743750Y6292500D01*
X13621250Y6292500D01*
X13597811Y6297162D01*
X13577940Y6310440D01*
X13564662Y6330311D01*
X13560000Y6353750D01*
X13560000Y6681250D01*
X13564662Y6704689D01*
X13577940Y6724560D01*
X13597811Y6737838D01*
X13621250Y6742500D01*
X13743750Y6742500D01*
X13767189Y6737838D01*
G37*
G36*
X14222189Y6737838D02*
G01*
X14242060Y6724560D01*
X14255338Y6704689D01*
X14260000Y6681250D01*
X14260000Y6353750D01*
X14255338Y6330311D01*
X14242060Y6310440D01*
X14222189Y6297162D01*
X14198750Y6292500D01*
X14076250Y6292500D01*
X14052811Y6297162D01*
X14032940Y6310440D01*
X14019662Y6330311D01*
X14015000Y6353750D01*
X14015000Y6681250D01*
X14019662Y6704689D01*
X14032940Y6724560D01*
X14052811Y6737838D01*
X14076250Y6742500D01*
X14198750Y6742500D01*
X14222189Y6737838D01*
G37*
G36*
X14217559Y7262267D02*
G01*
X14239864Y7247364D01*
X14254767Y7225059D01*
X14260000Y7198750D01*
X14260000Y7061250D01*
X14254767Y7034941D01*
X14239864Y7012636D01*
X14217559Y6997733D01*
X14191250Y6992500D01*
X13628750Y6992500D01*
X13602441Y6997733D01*
X13580136Y7012636D01*
X13565233Y7034941D01*
X13560000Y7061250D01*
X13560000Y7198750D01*
X13565233Y7225059D01*
X13580136Y7247364D01*
X13602441Y7262267D01*
X13628750Y7267500D01*
X14191250Y7267500D01*
X14217559Y7262267D01*
G37*
G36*
X27775000Y7200000D02*
G01*
X26075000Y7200000D01*
X26075000Y8900000D01*
X27775000Y8900000D01*
X27775000Y7200000D01*
G37*
G36*
X19567664Y8858398D02*
G01*
X19730000Y8786122D01*
X19873761Y8681673D01*
X19992664Y8549617D01*
X20081514Y8395726D01*
X20136425Y8226725D01*
X20155000Y8050000D01*
X20136425Y7873275D01*
X20081514Y7704274D01*
X19992664Y7550383D01*
X19873761Y7418327D01*
X19730000Y7313878D01*
X19567664Y7241602D01*
X19393849Y7204656D01*
X19216151Y7204656D01*
X19042336Y7241602D01*
X18880000Y7313878D01*
X18736239Y7418327D01*
X18617336Y7550383D01*
X18528486Y7704274D01*
X18473575Y7873275D01*
X18455000Y8050000D01*
X18473575Y8226725D01*
X18528486Y8395726D01*
X18617336Y8549617D01*
X18736239Y8681673D01*
X18880000Y8786122D01*
X19042336Y8858398D01*
X19216151Y8895344D01*
X19393849Y8895344D01*
X19567664Y8858398D01*
G37*
G36*
X22107664Y8858398D02*
G01*
X22270000Y8786122D01*
X22413761Y8681673D01*
X22532664Y8549617D01*
X22621514Y8395726D01*
X22676425Y8226725D01*
X22695000Y8050000D01*
X22676425Y7873275D01*
X22621514Y7704274D01*
X22532664Y7550383D01*
X22413761Y7418327D01*
X22270000Y7313878D01*
X22107664Y7241602D01*
X21933849Y7204656D01*
X21756151Y7204656D01*
X21582336Y7241602D01*
X21420000Y7313878D01*
X21276239Y7418327D01*
X21157336Y7550383D01*
X21068486Y7704274D01*
X21013575Y7873275D01*
X20995000Y8050000D01*
X21013575Y8226725D01*
X21068486Y8395726D01*
X21157336Y8549617D01*
X21276239Y8681673D01*
X21420000Y8786122D01*
X21582336Y8858398D01*
X21756151Y8895344D01*
X21933849Y8895344D01*
X22107664Y8858398D01*
G37*
G36*
X24647664Y8858398D02*
G01*
X24810000Y8786122D01*
X24953761Y8681673D01*
X25072664Y8549617D01*
X25161514Y8395726D01*
X25216425Y8226725D01*
X25235000Y8050000D01*
X25216425Y7873275D01*
X25161514Y7704274D01*
X25072664Y7550383D01*
X24953761Y7418327D01*
X24810000Y7313878D01*
X24647664Y7241602D01*
X24473849Y7204656D01*
X24296151Y7204656D01*
X24122336Y7241602D01*
X23960000Y7313878D01*
X23816239Y7418327D01*
X23697336Y7550383D01*
X23608486Y7704274D01*
X23553575Y7873275D01*
X23535000Y8050000D01*
X23553575Y8226725D01*
X23608486Y8395726D01*
X23697336Y8549617D01*
X23816239Y8681673D01*
X23960000Y8786122D01*
X24122336Y8858398D01*
X24296151Y8895344D01*
X24473849Y8895344D01*
X24647664Y8858398D01*
G37*
G36*
X14103576Y8449343D02*
G01*
X14148995Y8418995D01*
X14179343Y8373576D01*
X14190000Y8320000D01*
X14190000Y7980000D01*
X14179343Y7926424D01*
X14148995Y7881005D01*
X14103576Y7850657D01*
X14050000Y7840000D01*
X13770000Y7840000D01*
X13716424Y7850657D01*
X13671005Y7881005D01*
X13640657Y7926424D01*
X13630000Y7980000D01*
X13630000Y8320000D01*
X13640657Y8373576D01*
X13671005Y8418995D01*
X13716424Y8449343D01*
X13770000Y8460000D01*
X14050000Y8460000D01*
X14103576Y8449343D01*
G37*
G36*
X15063576Y8449343D02*
G01*
X15108995Y8418995D01*
X15139343Y8373576D01*
X15150000Y8320000D01*
X15150000Y7980000D01*
X15139343Y7926424D01*
X15108995Y7881005D01*
X15063576Y7850657D01*
X15010000Y7840000D01*
X14730000Y7840000D01*
X14676424Y7850657D01*
X14631005Y7881005D01*
X14600657Y7926424D01*
X14590000Y7980000D01*
X14590000Y8320000D01*
X14600657Y8373576D01*
X14631005Y8418995D01*
X14676424Y8449343D01*
X14730000Y8460000D01*
X15010000Y8460000D01*
X15063576Y8449343D01*
G37*
G36*
X14198946Y9493772D02*
G01*
X14246798Y9461798D01*
X14278772Y9413946D01*
X14290000Y9357500D01*
X14290000Y9062500D01*
X14278772Y9006054D01*
X14246798Y8958202D01*
X14198946Y8926228D01*
X14142500Y8915000D01*
X13797500Y8915000D01*
X13741054Y8926228D01*
X13693202Y8958202D01*
X13661228Y9006054D01*
X13650000Y9062500D01*
X13650000Y9357500D01*
X13661228Y9413946D01*
X13693202Y9461798D01*
X13741054Y9493772D01*
X13797500Y9505000D01*
X14142500Y9505000D01*
X14198946Y9493772D01*
G37*
G36*
X14198946Y10463772D02*
G01*
X14246798Y10431798D01*
X14278772Y10383946D01*
X14290000Y10327500D01*
X14290000Y10032500D01*
X14278772Y9976054D01*
X14246798Y9928202D01*
X14198946Y9896228D01*
X14142500Y9885000D01*
X13797500Y9885000D01*
X13741054Y9896228D01*
X13693202Y9928202D01*
X13661228Y9976054D01*
X13650000Y10032500D01*
X13650000Y10327500D01*
X13661228Y10383946D01*
X13693202Y10431798D01*
X13741054Y10463772D01*
X13797500Y10475000D01*
X14142500Y10475000D01*
X14198946Y10463772D01*
G37*
G36*
X16123576Y10559343D02*
G01*
X16168995Y10528995D01*
X16199343Y10483576D01*
X16210000Y10430000D01*
X16210000Y10150000D01*
X16199343Y10096424D01*
X16168995Y10051005D01*
X16123576Y10020657D01*
X16070000Y10010000D01*
X15730000Y10010000D01*
X15676424Y10020657D01*
X15631005Y10051005D01*
X15600657Y10096424D01*
X15590000Y10150000D01*
X15590000Y10430000D01*
X15600657Y10483576D01*
X15631005Y10528995D01*
X15676424Y10559343D01*
X15730000Y10570000D01*
X16070000Y10570000D01*
X16123576Y10559343D01*
G37*
G36*
X18400000Y10580000D02*
G01*
X17500000Y10580000D01*
X17500000Y11380000D01*
X18400000Y11380000D01*
X18400000Y10580000D01*
G37*
G36*
X19800000Y10580000D02*
G01*
X18900000Y10580000D01*
X18900000Y11380000D01*
X19800000Y11380000D01*
X19800000Y10580000D01*
G37*
G36*
X14153576Y11519343D02*
G01*
X14198995Y11488995D01*
X14229343Y11443576D01*
X14240000Y11390000D01*
X14240000Y11050000D01*
X14229343Y10996424D01*
X14198995Y10951005D01*
X14153576Y10920657D01*
X14100000Y10910000D01*
X13820000Y10910000D01*
X13766424Y10920657D01*
X13721005Y10951005D01*
X13690657Y10996424D01*
X13680000Y11050000D01*
X13680000Y11390000D01*
X13690657Y11443576D01*
X13721005Y11488995D01*
X13766424Y11519343D01*
X13820000Y11530000D01*
X14100000Y11530000D01*
X14153576Y11519343D01*
G37*
G36*
X15113576Y11519343D02*
G01*
X15158995Y11488995D01*
X15189343Y11443576D01*
X15200000Y11390000D01*
X15200000Y11050000D01*
X15189343Y10996424D01*
X15158995Y10951005D01*
X15113576Y10920657D01*
X15060000Y10910000D01*
X14780000Y10910000D01*
X14726424Y10920657D01*
X14681005Y10951005D01*
X14650657Y10996424D01*
X14640000Y11050000D01*
X14640000Y11390000D01*
X14650657Y11443576D01*
X14681005Y11488995D01*
X14726424Y11519343D01*
X14780000Y11530000D01*
X15060000Y11530000D01*
X15113576Y11519343D01*
G37*
G36*
X12203576Y11529343D02*
G01*
X12248995Y11498995D01*
X12279343Y11453576D01*
X12290000Y11400000D01*
X12290000Y11060000D01*
X12279343Y11006424D01*
X12248995Y10961005D01*
X12203576Y10930657D01*
X12150000Y10920000D01*
X11870000Y10920000D01*
X11816424Y10930657D01*
X11771005Y10961005D01*
X11740657Y11006424D01*
X11730000Y11060000D01*
X11730000Y11400000D01*
X11740657Y11453576D01*
X11771005Y11498995D01*
X11816424Y11529343D01*
X11870000Y11540000D01*
X12150000Y11540000D01*
X12203576Y11529343D01*
G37*
G36*
X13163576Y11529343D02*
G01*
X13208995Y11498995D01*
X13239343Y11453576D01*
X13250000Y11400000D01*
X13250000Y11060000D01*
X13239343Y11006424D01*
X13208995Y10961005D01*
X13163576Y10930657D01*
X13110000Y10920000D01*
X12830000Y10920000D01*
X12776424Y10930657D01*
X12731005Y10961005D01*
X12700657Y11006424D01*
X12690000Y11060000D01*
X12690000Y11400000D01*
X12700657Y11453576D01*
X12731005Y11498995D01*
X12776424Y11529343D01*
X12830000Y11540000D01*
X13110000Y11540000D01*
X13163576Y11529343D01*
G37*
G36*
X16123576Y11519343D02*
G01*
X16168995Y11488995D01*
X16199343Y11443576D01*
X16210000Y11390000D01*
X16210000Y11110000D01*
X16199343Y11056424D01*
X16168995Y11011005D01*
X16123576Y10980657D01*
X16070000Y10970000D01*
X15730000Y10970000D01*
X15676424Y10980657D01*
X15631005Y11011005D01*
X15600657Y11056424D01*
X15590000Y11110000D01*
X15590000Y11390000D01*
X15600657Y11443576D01*
X15631005Y11488995D01*
X15676424Y11519343D01*
X15730000Y11530000D01*
X16070000Y11530000D01*
X16123576Y11519343D01*
G37*
G36*
X18400000Y11680000D02*
G01*
X17500000Y11680000D01*
X17500000Y12480000D01*
X18400000Y12480000D01*
X18400000Y11680000D01*
G37*
G36*
X19800000Y11680000D02*
G01*
X18900000Y11680000D01*
X18900000Y12480000D01*
X19800000Y12480000D01*
X19800000Y11680000D01*
G37*
G36*
X10036418Y13045242D02*
G01*
X10056694Y13031694D01*
X10070242Y13011418D01*
X10075000Y12987500D01*
X10075000Y12237500D01*
X10070242Y12213582D01*
X10056694Y12193306D01*
X10036418Y12179758D01*
X10012500Y12175000D01*
X9887500Y12175000D01*
X9863582Y12179758D01*
X9843306Y12193306D01*
X9829758Y12213582D01*
X9825000Y12237500D01*
X9825000Y12987500D01*
X9829758Y13011418D01*
X9843306Y13031694D01*
X9863582Y13045242D01*
X9887500Y13050000D01*
X10012500Y13050000D01*
X10036418Y13045242D01*
G37*
G36*
X10536418Y13045242D02*
G01*
X10556694Y13031694D01*
X10570242Y13011418D01*
X10575000Y12987500D01*
X10575000Y12237500D01*
X10570242Y12213582D01*
X10556694Y12193306D01*
X10536418Y12179758D01*
X10512500Y12175000D01*
X10387500Y12175000D01*
X10363582Y12179758D01*
X10343306Y12193306D01*
X10329758Y12213582D01*
X10325000Y12237500D01*
X10325000Y12987500D01*
X10329758Y13011418D01*
X10343306Y13031694D01*
X10363582Y13045242D01*
X10387500Y13050000D01*
X10512500Y13050000D01*
X10536418Y13045242D01*
G37*
G36*
X11036418Y13045242D02*
G01*
X11056694Y13031694D01*
X11070242Y13011418D01*
X11075000Y12987500D01*
X11075000Y12237500D01*
X11070242Y12213582D01*
X11056694Y12193306D01*
X11036418Y12179758D01*
X11012500Y12175000D01*
X10887500Y12175000D01*
X10863582Y12179758D01*
X10843306Y12193306D01*
X10829758Y12213582D01*
X10825000Y12237500D01*
X10825000Y12987500D01*
X10829758Y13011418D01*
X10843306Y13031694D01*
X10863582Y13045242D01*
X10887500Y13050000D01*
X11012500Y13050000D01*
X11036418Y13045242D01*
G37*
G36*
X11536418Y13045242D02*
G01*
X11556694Y13031694D01*
X11570242Y13011418D01*
X11575000Y12987500D01*
X11575000Y12237500D01*
X11570242Y12213582D01*
X11556694Y12193306D01*
X11536418Y12179758D01*
X11512500Y12175000D01*
X11387500Y12175000D01*
X11363582Y12179758D01*
X11343306Y12193306D01*
X11329758Y12213582D01*
X11325000Y12237500D01*
X11325000Y12987500D01*
X11329758Y13011418D01*
X11343306Y13031694D01*
X11363582Y13045242D01*
X11387500Y13050000D01*
X11512500Y13050000D01*
X11536418Y13045242D01*
G37*
G36*
X12036418Y13045242D02*
G01*
X12056694Y13031694D01*
X12070242Y13011418D01*
X12075000Y12987500D01*
X12075000Y12237500D01*
X12070242Y12213582D01*
X12056694Y12193306D01*
X12036418Y12179758D01*
X12012500Y12175000D01*
X11887500Y12175000D01*
X11863582Y12179758D01*
X11843306Y12193306D01*
X11829758Y12213582D01*
X11825000Y12237500D01*
X11825000Y12987500D01*
X11829758Y13011418D01*
X11843306Y13031694D01*
X11863582Y13045242D01*
X11887500Y13050000D01*
X12012500Y13050000D01*
X12036418Y13045242D01*
G37*
G36*
X12536418Y13045242D02*
G01*
X12556694Y13031694D01*
X12570242Y13011418D01*
X12575000Y12987500D01*
X12575000Y12237500D01*
X12570242Y12213582D01*
X12556694Y12193306D01*
X12536418Y12179758D01*
X12512500Y12175000D01*
X12387500Y12175000D01*
X12363582Y12179758D01*
X12343306Y12193306D01*
X12329758Y12213582D01*
X12325000Y12237500D01*
X12325000Y12987500D01*
X12329758Y13011418D01*
X12343306Y13031694D01*
X12363582Y13045242D01*
X12387500Y13050000D01*
X12512500Y13050000D01*
X12536418Y13045242D01*
G37*
G36*
X13036418Y13045242D02*
G01*
X13056694Y13031694D01*
X13070242Y13011418D01*
X13075000Y12987500D01*
X13075000Y12237500D01*
X13070242Y12213582D01*
X13056694Y12193306D01*
X13036418Y12179758D01*
X13012500Y12175000D01*
X12887500Y12175000D01*
X12863582Y12179758D01*
X12843306Y12193306D01*
X12829758Y12213582D01*
X12825000Y12237500D01*
X12825000Y12987500D01*
X12829758Y13011418D01*
X12843306Y13031694D01*
X12863582Y13045242D01*
X12887500Y13050000D01*
X13012500Y13050000D01*
X13036418Y13045242D01*
G37*
G36*
X13536418Y13045242D02*
G01*
X13556694Y13031694D01*
X13570242Y13011418D01*
X13575000Y12987500D01*
X13575000Y12237500D01*
X13570242Y12213582D01*
X13556694Y12193306D01*
X13536418Y12179758D01*
X13512500Y12175000D01*
X13387500Y12175000D01*
X13363582Y12179758D01*
X13343306Y12193306D01*
X13329758Y12213582D01*
X13325000Y12237500D01*
X13325000Y12987500D01*
X13329758Y13011418D01*
X13343306Y13031694D01*
X13363582Y13045242D01*
X13387500Y13050000D01*
X13512500Y13050000D01*
X13536418Y13045242D01*
G37*
G36*
X14036418Y13045242D02*
G01*
X14056694Y13031694D01*
X14070242Y13011418D01*
X14075000Y12987500D01*
X14075000Y12237500D01*
X14070242Y12213582D01*
X14056694Y12193306D01*
X14036418Y12179758D01*
X14012500Y12175000D01*
X13887500Y12175000D01*
X13863582Y12179758D01*
X13843306Y12193306D01*
X13829758Y12213582D01*
X13825000Y12237500D01*
X13825000Y12987500D01*
X13829758Y13011418D01*
X13843306Y13031694D01*
X13863582Y13045242D01*
X13887500Y13050000D01*
X14012500Y13050000D01*
X14036418Y13045242D01*
G37*
G36*
X14536418Y13045242D02*
G01*
X14556694Y13031694D01*
X14570242Y13011418D01*
X14575000Y12987500D01*
X14575000Y12237500D01*
X14570242Y12213582D01*
X14556694Y12193306D01*
X14536418Y12179758D01*
X14512500Y12175000D01*
X14387500Y12175000D01*
X14363582Y12179758D01*
X14343306Y12193306D01*
X14329758Y12213582D01*
X14325000Y12237500D01*
X14325000Y12987500D01*
X14329758Y13011418D01*
X14343306Y13031694D01*
X14363582Y13045242D01*
X14387500Y13050000D01*
X14512500Y13050000D01*
X14536418Y13045242D01*
G37*
G36*
X15036418Y13045242D02*
G01*
X15056694Y13031694D01*
X15070242Y13011418D01*
X15075000Y12987500D01*
X15075000Y12237500D01*
X15070242Y12213582D01*
X15056694Y12193306D01*
X15036418Y12179758D01*
X15012500Y12175000D01*
X14887500Y12175000D01*
X14863582Y12179758D01*
X14843306Y12193306D01*
X14829758Y12213582D01*
X14825000Y12237500D01*
X14825000Y12987500D01*
X14829758Y13011418D01*
X14843306Y13031694D01*
X14863582Y13045242D01*
X14887500Y13050000D01*
X15012500Y13050000D01*
X15036418Y13045242D01*
G37*
G36*
X15536418Y13045242D02*
G01*
X15556694Y13031694D01*
X15570242Y13011418D01*
X15575000Y12987500D01*
X15575000Y12237500D01*
X15570242Y12213582D01*
X15556694Y12193306D01*
X15536418Y12179758D01*
X15512500Y12175000D01*
X15387500Y12175000D01*
X15363582Y12179758D01*
X15343306Y12193306D01*
X15329758Y12213582D01*
X15325000Y12237500D01*
X15325000Y12987500D01*
X15329758Y13011418D01*
X15343306Y13031694D01*
X15363582Y13045242D01*
X15387500Y13050000D01*
X15512500Y13050000D01*
X15536418Y13045242D01*
G37*
G36*
X9661418Y13420242D02*
G01*
X9681694Y13406694D01*
X9695242Y13386418D01*
X9700000Y13362500D01*
X9700000Y13237500D01*
X9695242Y13213582D01*
X9681694Y13193306D01*
X9661418Y13179758D01*
X9637500Y13175000D01*
X8887500Y13175000D01*
X8863582Y13179758D01*
X8843306Y13193306D01*
X8829758Y13213582D01*
X8825000Y13237500D01*
X8825000Y13362500D01*
X8829758Y13386418D01*
X8843306Y13406694D01*
X8863582Y13420242D01*
X8887500Y13425000D01*
X9637500Y13425000D01*
X9661418Y13420242D01*
G37*
G36*
X16536418Y13420242D02*
G01*
X16556694Y13406694D01*
X16570242Y13386418D01*
X16575000Y13362500D01*
X16575000Y13237500D01*
X16570242Y13213582D01*
X16556694Y13193306D01*
X16536418Y13179758D01*
X16512500Y13175000D01*
X15762500Y13175000D01*
X15738582Y13179758D01*
X15718306Y13193306D01*
X15704758Y13213582D01*
X15700000Y13237500D01*
X15700000Y13362500D01*
X15704758Y13386418D01*
X15718306Y13406694D01*
X15738582Y13420242D01*
X15762500Y13425000D01*
X16512500Y13425000D01*
X16536418Y13420242D01*
G37*
G36*
X15500000Y13250000D02*
G01*
X9900000Y13250000D01*
X9900000Y18850000D01*
X15500000Y18850000D01*
X15500000Y13250000D01*
G37*
G36*
X26113576Y14089343D02*
G01*
X26158995Y14058995D01*
X26189343Y14013576D01*
X26200000Y13960000D01*
X26200000Y13620000D01*
X26189343Y13566424D01*
X26158995Y13521005D01*
X26113576Y13490657D01*
X26060000Y13480000D01*
X25780000Y13480000D01*
X25726424Y13490657D01*
X25681005Y13521005D01*
X25650657Y13566424D01*
X25640000Y13620000D01*
X25640000Y13960000D01*
X25650657Y14013576D01*
X25681005Y14058995D01*
X25726424Y14089343D01*
X25780000Y14100000D01*
X26060000Y14100000D01*
X26113576Y14089343D01*
G37*
G36*
X27073576Y14089343D02*
G01*
X27118995Y14058995D01*
X27149343Y14013576D01*
X27160000Y13960000D01*
X27160000Y13620000D01*
X27149343Y13566424D01*
X27118995Y13521005D01*
X27073576Y13490657D01*
X27020000Y13480000D01*
X26740000Y13480000D01*
X26686424Y13490657D01*
X26641005Y13521005D01*
X26610657Y13566424D01*
X26600000Y13620000D01*
X26600000Y13960000D01*
X26610657Y14013576D01*
X26641005Y14058995D01*
X26686424Y14089343D01*
X26740000Y14100000D01*
X27020000Y14100000D01*
X27073576Y14089343D01*
G37*
G36*
X9661418Y13920242D02*
G01*
X9681694Y13906694D01*
X9695242Y13886418D01*
X9700000Y13862500D01*
X9700000Y13737500D01*
X9695242Y13713582D01*
X9681694Y13693306D01*
X9661418Y13679758D01*
X9637500Y13675000D01*
X8887500Y13675000D01*
X8863582Y13679758D01*
X8843306Y13693306D01*
X8829758Y13713582D01*
X8825000Y13737500D01*
X8825000Y13862500D01*
X8829758Y13886418D01*
X8843306Y13906694D01*
X8863582Y13920242D01*
X8887500Y13925000D01*
X9637500Y13925000D01*
X9661418Y13920242D01*
G37*
G36*
X16536418Y13920242D02*
G01*
X16556694Y13906694D01*
X16570242Y13886418D01*
X16575000Y13862500D01*
X16575000Y13737500D01*
X16570242Y13713582D01*
X16556694Y13693306D01*
X16536418Y13679758D01*
X16512500Y13675000D01*
X15762500Y13675000D01*
X15738582Y13679758D01*
X15718306Y13693306D01*
X15704758Y13713582D01*
X15700000Y13737500D01*
X15700000Y13862500D01*
X15704758Y13886418D01*
X15718306Y13906694D01*
X15738582Y13920242D01*
X15762500Y13925000D01*
X16512500Y13925000D01*
X16536418Y13920242D01*
G37*
G36*
X3300000Y13700000D02*
G01*
X1800000Y13700000D01*
X1800000Y15200000D01*
X3300000Y15200000D01*
X3300000Y13700000D01*
G37*
G36*
X9661418Y14420242D02*
G01*
X9681694Y14406694D01*
X9695242Y14386418D01*
X9700000Y14362500D01*
X9700000Y14237500D01*
X9695242Y14213582D01*
X9681694Y14193306D01*
X9661418Y14179758D01*
X9637500Y14175000D01*
X8887500Y14175000D01*
X8863582Y14179758D01*
X8843306Y14193306D01*
X8829758Y14213582D01*
X8825000Y14237500D01*
X8825000Y14362500D01*
X8829758Y14386418D01*
X8843306Y14406694D01*
X8863582Y14420242D01*
X8887500Y14425000D01*
X9637500Y14425000D01*
X9661418Y14420242D01*
G37*
G36*
X16536418Y14420242D02*
G01*
X16556694Y14406694D01*
X16570242Y14386418D01*
X16575000Y14362500D01*
X16575000Y14237500D01*
X16570242Y14213582D01*
X16556694Y14193306D01*
X16536418Y14179758D01*
X16512500Y14175000D01*
X15762500Y14175000D01*
X15738582Y14179758D01*
X15718306Y14193306D01*
X15704758Y14213582D01*
X15700000Y14237500D01*
X15700000Y14362500D01*
X15704758Y14386418D01*
X15718306Y14406694D01*
X15738582Y14420242D01*
X15762500Y14425000D01*
X16512500Y14425000D01*
X16536418Y14420242D01*
G37*
G36*
X26133576Y15089343D02*
G01*
X26178995Y15058995D01*
X26209343Y15013576D01*
X26220000Y14960000D01*
X26220000Y14620000D01*
X26209343Y14566424D01*
X26178995Y14521005D01*
X26133576Y14490657D01*
X26080000Y14480000D01*
X25800000Y14480000D01*
X25746424Y14490657D01*
X25701005Y14521005D01*
X25670657Y14566424D01*
X25660000Y14620000D01*
X25660000Y14960000D01*
X25670657Y15013576D01*
X25701005Y15058995D01*
X25746424Y15089343D01*
X25800000Y15100000D01*
X26080000Y15100000D01*
X26133576Y15089343D01*
G37*
G36*
X27093576Y15089343D02*
G01*
X27138995Y15058995D01*
X27169343Y15013576D01*
X27180000Y14960000D01*
X27180000Y14620000D01*
X27169343Y14566424D01*
X27138995Y14521005D01*
X27093576Y14490657D01*
X27040000Y14480000D01*
X26760000Y14480000D01*
X26706424Y14490657D01*
X26661005Y14521005D01*
X26630657Y14566424D01*
X26620000Y14620000D01*
X26620000Y14960000D01*
X26630657Y15013576D01*
X26661005Y15058995D01*
X26706424Y15089343D01*
X26760000Y15100000D01*
X27040000Y15100000D01*
X27093576Y15089343D01*
G37*
G36*
X7143576Y15259343D02*
G01*
X7188995Y15228995D01*
X7219343Y15183576D01*
X7230000Y15130000D01*
X7230000Y14790000D01*
X7219343Y14736424D01*
X7188995Y14691005D01*
X7143576Y14660657D01*
X7090000Y14650000D01*
X6810000Y14650000D01*
X6756424Y14660657D01*
X6711005Y14691005D01*
X6680657Y14736424D01*
X6670000Y14790000D01*
X6670000Y15130000D01*
X6680657Y15183576D01*
X6711005Y15228995D01*
X6756424Y15259343D01*
X6810000Y15270000D01*
X7090000Y15270000D01*
X7143576Y15259343D01*
G37*
G36*
X8103576Y15259343D02*
G01*
X8148995Y15228995D01*
X8179343Y15183576D01*
X8190000Y15130000D01*
X8190000Y14790000D01*
X8179343Y14736424D01*
X8148995Y14691005D01*
X8103576Y14660657D01*
X8050000Y14650000D01*
X7770000Y14650000D01*
X7716424Y14660657D01*
X7671005Y14691005D01*
X7640657Y14736424D01*
X7630000Y14790000D01*
X7630000Y15130000D01*
X7640657Y15183576D01*
X7671005Y15228995D01*
X7716424Y15259343D01*
X7770000Y15270000D01*
X8050000Y15270000D01*
X8103576Y15259343D01*
G37*
G36*
X9661418Y14920242D02*
G01*
X9681694Y14906694D01*
X9695242Y14886418D01*
X9700000Y14862500D01*
X9700000Y14737500D01*
X9695242Y14713582D01*
X9681694Y14693306D01*
X9661418Y14679758D01*
X9637500Y14675000D01*
X8887500Y14675000D01*
X8863582Y14679758D01*
X8843306Y14693306D01*
X8829758Y14713582D01*
X8825000Y14737500D01*
X8825000Y14862500D01*
X8829758Y14886418D01*
X8843306Y14906694D01*
X8863582Y14920242D01*
X8887500Y14925000D01*
X9637500Y14925000D01*
X9661418Y14920242D01*
G37*
G36*
X16536418Y14920242D02*
G01*
X16556694Y14906694D01*
X16570242Y14886418D01*
X16575000Y14862500D01*
X16575000Y14737500D01*
X16570242Y14713582D01*
X16556694Y14693306D01*
X16536418Y14679758D01*
X16512500Y14675000D01*
X15762500Y14675000D01*
X15738582Y14679758D01*
X15718306Y14693306D01*
X15704758Y14713582D01*
X15700000Y14737500D01*
X15700000Y14862500D01*
X15704758Y14886418D01*
X15718306Y14906694D01*
X15738582Y14920242D01*
X15762500Y14925000D01*
X16512500Y14925000D01*
X16536418Y14920242D01*
G37*
G36*
X9661418Y15420242D02*
G01*
X9681694Y15406694D01*
X9695242Y15386418D01*
X9700000Y15362500D01*
X9700000Y15237500D01*
X9695242Y15213582D01*
X9681694Y15193306D01*
X9661418Y15179758D01*
X9637500Y15175000D01*
X8887500Y15175000D01*
X8863582Y15179758D01*
X8843306Y15193306D01*
X8829758Y15213582D01*
X8825000Y15237500D01*
X8825000Y15362500D01*
X8829758Y15386418D01*
X8843306Y15406694D01*
X8863582Y15420242D01*
X8887500Y15425000D01*
X9637500Y15425000D01*
X9661418Y15420242D01*
G37*
G36*
X16536418Y15420242D02*
G01*
X16556694Y15406694D01*
X16570242Y15386418D01*
X16575000Y15362500D01*
X16575000Y15237500D01*
X16570242Y15213582D01*
X16556694Y15193306D01*
X16536418Y15179758D01*
X16512500Y15175000D01*
X15762500Y15175000D01*
X15738582Y15179758D01*
X15718306Y15193306D01*
X15704758Y15213582D01*
X15700000Y15237500D01*
X15700000Y15362500D01*
X15704758Y15386418D01*
X15718306Y15406694D01*
X15738582Y15420242D01*
X15762500Y15425000D01*
X16512500Y15425000D01*
X16536418Y15420242D01*
G37*
G36*
X28336662Y16049724D02*
G01*
X28380459Y16020459D01*
X28409724Y15976662D01*
X28420000Y15925000D01*
X28420000Y15655000D01*
X28409724Y15603338D01*
X28380459Y15559541D01*
X28336662Y15530276D01*
X28285000Y15520000D01*
X27915000Y15520000D01*
X27863338Y15530276D01*
X27819541Y15559541D01*
X27790276Y15603338D01*
X27780000Y15655000D01*
X27780000Y15925000D01*
X27790276Y15976662D01*
X27819541Y16020459D01*
X27863338Y16049724D01*
X27915000Y16060000D01*
X28285000Y16060000D01*
X28336662Y16049724D01*
G37*
G36*
X26133946Y16198772D02*
G01*
X26181798Y16166798D01*
X26213772Y16118946D01*
X26225000Y16062500D01*
X26225000Y15717500D01*
X26213772Y15661054D01*
X26181798Y15613202D01*
X26133946Y15581228D01*
X26077500Y15570000D01*
X25782500Y15570000D01*
X25726054Y15581228D01*
X25678202Y15613202D01*
X25646228Y15661054D01*
X25635000Y15717500D01*
X25635000Y16062500D01*
X25646228Y16118946D01*
X25678202Y16166798D01*
X25726054Y16198772D01*
X25782500Y16210000D01*
X26077500Y16210000D01*
X26133946Y16198772D01*
G37*
G36*
X27103946Y16198772D02*
G01*
X27151798Y16166798D01*
X27183772Y16118946D01*
X27195000Y16062500D01*
X27195000Y15717500D01*
X27183772Y15661054D01*
X27151798Y15613202D01*
X27103946Y15581228D01*
X27047500Y15570000D01*
X26752500Y15570000D01*
X26696054Y15581228D01*
X26648202Y15613202D01*
X26616228Y15661054D01*
X26605000Y15717500D01*
X26605000Y16062500D01*
X26616228Y16118946D01*
X26648202Y16166798D01*
X26696054Y16198772D01*
X26752500Y16210000D01*
X27047500Y16210000D01*
X27103946Y16198772D01*
G37*
G36*
X17663576Y16209343D02*
G01*
X17708995Y16178995D01*
X17739343Y16133576D01*
X17750000Y16080000D01*
X17750000Y15740000D01*
X17739343Y15686424D01*
X17708995Y15641005D01*
X17663576Y15610657D01*
X17610000Y15600000D01*
X17330000Y15600000D01*
X17276424Y15610657D01*
X17231005Y15641005D01*
X17200657Y15686424D01*
X17190000Y15740000D01*
X17190000Y16080000D01*
X17200657Y16133576D01*
X17231005Y16178995D01*
X17276424Y16209343D01*
X17330000Y16220000D01*
X17610000Y16220000D01*
X17663576Y16209343D01*
G37*
G36*
X18623576Y16209343D02*
G01*
X18668995Y16178995D01*
X18699343Y16133576D01*
X18710000Y16080000D01*
X18710000Y15740000D01*
X18699343Y15686424D01*
X18668995Y15641005D01*
X18623576Y15610657D01*
X18570000Y15600000D01*
X18290000Y15600000D01*
X18236424Y15610657D01*
X18191005Y15641005D01*
X18160657Y15686424D01*
X18150000Y15740000D01*
X18150000Y16080000D01*
X18160657Y16133576D01*
X18191005Y16178995D01*
X18236424Y16209343D01*
X18290000Y16220000D01*
X18570000Y16220000D01*
X18623576Y16209343D01*
G37*
G36*
X9661418Y15920242D02*
G01*
X9681694Y15906694D01*
X9695242Y15886418D01*
X9700000Y15862500D01*
X9700000Y15737500D01*
X9695242Y15713582D01*
X9681694Y15693306D01*
X9661418Y15679758D01*
X9637500Y15675000D01*
X8887500Y15675000D01*
X8863582Y15679758D01*
X8843306Y15693306D01*
X8829758Y15713582D01*
X8825000Y15737500D01*
X8825000Y15862500D01*
X8829758Y15886418D01*
X8843306Y15906694D01*
X8863582Y15920242D01*
X8887500Y15925000D01*
X9637500Y15925000D01*
X9661418Y15920242D01*
G37*
G36*
X16536418Y15920242D02*
G01*
X16556694Y15906694D01*
X16570242Y15886418D01*
X16575000Y15862500D01*
X16575000Y15737500D01*
X16570242Y15713582D01*
X16556694Y15693306D01*
X16536418Y15679758D01*
X16512500Y15675000D01*
X15762500Y15675000D01*
X15738582Y15679758D01*
X15718306Y15693306D01*
X15704758Y15713582D01*
X15700000Y15737500D01*
X15700000Y15862500D01*
X15704758Y15886418D01*
X15718306Y15906694D01*
X15738582Y15920242D01*
X15762500Y15925000D01*
X16512500Y15925000D01*
X16536418Y15920242D01*
G37*
G36*
X2851662Y16469724D02*
G01*
X2895459Y16440459D01*
X2924724Y16396662D01*
X2935000Y16345000D01*
X2935000Y16075000D01*
X2924724Y16023338D01*
X2895459Y15979541D01*
X2851662Y15950276D01*
X2800000Y15940000D01*
X2430000Y15940000D01*
X2378338Y15950276D01*
X2334541Y15979541D01*
X2305276Y16023338D01*
X2295000Y16075000D01*
X2295000Y16345000D01*
X2305276Y16396662D01*
X2334541Y16440459D01*
X2378338Y16469724D01*
X2430000Y16480000D01*
X2800000Y16480000D01*
X2851662Y16469724D01*
G37*
G36*
X4011662Y16469724D02*
G01*
X4055459Y16440459D01*
X4084724Y16396662D01*
X4095000Y16345000D01*
X4095000Y16075000D01*
X4084724Y16023338D01*
X4055459Y15979541D01*
X4011662Y15950276D01*
X3960000Y15940000D01*
X3590000Y15940000D01*
X3538338Y15950276D01*
X3494541Y15979541D01*
X3465276Y16023338D01*
X3455000Y16075000D01*
X3455000Y16345000D01*
X3465276Y16396662D01*
X3494541Y16440459D01*
X3538338Y16469724D01*
X3590000Y16480000D01*
X3960000Y16480000D01*
X4011662Y16469724D01*
G37*
G36*
X5098576Y16489343D02*
G01*
X5143995Y16458995D01*
X5174343Y16413576D01*
X5185000Y16360000D01*
X5185000Y16080000D01*
X5174343Y16026424D01*
X5143995Y15981005D01*
X5098576Y15950657D01*
X5045000Y15940000D01*
X4705000Y15940000D01*
X4651424Y15950657D01*
X4606005Y15981005D01*
X4575657Y16026424D01*
X4565000Y16080000D01*
X4565000Y16360000D01*
X4575657Y16413576D01*
X4606005Y16458995D01*
X4651424Y16489343D01*
X4705000Y16500000D01*
X5045000Y16500000D01*
X5098576Y16489343D01*
G37*
G36*
X20097462Y17308349D02*
G01*
X20168430Y17260930D01*
X20215849Y17189962D01*
X20232500Y17106250D01*
X20232500Y16343750D01*
X20215849Y16260038D01*
X20168430Y16189070D01*
X20097462Y16141651D01*
X20013750Y16125000D01*
X19576250Y16125000D01*
X19492538Y16141651D01*
X19421570Y16189070D01*
X19374151Y16260038D01*
X19357500Y16343750D01*
X19357500Y17106250D01*
X19374151Y17189962D01*
X19421570Y17260930D01*
X19492538Y17308349D01*
X19576250Y17325000D01*
X20013750Y17325000D01*
X20097462Y17308349D01*
G37*
G36*
X22222462Y17308349D02*
G01*
X22293430Y17260930D01*
X22340849Y17189962D01*
X22357500Y17106250D01*
X22357500Y16343750D01*
X22340849Y16260038D01*
X22293430Y16189070D01*
X22222462Y16141651D01*
X22138750Y16125000D01*
X21701250Y16125000D01*
X21617538Y16141651D01*
X21546570Y16189070D01*
X21499151Y16260038D01*
X21482500Y16343750D01*
X21482500Y17106250D01*
X21499151Y17189962D01*
X21546570Y17260930D01*
X21617538Y17308349D01*
X21701250Y17325000D01*
X22138750Y17325000D01*
X22222462Y17308349D01*
G37*
G36*
X9661418Y16420242D02*
G01*
X9681694Y16406694D01*
X9695242Y16386418D01*
X9700000Y16362500D01*
X9700000Y16237500D01*
X9695242Y16213582D01*
X9681694Y16193306D01*
X9661418Y16179758D01*
X9637500Y16175000D01*
X8887500Y16175000D01*
X8863582Y16179758D01*
X8843306Y16193306D01*
X8829758Y16213582D01*
X8825000Y16237500D01*
X8825000Y16362500D01*
X8829758Y16386418D01*
X8843306Y16406694D01*
X8863582Y16420242D01*
X8887500Y16425000D01*
X9637500Y16425000D01*
X9661418Y16420242D01*
G37*
G36*
X16536418Y16420242D02*
G01*
X16556694Y16406694D01*
X16570242Y16386418D01*
X16575000Y16362500D01*
X16575000Y16237500D01*
X16570242Y16213582D01*
X16556694Y16193306D01*
X16536418Y16179758D01*
X16512500Y16175000D01*
X15762500Y16175000D01*
X15738582Y16179758D01*
X15718306Y16193306D01*
X15704758Y16213582D01*
X15700000Y16237500D01*
X15700000Y16362500D01*
X15704758Y16386418D01*
X15718306Y16406694D01*
X15738582Y16420242D01*
X15762500Y16425000D01*
X16512500Y16425000D01*
X16536418Y16420242D01*
G37*
G36*
X28336662Y17069724D02*
G01*
X28380459Y17040459D01*
X28409724Y16996662D01*
X28420000Y16945000D01*
X28420000Y16675000D01*
X28409724Y16623338D01*
X28380459Y16579541D01*
X28336662Y16550276D01*
X28285000Y16540000D01*
X27915000Y16540000D01*
X27863338Y16550276D01*
X27819541Y16579541D01*
X27790276Y16623338D01*
X27780000Y16675000D01*
X27780000Y16945000D01*
X27790276Y16996662D01*
X27819541Y17040459D01*
X27863338Y17069724D01*
X27915000Y17080000D01*
X28285000Y17080000D01*
X28336662Y17069724D01*
G37*
G36*
X17663946Y17258772D02*
G01*
X17711798Y17226798D01*
X17743772Y17178946D01*
X17755000Y17122500D01*
X17755000Y16777500D01*
X17743772Y16721054D01*
X17711798Y16673202D01*
X17663946Y16641228D01*
X17607500Y16630000D01*
X17312500Y16630000D01*
X17256054Y16641228D01*
X17208202Y16673202D01*
X17176228Y16721054D01*
X17165000Y16777500D01*
X17165000Y17122500D01*
X17176228Y17178946D01*
X17208202Y17226798D01*
X17256054Y17258772D01*
X17312500Y17270000D01*
X17607500Y17270000D01*
X17663946Y17258772D01*
G37*
G36*
X18633946Y17258772D02*
G01*
X18681798Y17226798D01*
X18713772Y17178946D01*
X18725000Y17122500D01*
X18725000Y16777500D01*
X18713772Y16721054D01*
X18681798Y16673202D01*
X18633946Y16641228D01*
X18577500Y16630000D01*
X18282500Y16630000D01*
X18226054Y16641228D01*
X18178202Y16673202D01*
X18146228Y16721054D01*
X18135000Y16777500D01*
X18135000Y17122500D01*
X18146228Y17178946D01*
X18178202Y17226798D01*
X18226054Y17258772D01*
X18282500Y17270000D01*
X18577500Y17270000D01*
X18633946Y17258772D01*
G37*
G36*
X9661418Y16920242D02*
G01*
X9681694Y16906694D01*
X9695242Y16886418D01*
X9700000Y16862500D01*
X9700000Y16737500D01*
X9695242Y16713582D01*
X9681694Y16693306D01*
X9661418Y16679758D01*
X9637500Y16675000D01*
X8887500Y16675000D01*
X8863582Y16679758D01*
X8843306Y16693306D01*
X8829758Y16713582D01*
X8825000Y16737500D01*
X8825000Y16862500D01*
X8829758Y16886418D01*
X8843306Y16906694D01*
X8863582Y16920242D01*
X8887500Y16925000D01*
X9637500Y16925000D01*
X9661418Y16920242D01*
G37*
G36*
X16536418Y16920242D02*
G01*
X16556694Y16906694D01*
X16570242Y16886418D01*
X16575000Y16862500D01*
X16575000Y16737500D01*
X16570242Y16713582D01*
X16556694Y16693306D01*
X16536418Y16679758D01*
X16512500Y16675000D01*
X15762500Y16675000D01*
X15738582Y16679758D01*
X15718306Y16693306D01*
X15704758Y16713582D01*
X15700000Y16737500D01*
X15700000Y16862500D01*
X15704758Y16886418D01*
X15718306Y16906694D01*
X15738582Y16920242D01*
X15762500Y16925000D01*
X16512500Y16925000D01*
X16536418Y16920242D01*
G37*
G36*
X26133576Y17289343D02*
G01*
X26178995Y17258995D01*
X26209343Y17213576D01*
X26220000Y17160000D01*
X26220000Y16820000D01*
X26209343Y16766424D01*
X26178995Y16721005D01*
X26133576Y16690657D01*
X26080000Y16680000D01*
X25800000Y16680000D01*
X25746424Y16690657D01*
X25701005Y16721005D01*
X25670657Y16766424D01*
X25660000Y16820000D01*
X25660000Y17160000D01*
X25670657Y17213576D01*
X25701005Y17258995D01*
X25746424Y17289343D01*
X25800000Y17300000D01*
X26080000Y17300000D01*
X26133576Y17289343D01*
G37*
G36*
X27093576Y17289343D02*
G01*
X27138995Y17258995D01*
X27169343Y17213576D01*
X27180000Y17160000D01*
X27180000Y16820000D01*
X27169343Y16766424D01*
X27138995Y16721005D01*
X27093576Y16690657D01*
X27040000Y16680000D01*
X26760000Y16680000D01*
X26706424Y16690657D01*
X26661005Y16721005D01*
X26630657Y16766424D01*
X26620000Y16820000D01*
X26620000Y17160000D01*
X26630657Y17213576D01*
X26661005Y17258995D01*
X26706424Y17289343D01*
X26760000Y17300000D01*
X27040000Y17300000D01*
X27093576Y17289343D01*
G37*
G36*
X5098576Y17449343D02*
G01*
X5143995Y17418995D01*
X5174343Y17373576D01*
X5185000Y17320000D01*
X5185000Y17040000D01*
X5174343Y16986424D01*
X5143995Y16941005D01*
X5098576Y16910657D01*
X5045000Y16900000D01*
X4705000Y16900000D01*
X4651424Y16910657D01*
X4606005Y16941005D01*
X4575657Y16986424D01*
X4565000Y17040000D01*
X4565000Y17320000D01*
X4575657Y17373576D01*
X4606005Y17418995D01*
X4651424Y17449343D01*
X4705000Y17460000D01*
X5045000Y17460000D01*
X5098576Y17449343D01*
G37*
G36*
X2851662Y17489724D02*
G01*
X2895459Y17460459D01*
X2924724Y17416662D01*
X2935000Y17365000D01*
X2935000Y17095000D01*
X2924724Y17043338D01*
X2895459Y16999541D01*
X2851662Y16970276D01*
X2800000Y16960000D01*
X2430000Y16960000D01*
X2378338Y16970276D01*
X2334541Y16999541D01*
X2305276Y17043338D01*
X2295000Y17095000D01*
X2295000Y17365000D01*
X2305276Y17416662D01*
X2334541Y17460459D01*
X2378338Y17489724D01*
X2430000Y17500000D01*
X2800000Y17500000D01*
X2851662Y17489724D01*
G37*
G36*
X4011662Y17489724D02*
G01*
X4055459Y17460459D01*
X4084724Y17416662D01*
X4095000Y17365000D01*
X4095000Y17095000D01*
X4084724Y17043338D01*
X4055459Y16999541D01*
X4011662Y16970276D01*
X3960000Y16960000D01*
X3590000Y16960000D01*
X3538338Y16970276D01*
X3494541Y16999541D01*
X3465276Y17043338D01*
X3455000Y17095000D01*
X3455000Y17365000D01*
X3465276Y17416662D01*
X3494541Y17460459D01*
X3538338Y17489724D01*
X3590000Y17500000D01*
X3960000Y17500000D01*
X4011662Y17489724D01*
G37*
G36*
X9661418Y17420242D02*
G01*
X9681694Y17406694D01*
X9695242Y17386418D01*
X9700000Y17362500D01*
X9700000Y17237500D01*
X9695242Y17213582D01*
X9681694Y17193306D01*
X9661418Y17179758D01*
X9637500Y17175000D01*
X8887500Y17175000D01*
X8863582Y17179758D01*
X8843306Y17193306D01*
X8829758Y17213582D01*
X8825000Y17237500D01*
X8825000Y17362500D01*
X8829758Y17386418D01*
X8843306Y17406694D01*
X8863582Y17420242D01*
X8887500Y17425000D01*
X9637500Y17425000D01*
X9661418Y17420242D01*
G37*
G36*
X16536418Y17420242D02*
G01*
X16556694Y17406694D01*
X16570242Y17386418D01*
X16575000Y17362500D01*
X16575000Y17237500D01*
X16570242Y17213582D01*
X16556694Y17193306D01*
X16536418Y17179758D01*
X16512500Y17175000D01*
X15762500Y17175000D01*
X15738582Y17179758D01*
X15718306Y17193306D01*
X15704758Y17213582D01*
X15700000Y17237500D01*
X15700000Y17362500D01*
X15704758Y17386418D01*
X15718306Y17406694D01*
X15738582Y17420242D01*
X15762500Y17425000D01*
X16512500Y17425000D01*
X16536418Y17420242D01*
G37*
G36*
X17643576Y18259343D02*
G01*
X17688995Y18228995D01*
X17719343Y18183576D01*
X17730000Y18130000D01*
X17730000Y17790000D01*
X17719343Y17736424D01*
X17688995Y17691005D01*
X17643576Y17660657D01*
X17590000Y17650000D01*
X17310000Y17650000D01*
X17256424Y17660657D01*
X17211005Y17691005D01*
X17180657Y17736424D01*
X17170000Y17790000D01*
X17170000Y18130000D01*
X17180657Y18183576D01*
X17211005Y18228995D01*
X17256424Y18259343D01*
X17310000Y18270000D01*
X17590000Y18270000D01*
X17643576Y18259343D01*
G37*
G36*
X18603576Y18259343D02*
G01*
X18648995Y18228995D01*
X18679343Y18183576D01*
X18690000Y18130000D01*
X18690000Y17790000D01*
X18679343Y17736424D01*
X18648995Y17691005D01*
X18603576Y17660657D01*
X18550000Y17650000D01*
X18270000Y17650000D01*
X18216424Y17660657D01*
X18171005Y17691005D01*
X18140657Y17736424D01*
X18130000Y17790000D01*
X18130000Y18130000D01*
X18140657Y18183576D01*
X18171005Y18228995D01*
X18216424Y18259343D01*
X18270000Y18270000D01*
X18550000Y18270000D01*
X18603576Y18259343D01*
G37*
G36*
X9661418Y17920242D02*
G01*
X9681694Y17906694D01*
X9695242Y17886418D01*
X9700000Y17862500D01*
X9700000Y17737500D01*
X9695242Y17713582D01*
X9681694Y17693306D01*
X9661418Y17679758D01*
X9637500Y17675000D01*
X8887500Y17675000D01*
X8863582Y17679758D01*
X8843306Y17693306D01*
X8829758Y17713582D01*
X8825000Y17737500D01*
X8825000Y17862500D01*
X8829758Y17886418D01*
X8843306Y17906694D01*
X8863582Y17920242D01*
X8887500Y17925000D01*
X9637500Y17925000D01*
X9661418Y17920242D01*
G37*
G36*
X16536418Y17920242D02*
G01*
X16556694Y17906694D01*
X16570242Y17886418D01*
X16575000Y17862500D01*
X16575000Y17737500D01*
X16570242Y17713582D01*
X16556694Y17693306D01*
X16536418Y17679758D01*
X16512500Y17675000D01*
X15762500Y17675000D01*
X15738582Y17679758D01*
X15718306Y17693306D01*
X15704758Y17713582D01*
X15700000Y17737500D01*
X15700000Y17862500D01*
X15704758Y17886418D01*
X15718306Y17906694D01*
X15738582Y17920242D01*
X15762500Y17925000D01*
X16512500Y17925000D01*
X16536418Y17920242D01*
G37*
G36*
X25837500Y17827500D02*
G01*
X25537500Y17827500D01*
X25537500Y18577500D01*
X25837500Y18577500D01*
X25837500Y17827500D01*
G37*
G36*
X26337500Y17827500D02*
G01*
X26037500Y17827500D01*
X26037500Y18577500D01*
X26337500Y18577500D01*
X26337500Y17827500D01*
G37*
G36*
X26837500Y17827500D02*
G01*
X26537500Y17827500D01*
X26537500Y18577500D01*
X26837500Y18577500D01*
X26837500Y17827500D01*
G37*
G36*
X27337500Y17827500D02*
G01*
X27037500Y17827500D01*
X27037500Y18577500D01*
X27337500Y18577500D01*
X27337500Y17827500D01*
G37*
G36*
X3463576Y18659343D02*
G01*
X3508995Y18628995D01*
X3539343Y18583576D01*
X3550000Y18530000D01*
X3550000Y18190000D01*
X3539343Y18136424D01*
X3508995Y18091005D01*
X3463576Y18060657D01*
X3410000Y18050000D01*
X3130000Y18050000D01*
X3076424Y18060657D01*
X3031005Y18091005D01*
X3000657Y18136424D01*
X2990000Y18190000D01*
X2990000Y18530000D01*
X3000657Y18583576D01*
X3031005Y18628995D01*
X3076424Y18659343D01*
X3130000Y18670000D01*
X3410000Y18670000D01*
X3463576Y18659343D01*
G37*
G36*
X4423576Y18659343D02*
G01*
X4468995Y18628995D01*
X4499343Y18583576D01*
X4510000Y18530000D01*
X4510000Y18190000D01*
X4499343Y18136424D01*
X4468995Y18091005D01*
X4423576Y18060657D01*
X4370000Y18050000D01*
X4090000Y18050000D01*
X4036424Y18060657D01*
X3991005Y18091005D01*
X3960657Y18136424D01*
X3950000Y18190000D01*
X3950000Y18530000D01*
X3960657Y18583576D01*
X3991005Y18628995D01*
X4036424Y18659343D01*
X4090000Y18670000D01*
X4370000Y18670000D01*
X4423576Y18659343D01*
G37*
G36*
X6230000Y18130000D02*
G01*
X5130000Y18130000D01*
X5130000Y18730000D01*
X6230000Y18730000D01*
X6230000Y18130000D01*
G37*
G36*
X9661418Y18420242D02*
G01*
X9681694Y18406694D01*
X9695242Y18386418D01*
X9700000Y18362500D01*
X9700000Y18237500D01*
X9695242Y18213582D01*
X9681694Y18193306D01*
X9661418Y18179758D01*
X9637500Y18175000D01*
X8887500Y18175000D01*
X8863582Y18179758D01*
X8843306Y18193306D01*
X8829758Y18213582D01*
X8825000Y18237500D01*
X8825000Y18362500D01*
X8829758Y18386418D01*
X8843306Y18406694D01*
X8863582Y18420242D01*
X8887500Y18425000D01*
X9637500Y18425000D01*
X9661418Y18420242D01*
G37*
G36*
X16536418Y18420242D02*
G01*
X16556694Y18406694D01*
X16570242Y18386418D01*
X16575000Y18362500D01*
X16575000Y18237500D01*
X16570242Y18213582D01*
X16556694Y18193306D01*
X16536418Y18179758D01*
X16512500Y18175000D01*
X15762500Y18175000D01*
X15738582Y18179758D01*
X15718306Y18193306D01*
X15704758Y18213582D01*
X15700000Y18237500D01*
X15700000Y18362500D01*
X15704758Y18386418D01*
X15718306Y18406694D01*
X15738582Y18420242D01*
X15762500Y18425000D01*
X16512500Y18425000D01*
X16536418Y18420242D01*
G37*
G36*
X17713576Y19189343D02*
G01*
X17758995Y19158995D01*
X17789343Y19113576D01*
X17800000Y19060000D01*
X17800000Y18780000D01*
X17789343Y18726424D01*
X17758995Y18681005D01*
X17713576Y18650657D01*
X17660000Y18640000D01*
X17320000Y18640000D01*
X17266424Y18650657D01*
X17221005Y18681005D01*
X17190657Y18726424D01*
X17180000Y18780000D01*
X17180000Y19060000D01*
X17190657Y19113576D01*
X17221005Y19158995D01*
X17266424Y19189343D01*
X17320000Y19200000D01*
X17660000Y19200000D01*
X17713576Y19189343D01*
G37*
G36*
X18633576Y19249343D02*
G01*
X18678995Y19218995D01*
X18709343Y19173576D01*
X18720000Y19120000D01*
X18720000Y18780000D01*
X18709343Y18726424D01*
X18678995Y18681005D01*
X18633576Y18650657D01*
X18580000Y18640000D01*
X18300000Y18640000D01*
X18246424Y18650657D01*
X18201005Y18681005D01*
X18170657Y18726424D01*
X18160000Y18780000D01*
X18160000Y19120000D01*
X18170657Y19173576D01*
X18201005Y19218995D01*
X18246424Y19249343D01*
X18300000Y19260000D01*
X18580000Y19260000D01*
X18633576Y19249343D01*
G37*
G36*
X19593576Y19249343D02*
G01*
X19638995Y19218995D01*
X19669343Y19173576D01*
X19680000Y19120000D01*
X19680000Y18780000D01*
X19669343Y18726424D01*
X19638995Y18681005D01*
X19593576Y18650657D01*
X19540000Y18640000D01*
X19260000Y18640000D01*
X19206424Y18650657D01*
X19161005Y18681005D01*
X19130657Y18726424D01*
X19120000Y18780000D01*
X19120000Y19120000D01*
X19130657Y19173576D01*
X19161005Y19218995D01*
X19206424Y19249343D01*
X19260000Y19260000D01*
X19540000Y19260000D01*
X19593576Y19249343D01*
G37*
G36*
X9661418Y18920242D02*
G01*
X9681694Y18906694D01*
X9695242Y18886418D01*
X9700000Y18862500D01*
X9700000Y18737500D01*
X9695242Y18713582D01*
X9681694Y18693306D01*
X9661418Y18679758D01*
X9637500Y18675000D01*
X8887500Y18675000D01*
X8863582Y18679758D01*
X8843306Y18693306D01*
X8829758Y18713582D01*
X8825000Y18737500D01*
X8825000Y18862500D01*
X8829758Y18886418D01*
X8843306Y18906694D01*
X8863582Y18920242D01*
X8887500Y18925000D01*
X9637500Y18925000D01*
X9661418Y18920242D01*
G37*
G36*
X16536418Y18920242D02*
G01*
X16556694Y18906694D01*
X16570242Y18886418D01*
X16575000Y18862500D01*
X16575000Y18737500D01*
X16570242Y18713582D01*
X16556694Y18693306D01*
X16536418Y18679758D01*
X16512500Y18675000D01*
X15762500Y18675000D01*
X15738582Y18679758D01*
X15718306Y18693306D01*
X15704758Y18713582D01*
X15700000Y18737500D01*
X15700000Y18862500D01*
X15704758Y18886418D01*
X15718306Y18906694D01*
X15738582Y18920242D01*
X15762500Y18925000D01*
X16512500Y18925000D01*
X16536418Y18920242D01*
G37*
G36*
X27162500Y18777500D02*
G01*
X25712500Y18777500D01*
X25712500Y20527500D01*
X27162500Y20527500D01*
X27162500Y18777500D01*
G37*
G36*
X10036418Y19920242D02*
G01*
X10056694Y19906694D01*
X10070242Y19886418D01*
X10075000Y19862500D01*
X10075000Y19112500D01*
X10070242Y19088582D01*
X10056694Y19068306D01*
X10036418Y19054758D01*
X10012500Y19050000D01*
X9887500Y19050000D01*
X9863582Y19054758D01*
X9843306Y19068306D01*
X9829758Y19088582D01*
X9825000Y19112500D01*
X9825000Y19862500D01*
X9829758Y19886418D01*
X9843306Y19906694D01*
X9863582Y19920242D01*
X9887500Y19925000D01*
X10012500Y19925000D01*
X10036418Y19920242D01*
G37*
G36*
X10536418Y19920242D02*
G01*
X10556694Y19906694D01*
X10570242Y19886418D01*
X10575000Y19862500D01*
X10575000Y19112500D01*
X10570242Y19088582D01*
X10556694Y19068306D01*
X10536418Y19054758D01*
X10512500Y19050000D01*
X10387500Y19050000D01*
X10363582Y19054758D01*
X10343306Y19068306D01*
X10329758Y19088582D01*
X10325000Y19112500D01*
X10325000Y19862500D01*
X10329758Y19886418D01*
X10343306Y19906694D01*
X10363582Y19920242D01*
X10387500Y19925000D01*
X10512500Y19925000D01*
X10536418Y19920242D01*
G37*
G36*
X11036418Y19920242D02*
G01*
X11056694Y19906694D01*
X11070242Y19886418D01*
X11075000Y19862500D01*
X11075000Y19112500D01*
X11070242Y19088582D01*
X11056694Y19068306D01*
X11036418Y19054758D01*
X11012500Y19050000D01*
X10887500Y19050000D01*
X10863582Y19054758D01*
X10843306Y19068306D01*
X10829758Y19088582D01*
X10825000Y19112500D01*
X10825000Y19862500D01*
X10829758Y19886418D01*
X10843306Y19906694D01*
X10863582Y19920242D01*
X10887500Y19925000D01*
X11012500Y19925000D01*
X11036418Y19920242D01*
G37*
G36*
X11536418Y19920242D02*
G01*
X11556694Y19906694D01*
X11570242Y19886418D01*
X11575000Y19862500D01*
X11575000Y19112500D01*
X11570242Y19088582D01*
X11556694Y19068306D01*
X11536418Y19054758D01*
X11512500Y19050000D01*
X11387500Y19050000D01*
X11363582Y19054758D01*
X11343306Y19068306D01*
X11329758Y19088582D01*
X11325000Y19112500D01*
X11325000Y19862500D01*
X11329758Y19886418D01*
X11343306Y19906694D01*
X11363582Y19920242D01*
X11387500Y19925000D01*
X11512500Y19925000D01*
X11536418Y19920242D01*
G37*
G36*
X12036418Y19920242D02*
G01*
X12056694Y19906694D01*
X12070242Y19886418D01*
X12075000Y19862500D01*
X12075000Y19112500D01*
X12070242Y19088582D01*
X12056694Y19068306D01*
X12036418Y19054758D01*
X12012500Y19050000D01*
X11887500Y19050000D01*
X11863582Y19054758D01*
X11843306Y19068306D01*
X11829758Y19088582D01*
X11825000Y19112500D01*
X11825000Y19862500D01*
X11829758Y19886418D01*
X11843306Y19906694D01*
X11863582Y19920242D01*
X11887500Y19925000D01*
X12012500Y19925000D01*
X12036418Y19920242D01*
G37*
G36*
X12536418Y19920242D02*
G01*
X12556694Y19906694D01*
X12570242Y19886418D01*
X12575000Y19862500D01*
X12575000Y19112500D01*
X12570242Y19088582D01*
X12556694Y19068306D01*
X12536418Y19054758D01*
X12512500Y19050000D01*
X12387500Y19050000D01*
X12363582Y19054758D01*
X12343306Y19068306D01*
X12329758Y19088582D01*
X12325000Y19112500D01*
X12325000Y19862500D01*
X12329758Y19886418D01*
X12343306Y19906694D01*
X12363582Y19920242D01*
X12387500Y19925000D01*
X12512500Y19925000D01*
X12536418Y19920242D01*
G37*
G36*
X13036418Y19920242D02*
G01*
X13056694Y19906694D01*
X13070242Y19886418D01*
X13075000Y19862500D01*
X13075000Y19112500D01*
X13070242Y19088582D01*
X13056694Y19068306D01*
X13036418Y19054758D01*
X13012500Y19050000D01*
X12887500Y19050000D01*
X12863582Y19054758D01*
X12843306Y19068306D01*
X12829758Y19088582D01*
X12825000Y19112500D01*
X12825000Y19862500D01*
X12829758Y19886418D01*
X12843306Y19906694D01*
X12863582Y19920242D01*
X12887500Y19925000D01*
X13012500Y19925000D01*
X13036418Y19920242D01*
G37*
G36*
X13536418Y19920242D02*
G01*
X13556694Y19906694D01*
X13570242Y19886418D01*
X13575000Y19862500D01*
X13575000Y19112500D01*
X13570242Y19088582D01*
X13556694Y19068306D01*
X13536418Y19054758D01*
X13512500Y19050000D01*
X13387500Y19050000D01*
X13363582Y19054758D01*
X13343306Y19068306D01*
X13329758Y19088582D01*
X13325000Y19112500D01*
X13325000Y19862500D01*
X13329758Y19886418D01*
X13343306Y19906694D01*
X13363582Y19920242D01*
X13387500Y19925000D01*
X13512500Y19925000D01*
X13536418Y19920242D01*
G37*
G36*
X14036418Y19920242D02*
G01*
X14056694Y19906694D01*
X14070242Y19886418D01*
X14075000Y19862500D01*
X14075000Y19112500D01*
X14070242Y19088582D01*
X14056694Y19068306D01*
X14036418Y19054758D01*
X14012500Y19050000D01*
X13887500Y19050000D01*
X13863582Y19054758D01*
X13843306Y19068306D01*
X13829758Y19088582D01*
X13825000Y19112500D01*
X13825000Y19862500D01*
X13829758Y19886418D01*
X13843306Y19906694D01*
X13863582Y19920242D01*
X13887500Y19925000D01*
X14012500Y19925000D01*
X14036418Y19920242D01*
G37*
G36*
X14536418Y19920242D02*
G01*
X14556694Y19906694D01*
X14570242Y19886418D01*
X14575000Y19862500D01*
X14575000Y19112500D01*
X14570242Y19088582D01*
X14556694Y19068306D01*
X14536418Y19054758D01*
X14512500Y19050000D01*
X14387500Y19050000D01*
X14363582Y19054758D01*
X14343306Y19068306D01*
X14329758Y19088582D01*
X14325000Y19112500D01*
X14325000Y19862500D01*
X14329758Y19886418D01*
X14343306Y19906694D01*
X14363582Y19920242D01*
X14387500Y19925000D01*
X14512500Y19925000D01*
X14536418Y19920242D01*
G37*
G36*
X15036418Y19920242D02*
G01*
X15056694Y19906694D01*
X15070242Y19886418D01*
X15075000Y19862500D01*
X15075000Y19112500D01*
X15070242Y19088582D01*
X15056694Y19068306D01*
X15036418Y19054758D01*
X15012500Y19050000D01*
X14887500Y19050000D01*
X14863582Y19054758D01*
X14843306Y19068306D01*
X14829758Y19088582D01*
X14825000Y19112500D01*
X14825000Y19862500D01*
X14829758Y19886418D01*
X14843306Y19906694D01*
X14863582Y19920242D01*
X14887500Y19925000D01*
X15012500Y19925000D01*
X15036418Y19920242D01*
G37*
G36*
X15536418Y19920242D02*
G01*
X15556694Y19906694D01*
X15570242Y19886418D01*
X15575000Y19862500D01*
X15575000Y19112500D01*
X15570242Y19088582D01*
X15556694Y19068306D01*
X15536418Y19054758D01*
X15512500Y19050000D01*
X15387500Y19050000D01*
X15363582Y19054758D01*
X15343306Y19068306D01*
X15329758Y19088582D01*
X15325000Y19112500D01*
X15325000Y19862500D01*
X15329758Y19886418D01*
X15343306Y19906694D01*
X15363582Y19920242D01*
X15387500Y19925000D01*
X15512500Y19925000D01*
X15536418Y19920242D01*
G37*
G36*
X8203576Y19729343D02*
G01*
X8248995Y19698995D01*
X8279343Y19653576D01*
X8290000Y19600000D01*
X8290000Y19320000D01*
X8279343Y19266424D01*
X8248995Y19221005D01*
X8203576Y19190657D01*
X8150000Y19180000D01*
X7810000Y19180000D01*
X7756424Y19190657D01*
X7711005Y19221005D01*
X7680657Y19266424D01*
X7670000Y19320000D01*
X7670000Y19600000D01*
X7680657Y19653576D01*
X7711005Y19698995D01*
X7756424Y19729343D01*
X7810000Y19740000D01*
X8150000Y19740000D01*
X8203576Y19729343D01*
G37*
G36*
X3473576Y20079343D02*
G01*
X3518995Y20048995D01*
X3549343Y20003576D01*
X3560000Y19950000D01*
X3560000Y19610000D01*
X3549343Y19556424D01*
X3518995Y19511005D01*
X3473576Y19480657D01*
X3420000Y19470000D01*
X3140000Y19470000D01*
X3086424Y19480657D01*
X3041005Y19511005D01*
X3010657Y19556424D01*
X3000000Y19610000D01*
X3000000Y19950000D01*
X3010657Y20003576D01*
X3041005Y20048995D01*
X3086424Y20079343D01*
X3140000Y20090000D01*
X3420000Y20090000D01*
X3473576Y20079343D01*
G37*
G36*
X4433576Y20079343D02*
G01*
X4478995Y20048995D01*
X4509343Y20003576D01*
X4520000Y19950000D01*
X4520000Y19610000D01*
X4509343Y19556424D01*
X4478995Y19511005D01*
X4433576Y19480657D01*
X4380000Y19470000D01*
X4100000Y19470000D01*
X4046424Y19480657D01*
X4001005Y19511005D01*
X3970657Y19556424D01*
X3960000Y19610000D01*
X3960000Y19950000D01*
X3970657Y20003576D01*
X4001005Y20048995D01*
X4046424Y20079343D01*
X4100000Y20090000D01*
X4380000Y20090000D01*
X4433576Y20079343D01*
G37*
G36*
X6230000Y19530000D02*
G01*
X5130000Y19530000D01*
X5130000Y20130000D01*
X6230000Y20130000D01*
X6230000Y19530000D01*
G37*
G36*
X17713576Y20149343D02*
G01*
X17758995Y20118995D01*
X17789343Y20073576D01*
X17800000Y20020000D01*
X17800000Y19740000D01*
X17789343Y19686424D01*
X17758995Y19641005D01*
X17713576Y19610657D01*
X17660000Y19600000D01*
X17320000Y19600000D01*
X17266424Y19610657D01*
X17221005Y19641005D01*
X17190657Y19686424D01*
X17180000Y19740000D01*
X17180000Y20020000D01*
X17190657Y20073576D01*
X17221005Y20118995D01*
X17266424Y20149343D01*
X17320000Y20160000D01*
X17660000Y20160000D01*
X17713576Y20149343D01*
G37*
G36*
X29186662Y20199724D02*
G01*
X29230459Y20170459D01*
X29259724Y20126662D01*
X29270000Y20075000D01*
X29270000Y19805000D01*
X29259724Y19753338D01*
X29230459Y19709541D01*
X29186662Y19680276D01*
X29135000Y19670000D01*
X28765000Y19670000D01*
X28713338Y19680276D01*
X28669541Y19709541D01*
X28640276Y19753338D01*
X28630000Y19805000D01*
X28630000Y20075000D01*
X28640276Y20126662D01*
X28669541Y20170459D01*
X28713338Y20199724D01*
X28765000Y20210000D01*
X29135000Y20210000D01*
X29186662Y20199724D01*
G37*
G36*
X8203576Y20689343D02*
G01*
X8248995Y20658995D01*
X8279343Y20613576D01*
X8290000Y20560000D01*
X8290000Y20280000D01*
X8279343Y20226424D01*
X8248995Y20181005D01*
X8203576Y20150657D01*
X8150000Y20140000D01*
X7810000Y20140000D01*
X7756424Y20150657D01*
X7711005Y20181005D01*
X7680657Y20226424D01*
X7670000Y20280000D01*
X7670000Y20560000D01*
X7680657Y20613576D01*
X7711005Y20658995D01*
X7756424Y20689343D01*
X7810000Y20700000D01*
X8150000Y20700000D01*
X8203576Y20689343D01*
G37*
G36*
X10163576Y20989343D02*
G01*
X10208995Y20958995D01*
X10239343Y20913576D01*
X10250000Y20860000D01*
X10250000Y20580000D01*
X10239343Y20526424D01*
X10208995Y20481005D01*
X10163576Y20450657D01*
X10110000Y20440000D01*
X9770000Y20440000D01*
X9716424Y20450657D01*
X9671005Y20481005D01*
X9640657Y20526424D01*
X9630000Y20580000D01*
X9630000Y20860000D01*
X9640657Y20913576D01*
X9671005Y20958995D01*
X9716424Y20989343D01*
X9770000Y21000000D01*
X10110000Y21000000D01*
X10163576Y20989343D01*
G37*
G36*
X29186662Y21219724D02*
G01*
X29230459Y21190459D01*
X29259724Y21146662D01*
X29270000Y21095000D01*
X29270000Y20825000D01*
X29259724Y20773338D01*
X29230459Y20729541D01*
X29186662Y20700276D01*
X29135000Y20690000D01*
X28765000Y20690000D01*
X28713338Y20700276D01*
X28669541Y20729541D01*
X28640276Y20773338D01*
X28630000Y20825000D01*
X28630000Y21095000D01*
X28640276Y21146662D01*
X28669541Y21190459D01*
X28713338Y21219724D01*
X28765000Y21230000D01*
X29135000Y21230000D01*
X29186662Y21219724D01*
G37*
G36*
X25837500Y20727500D02*
G01*
X25537500Y20727500D01*
X25537500Y21477500D01*
X25837500Y21477500D01*
X25837500Y20727500D01*
G37*
G36*
X26337500Y20727500D02*
G01*
X26037500Y20727500D01*
X26037500Y21477500D01*
X26337500Y21477500D01*
X26337500Y20727500D01*
G37*
G36*
X26837500Y20727500D02*
G01*
X26537500Y20727500D01*
X26537500Y21477500D01*
X26837500Y21477500D01*
X26837500Y20727500D01*
G37*
G36*
X27337500Y20727500D02*
G01*
X27037500Y20727500D01*
X27037500Y21477500D01*
X27337500Y21477500D01*
X27337500Y20727500D01*
G37*
G36*
X13748576Y21844343D02*
G01*
X13793995Y21813995D01*
X13824343Y21768576D01*
X13835000Y21715000D01*
X13835000Y21435000D01*
X13824343Y21381424D01*
X13793995Y21336005D01*
X13748576Y21305657D01*
X13695000Y21295000D01*
X13355000Y21295000D01*
X13301424Y21305657D01*
X13256005Y21336005D01*
X13225657Y21381424D01*
X13215000Y21435000D01*
X13215000Y21715000D01*
X13225657Y21768576D01*
X13256005Y21813995D01*
X13301424Y21844343D01*
X13355000Y21855000D01*
X13695000Y21855000D01*
X13748576Y21844343D01*
G37*
G36*
X10163576Y21949343D02*
G01*
X10208995Y21918995D01*
X10239343Y21873576D01*
X10250000Y21820000D01*
X10250000Y21540000D01*
X10239343Y21486424D01*
X10208995Y21441005D01*
X10163576Y21410657D01*
X10110000Y21400000D01*
X9770000Y21400000D01*
X9716424Y21410657D01*
X9671005Y21441005D01*
X9640657Y21486424D01*
X9630000Y21540000D01*
X9630000Y21820000D01*
X9640657Y21873576D01*
X9671005Y21918995D01*
X9716424Y21949343D01*
X9770000Y21960000D01*
X10110000Y21960000D01*
X10163576Y21949343D01*
G37*
G36*
X21566662Y22244724D02*
G01*
X21610459Y22215459D01*
X21639724Y22171662D01*
X21650000Y22120000D01*
X21650000Y21850000D01*
X21639724Y21798338D01*
X21610459Y21754541D01*
X21566662Y21725276D01*
X21515000Y21715000D01*
X21145000Y21715000D01*
X21093338Y21725276D01*
X21049541Y21754541D01*
X21020276Y21798338D01*
X21010000Y21850000D01*
X21010000Y22120000D01*
X21020276Y22171662D01*
X21049541Y22215459D01*
X21093338Y22244724D01*
X21145000Y22255000D01*
X21515000Y22255000D01*
X21566662Y22244724D01*
G37*
G36*
X22556662Y22254724D02*
G01*
X22600459Y22225459D01*
X22629724Y22181662D01*
X22640000Y22130000D01*
X22640000Y21860000D01*
X22629724Y21808338D01*
X22600459Y21764541D01*
X22556662Y21735276D01*
X22505000Y21725000D01*
X22135000Y21725000D01*
X22083338Y21735276D01*
X22039541Y21764541D01*
X22010276Y21808338D01*
X22000000Y21860000D01*
X22000000Y22130000D01*
X22010276Y22181662D01*
X22039541Y22225459D01*
X22083338Y22254724D01*
X22135000Y22265000D01*
X22505000Y22265000D01*
X22556662Y22254724D01*
G37*
G36*
X20553576Y22374343D02*
G01*
X20598995Y22343995D01*
X20629343Y22298576D01*
X20640000Y22245000D01*
X20640000Y21965000D01*
X20629343Y21911424D01*
X20598995Y21866005D01*
X20553576Y21835657D01*
X20500000Y21825000D01*
X20160000Y21825000D01*
X20106424Y21835657D01*
X20061005Y21866005D01*
X20030657Y21911424D01*
X20020000Y21965000D01*
X20020000Y22245000D01*
X20030657Y22298576D01*
X20061005Y22343995D01*
X20106424Y22374343D01*
X20160000Y22385000D01*
X20500000Y22385000D01*
X20553576Y22374343D01*
G37*
G36*
X26923576Y22559343D02*
G01*
X26968995Y22528995D01*
X26999343Y22483576D01*
X27010000Y22430000D01*
X27010000Y22150000D01*
X26999343Y22096424D01*
X26968995Y22051005D01*
X26923576Y22020657D01*
X26870000Y22010000D01*
X26530000Y22010000D01*
X26476424Y22020657D01*
X26431005Y22051005D01*
X26400657Y22096424D01*
X26390000Y22150000D01*
X26390000Y22430000D01*
X26400657Y22483576D01*
X26431005Y22528995D01*
X26476424Y22559343D01*
X26530000Y22570000D01*
X26870000Y22570000D01*
X26923576Y22559343D01*
G37*
G36*
X13748576Y22804343D02*
G01*
X13793995Y22773995D01*
X13824343Y22728576D01*
X13835000Y22675000D01*
X13835000Y22395000D01*
X13824343Y22341424D01*
X13793995Y22296005D01*
X13748576Y22265657D01*
X13695000Y22255000D01*
X13355000Y22255000D01*
X13301424Y22265657D01*
X13256005Y22296005D01*
X13225657Y22341424D01*
X13215000Y22395000D01*
X13215000Y22675000D01*
X13225657Y22728576D01*
X13256005Y22773995D01*
X13301424Y22804343D01*
X13355000Y22815000D01*
X13695000Y22815000D01*
X13748576Y22804343D01*
G37*
G36*
X21566662Y23264724D02*
G01*
X21610459Y23235459D01*
X21639724Y23191662D01*
X21650000Y23140000D01*
X21650000Y22870000D01*
X21639724Y22818338D01*
X21610459Y22774541D01*
X21566662Y22745276D01*
X21515000Y22735000D01*
X21145000Y22735000D01*
X21093338Y22745276D01*
X21049541Y22774541D01*
X21020276Y22818338D01*
X21010000Y22870000D01*
X21010000Y23140000D01*
X21020276Y23191662D01*
X21049541Y23235459D01*
X21093338Y23264724D01*
X21145000Y23275000D01*
X21515000Y23275000D01*
X21566662Y23264724D01*
G37*
G36*
X22556662Y23274724D02*
G01*
X22600459Y23245459D01*
X22629724Y23201662D01*
X22640000Y23150000D01*
X22640000Y22880000D01*
X22629724Y22828338D01*
X22600459Y22784541D01*
X22556662Y22755276D01*
X22505000Y22745000D01*
X22135000Y22745000D01*
X22083338Y22755276D01*
X22039541Y22784541D01*
X22010276Y22828338D01*
X22000000Y22880000D01*
X22000000Y23150000D01*
X22010276Y23201662D01*
X22039541Y23245459D01*
X22083338Y23274724D01*
X22135000Y23285000D01*
X22505000Y23285000D01*
X22556662Y23274724D01*
G37*
G36*
X20553576Y23334343D02*
G01*
X20598995Y23303995D01*
X20629343Y23258576D01*
X20640000Y23205000D01*
X20640000Y22925000D01*
X20629343Y22871424D01*
X20598995Y22826005D01*
X20553576Y22795657D01*
X20500000Y22785000D01*
X20160000Y22785000D01*
X20106424Y22795657D01*
X20061005Y22826005D01*
X20030657Y22871424D01*
X20020000Y22925000D01*
X20020000Y23205000D01*
X20030657Y23258576D01*
X20061005Y23303995D01*
X20106424Y23334343D01*
X20160000Y23345000D01*
X20500000Y23345000D01*
X20553576Y23334343D01*
G37*
G36*
X7750676Y23369343D02*
G01*
X7796095Y23338995D01*
X7826443Y23293576D01*
X7837100Y23240000D01*
X7837100Y22960000D01*
X7826443Y22906424D01*
X7796095Y22861005D01*
X7750676Y22830657D01*
X7697100Y22820000D01*
X7357100Y22820000D01*
X7303524Y22830657D01*
X7258105Y22861005D01*
X7227757Y22906424D01*
X7217100Y22960000D01*
X7217100Y23240000D01*
X7227757Y23293576D01*
X7258105Y23338995D01*
X7303524Y23369343D01*
X7357100Y23380000D01*
X7697100Y23380000D01*
X7750676Y23369343D01*
G37*
G36*
X26923576Y23519343D02*
G01*
X26968995Y23488995D01*
X26999343Y23443576D01*
X27010000Y23390000D01*
X27010000Y23110000D01*
X26999343Y23056424D01*
X26968995Y23011005D01*
X26923576Y22980657D01*
X26870000Y22970000D01*
X26530000Y22970000D01*
X26476424Y22980657D01*
X26431005Y23011005D01*
X26400657Y23056424D01*
X26390000Y23110000D01*
X26390000Y23390000D01*
X26400657Y23443576D01*
X26431005Y23488995D01*
X26476424Y23519343D01*
X26530000Y23530000D01*
X26870000Y23530000D01*
X26923576Y23519343D01*
G37*
G36*
X4782459Y23829800D02*
G01*
X4807181Y23813282D01*
X4823699Y23788560D01*
X4829499Y23759400D01*
X4829499Y23378400D01*
X4823699Y23349240D01*
X4807181Y23324518D01*
X4782459Y23308000D01*
X4753299Y23302200D01*
X4600899Y23302200D01*
X4571739Y23308000D01*
X4547017Y23324518D01*
X4530499Y23349240D01*
X4524699Y23378400D01*
X4524699Y23759400D01*
X4530499Y23788560D01*
X4547017Y23813282D01*
X4571739Y23829800D01*
X4600899Y23835600D01*
X4753299Y23835600D01*
X4782459Y23829800D01*
G37*
G36*
X5282460Y23829800D02*
G01*
X5307182Y23813282D01*
X5323700Y23788560D01*
X5329500Y23759400D01*
X5329500Y23378400D01*
X5323700Y23349240D01*
X5307182Y23324518D01*
X5282460Y23308000D01*
X5253300Y23302200D01*
X5100900Y23302200D01*
X5071740Y23308000D01*
X5047018Y23324518D01*
X5030500Y23349240D01*
X5024700Y23378400D01*
X5024700Y23759400D01*
X5030500Y23788560D01*
X5047018Y23813282D01*
X5071740Y23829800D01*
X5100900Y23835600D01*
X5253300Y23835600D01*
X5282460Y23829800D01*
G37*
G36*
X5782460Y23829800D02*
G01*
X5807182Y23813282D01*
X5823700Y23788560D01*
X5829500Y23759400D01*
X5829500Y23378400D01*
X5823700Y23349240D01*
X5807182Y23324518D01*
X5782460Y23308000D01*
X5753300Y23302200D01*
X5600900Y23302200D01*
X5571740Y23308000D01*
X5547018Y23324518D01*
X5530500Y23349240D01*
X5524700Y23378400D01*
X5524700Y23759400D01*
X5530500Y23788560D01*
X5547018Y23813282D01*
X5571740Y23829800D01*
X5600900Y23835600D01*
X5753300Y23835600D01*
X5782460Y23829800D01*
G37*
G36*
X6282461Y23829800D02*
G01*
X6307183Y23813282D01*
X6323701Y23788560D01*
X6329501Y23759400D01*
X6329501Y23378400D01*
X6323701Y23349240D01*
X6307183Y23324518D01*
X6282461Y23308000D01*
X6253301Y23302200D01*
X6100901Y23302200D01*
X6071741Y23308000D01*
X6047019Y23324518D01*
X6030501Y23349240D01*
X6024701Y23378400D01*
X6024701Y23759400D01*
X6030501Y23788560D01*
X6047019Y23813282D01*
X6071741Y23829800D01*
X6100901Y23835600D01*
X6253301Y23835600D01*
X6282461Y23829800D01*
G37*
G36*
X18566662Y23944724D02*
G01*
X18610459Y23915459D01*
X18639724Y23871662D01*
X18650000Y23820000D01*
X18650000Y23550000D01*
X18639724Y23498338D01*
X18610459Y23454541D01*
X18566662Y23425276D01*
X18515000Y23415000D01*
X18145000Y23415000D01*
X18093338Y23425276D01*
X18049541Y23454541D01*
X18020276Y23498338D01*
X18010000Y23550000D01*
X18010000Y23820000D01*
X18020276Y23871662D01*
X18049541Y23915459D01*
X18093338Y23944724D01*
X18145000Y23955000D01*
X18515000Y23955000D01*
X18566662Y23944724D01*
G37*
G36*
X2233762Y24269724D02*
G01*
X2277559Y24240459D01*
X2306824Y24196662D01*
X2317100Y24145000D01*
X2317100Y23775000D01*
X2306824Y23723338D01*
X2277559Y23679541D01*
X2233762Y23650276D01*
X2182100Y23640000D01*
X1912100Y23640000D01*
X1860438Y23650276D01*
X1816641Y23679541D01*
X1787376Y23723338D01*
X1777100Y23775000D01*
X1777100Y24145000D01*
X1787376Y24196662D01*
X1816641Y24240459D01*
X1860438Y24269724D01*
X1912100Y24280000D01*
X2182100Y24280000D01*
X2233762Y24269724D01*
G37*
G36*
X3253762Y24269724D02*
G01*
X3297559Y24240459D01*
X3326824Y24196662D01*
X3337100Y24145000D01*
X3337100Y23775000D01*
X3326824Y23723338D01*
X3297559Y23679541D01*
X3253762Y23650276D01*
X3202100Y23640000D01*
X2932100Y23640000D01*
X2880438Y23650276D01*
X2836641Y23679541D01*
X2807376Y23723338D01*
X2797100Y23775000D01*
X2797100Y24145000D01*
X2807376Y24196662D01*
X2836641Y24240459D01*
X2880438Y24269724D01*
X2932100Y24280000D01*
X3202100Y24280000D01*
X3253762Y24269724D01*
G37*
G36*
X20416418Y24637742D02*
G01*
X20436694Y24624194D01*
X20450242Y24603918D01*
X20455000Y24580000D01*
X20455000Y23830000D01*
X20450242Y23806082D01*
X20436694Y23785806D01*
X20416418Y23772258D01*
X20392500Y23767500D01*
X20267500Y23767500D01*
X20243582Y23772258D01*
X20223306Y23785806D01*
X20209758Y23806082D01*
X20205000Y23830000D01*
X20205000Y24580000D01*
X20209758Y24603918D01*
X20223306Y24624194D01*
X20243582Y24637742D01*
X20267500Y24642500D01*
X20392500Y24642500D01*
X20416418Y24637742D01*
G37*
G36*
X20916418Y24637742D02*
G01*
X20936694Y24624194D01*
X20950242Y24603918D01*
X20955000Y24580000D01*
X20955000Y23830000D01*
X20950242Y23806082D01*
X20936694Y23785806D01*
X20916418Y23772258D01*
X20892500Y23767500D01*
X20767500Y23767500D01*
X20743582Y23772258D01*
X20723306Y23785806D01*
X20709758Y23806082D01*
X20705000Y23830000D01*
X20705000Y24580000D01*
X20709758Y24603918D01*
X20723306Y24624194D01*
X20743582Y24637742D01*
X20767500Y24642500D01*
X20892500Y24642500D01*
X20916418Y24637742D01*
G37*
G36*
X21416418Y24637742D02*
G01*
X21436694Y24624194D01*
X21450242Y24603918D01*
X21455000Y24580000D01*
X21455000Y23830000D01*
X21450242Y23806082D01*
X21436694Y23785806D01*
X21416418Y23772258D01*
X21392500Y23767500D01*
X21267500Y23767500D01*
X21243582Y23772258D01*
X21223306Y23785806D01*
X21209758Y23806082D01*
X21205000Y23830000D01*
X21205000Y24580000D01*
X21209758Y24603918D01*
X21223306Y24624194D01*
X21243582Y24637742D01*
X21267500Y24642500D01*
X21392500Y24642500D01*
X21416418Y24637742D01*
G37*
G36*
X21916418Y24637742D02*
G01*
X21936694Y24624194D01*
X21950242Y24603918D01*
X21955000Y24580000D01*
X21955000Y23830000D01*
X21950242Y23806082D01*
X21936694Y23785806D01*
X21916418Y23772258D01*
X21892500Y23767500D01*
X21767500Y23767500D01*
X21743582Y23772258D01*
X21723306Y23785806D01*
X21709758Y23806082D01*
X21705000Y23830000D01*
X21705000Y24580000D01*
X21709758Y24603918D01*
X21723306Y24624194D01*
X21743582Y24637742D01*
X21767500Y24642500D01*
X21892500Y24642500D01*
X21916418Y24637742D01*
G37*
G36*
X7750676Y24329343D02*
G01*
X7796095Y24298995D01*
X7826443Y24253576D01*
X7837100Y24200000D01*
X7837100Y23920000D01*
X7826443Y23866424D01*
X7796095Y23821005D01*
X7750676Y23790657D01*
X7697100Y23780000D01*
X7357100Y23780000D01*
X7303524Y23790657D01*
X7258105Y23821005D01*
X7227757Y23866424D01*
X7217100Y23920000D01*
X7217100Y24200000D01*
X7227757Y24253576D01*
X7258105Y24298995D01*
X7303524Y24329343D01*
X7357100Y24340000D01*
X7697100Y24340000D01*
X7750676Y24329343D01*
G37*
G36*
X4719660Y24396601D02*
G01*
X4744382Y24380083D01*
X4760900Y24355361D01*
X4766700Y24326201D01*
X4766700Y24173801D01*
X4760900Y24144641D01*
X4744382Y24119919D01*
X4719660Y24103401D01*
X4690500Y24097601D01*
X4309500Y24097601D01*
X4280340Y24103401D01*
X4255618Y24119919D01*
X4239100Y24144641D01*
X4233300Y24173801D01*
X4233300Y24326201D01*
X4239100Y24355361D01*
X4255618Y24380083D01*
X4280340Y24396601D01*
X4309500Y24402401D01*
X4690500Y24402401D01*
X4719660Y24396601D01*
G37*
G36*
X6573860Y24396601D02*
G01*
X6598582Y24380083D01*
X6615100Y24355361D01*
X6620900Y24326201D01*
X6620900Y24173801D01*
X6615100Y24144641D01*
X6598582Y24119919D01*
X6573860Y24103401D01*
X6544700Y24097601D01*
X6163700Y24097601D01*
X6134540Y24103401D01*
X6109818Y24119919D01*
X6093300Y24144641D01*
X6087500Y24173801D01*
X6087500Y24326201D01*
X6093300Y24355361D01*
X6109818Y24380083D01*
X6134540Y24396601D01*
X6163700Y24402401D01*
X6544700Y24402401D01*
X6573860Y24396601D01*
G37*
G36*
X18566662Y24964724D02*
G01*
X18610459Y24935459D01*
X18639724Y24891662D01*
X18650000Y24840000D01*
X18650000Y24570000D01*
X18639724Y24518338D01*
X18610459Y24474541D01*
X18566662Y24445276D01*
X18515000Y24435000D01*
X18145000Y24435000D01*
X18093338Y24445276D01*
X18049541Y24474541D01*
X18020276Y24518338D01*
X18010000Y24570000D01*
X18010000Y24840000D01*
X18020276Y24891662D01*
X18049541Y24935459D01*
X18093338Y24964724D01*
X18145000Y24975000D01*
X18515000Y24975000D01*
X18566662Y24964724D01*
G37*
G36*
X4719660Y24896600D02*
G01*
X4744382Y24880082D01*
X4760900Y24855360D01*
X4766700Y24826200D01*
X4766700Y24673800D01*
X4760900Y24644640D01*
X4744382Y24619918D01*
X4719660Y24603400D01*
X4690500Y24597600D01*
X4309500Y24597600D01*
X4280340Y24603400D01*
X4255618Y24619918D01*
X4239100Y24644640D01*
X4233300Y24673800D01*
X4233300Y24826200D01*
X4239100Y24855360D01*
X4255618Y24880082D01*
X4280340Y24896600D01*
X4309500Y24902400D01*
X4690500Y24902400D01*
X4719660Y24896600D01*
G37*
G36*
X6573860Y24896600D02*
G01*
X6598582Y24880082D01*
X6615100Y24855360D01*
X6620900Y24826200D01*
X6620900Y24673800D01*
X6615100Y24644640D01*
X6598582Y24619918D01*
X6573860Y24603400D01*
X6544700Y24597600D01*
X6163700Y24597600D01*
X6134540Y24603400D01*
X6109818Y24619918D01*
X6093300Y24644640D01*
X6087500Y24673800D01*
X6087500Y24826200D01*
X6093300Y24855360D01*
X6109818Y24880082D01*
X6134540Y24896600D01*
X6163700Y24902400D01*
X6544700Y24902400D01*
X6573860Y24896600D01*
G37*
G36*
X2233762Y25319724D02*
G01*
X2277559Y25290459D01*
X2306824Y25246662D01*
X2317100Y25195000D01*
X2317100Y24825000D01*
X2306824Y24773338D01*
X2277559Y24729541D01*
X2233762Y24700276D01*
X2182100Y24690000D01*
X1912100Y24690000D01*
X1860438Y24700276D01*
X1816641Y24729541D01*
X1787376Y24773338D01*
X1777100Y24825000D01*
X1777100Y25195000D01*
X1787376Y25246662D01*
X1816641Y25290459D01*
X1860438Y25319724D01*
X1912100Y25330000D01*
X2182100Y25330000D01*
X2233762Y25319724D01*
G37*
G36*
X3253762Y25319724D02*
G01*
X3297559Y25290459D01*
X3326824Y25246662D01*
X3337100Y25195000D01*
X3337100Y24825000D01*
X3326824Y24773338D01*
X3297559Y24729541D01*
X3253762Y24700276D01*
X3202100Y24690000D01*
X2932100Y24690000D01*
X2880438Y24700276D01*
X2836641Y24729541D01*
X2807376Y24773338D01*
X2797100Y24825000D01*
X2797100Y25195000D01*
X2807376Y25246662D01*
X2836641Y25290459D01*
X2880438Y25319724D01*
X2932100Y25330000D01*
X3202100Y25330000D01*
X3253762Y25319724D01*
G37*
G36*
X20041418Y25012742D02*
G01*
X20061694Y24999194D01*
X20075242Y24978918D01*
X20080000Y24955000D01*
X20080000Y24830000D01*
X20075242Y24806082D01*
X20061694Y24785806D01*
X20041418Y24772258D01*
X20017500Y24767500D01*
X19267500Y24767500D01*
X19243582Y24772258D01*
X19223306Y24785806D01*
X19209758Y24806082D01*
X19205000Y24830000D01*
X19205000Y24955000D01*
X19209758Y24978918D01*
X19223306Y24999194D01*
X19243582Y25012742D01*
X19267500Y25017500D01*
X20017500Y25017500D01*
X20041418Y25012742D01*
G37*
G36*
X22916418Y25012742D02*
G01*
X22936694Y24999194D01*
X22950242Y24978918D01*
X22955000Y24955000D01*
X22955000Y24830000D01*
X22950242Y24806082D01*
X22936694Y24785806D01*
X22916418Y24772258D01*
X22892500Y24767500D01*
X22142500Y24767500D01*
X22118582Y24772258D01*
X22098306Y24785806D01*
X22084758Y24806082D01*
X22080000Y24830000D01*
X22080000Y24955000D01*
X22084758Y24978918D01*
X22098306Y24999194D01*
X22118582Y25012742D01*
X22142500Y25017500D01*
X22892500Y25017500D01*
X22916418Y25012742D01*
G37*
G36*
X21880000Y24842500D02*
G01*
X20280000Y24842500D01*
X20280000Y26442500D01*
X21880000Y26442500D01*
X21880000Y24842500D01*
G37*
G36*
X4719660Y25396599D02*
G01*
X4744382Y25380081D01*
X4760900Y25355359D01*
X4766700Y25326199D01*
X4766700Y25173799D01*
X4760900Y25144639D01*
X4744382Y25119917D01*
X4719660Y25103399D01*
X4690500Y25097599D01*
X4309500Y25097599D01*
X4280340Y25103399D01*
X4255618Y25119917D01*
X4239100Y25144639D01*
X4233300Y25173799D01*
X4233300Y25326199D01*
X4239100Y25355359D01*
X4255618Y25380081D01*
X4280340Y25396599D01*
X4309500Y25402399D01*
X4690500Y25402399D01*
X4719660Y25396599D01*
G37*
G36*
X6573860Y25396599D02*
G01*
X6598582Y25380081D01*
X6615100Y25355359D01*
X6620900Y25326199D01*
X6620900Y25173799D01*
X6615100Y25144639D01*
X6598582Y25119917D01*
X6573860Y25103399D01*
X6544700Y25097599D01*
X6163700Y25097599D01*
X6134540Y25103399D01*
X6109818Y25119917D01*
X6093300Y25144639D01*
X6087500Y25173799D01*
X6087500Y25326199D01*
X6093300Y25355359D01*
X6109818Y25380081D01*
X6134540Y25396599D01*
X6163700Y25402399D01*
X6544700Y25402399D01*
X6573860Y25396599D01*
G37*
G36*
X20041418Y25512742D02*
G01*
X20061694Y25499194D01*
X20075242Y25478918D01*
X20080000Y25455000D01*
X20080000Y25330000D01*
X20075242Y25306082D01*
X20061694Y25285806D01*
X20041418Y25272258D01*
X20017500Y25267500D01*
X19267500Y25267500D01*
X19243582Y25272258D01*
X19223306Y25285806D01*
X19209758Y25306082D01*
X19205000Y25330000D01*
X19205000Y25455000D01*
X19209758Y25478918D01*
X19223306Y25499194D01*
X19243582Y25512742D01*
X19267500Y25517500D01*
X20017500Y25517500D01*
X20041418Y25512742D01*
G37*
G36*
X22916418Y25512742D02*
G01*
X22936694Y25499194D01*
X22950242Y25478918D01*
X22955000Y25455000D01*
X22955000Y25330000D01*
X22950242Y25306082D01*
X22936694Y25285806D01*
X22916418Y25272258D01*
X22892500Y25267500D01*
X22142500Y25267500D01*
X22118582Y25272258D01*
X22098306Y25285806D01*
X22084758Y25306082D01*
X22080000Y25330000D01*
X22080000Y25455000D01*
X22084758Y25478918D01*
X22098306Y25499194D01*
X22118582Y25512742D01*
X22142500Y25517500D01*
X22892500Y25517500D01*
X22916418Y25512742D01*
G37*
G36*
X17566662Y25944724D02*
G01*
X17610459Y25915459D01*
X17639724Y25871662D01*
X17650000Y25820000D01*
X17650000Y25550000D01*
X17639724Y25498338D01*
X17610459Y25454541D01*
X17566662Y25425276D01*
X17515000Y25415000D01*
X17145000Y25415000D01*
X17093338Y25425276D01*
X17049541Y25454541D01*
X17020276Y25498338D01*
X17010000Y25550000D01*
X17010000Y25820000D01*
X17020276Y25871662D01*
X17049541Y25915459D01*
X17093338Y25944724D01*
X17145000Y25955000D01*
X17515000Y25955000D01*
X17566662Y25944724D01*
G37*
G36*
X18566662Y25954724D02*
G01*
X18610459Y25925459D01*
X18639724Y25881662D01*
X18650000Y25830000D01*
X18650000Y25560000D01*
X18639724Y25508338D01*
X18610459Y25464541D01*
X18566662Y25435276D01*
X18515000Y25425000D01*
X18145000Y25425000D01*
X18093338Y25435276D01*
X18049541Y25464541D01*
X18020276Y25508338D01*
X18010000Y25560000D01*
X18010000Y25830000D01*
X18020276Y25881662D01*
X18049541Y25925459D01*
X18093338Y25954724D01*
X18145000Y25965000D01*
X18515000Y25965000D01*
X18566662Y25954724D01*
G37*
G36*
X16553576Y25994343D02*
G01*
X16598995Y25963995D01*
X16629343Y25918576D01*
X16640000Y25865000D01*
X16640000Y25585000D01*
X16629343Y25531424D01*
X16598995Y25486005D01*
X16553576Y25455657D01*
X16500000Y25445000D01*
X16160000Y25445000D01*
X16106424Y25455657D01*
X16061005Y25486005D01*
X16030657Y25531424D01*
X16020000Y25585000D01*
X16020000Y25865000D01*
X16030657Y25918576D01*
X16061005Y25963995D01*
X16106424Y25994343D01*
X16160000Y26005000D01*
X16500000Y26005000D01*
X16553576Y25994343D01*
G37*
G36*
X23963576Y26204343D02*
G01*
X24008995Y26173995D01*
X24039343Y26128576D01*
X24050000Y26075000D01*
X24050000Y25735000D01*
X24039343Y25681424D01*
X24008995Y25636005D01*
X23963576Y25605657D01*
X23910000Y25595000D01*
X23630000Y25595000D01*
X23576424Y25605657D01*
X23531005Y25636005D01*
X23500657Y25681424D01*
X23490000Y25735000D01*
X23490000Y26075000D01*
X23500657Y26128576D01*
X23531005Y26173995D01*
X23576424Y26204343D01*
X23630000Y26215000D01*
X23910000Y26215000D01*
X23963576Y26204343D01*
G37*
G36*
X24923576Y26204343D02*
G01*
X24968995Y26173995D01*
X24999343Y26128576D01*
X25010000Y26075000D01*
X25010000Y25735000D01*
X24999343Y25681424D01*
X24968995Y25636005D01*
X24923576Y25605657D01*
X24870000Y25595000D01*
X24590000Y25595000D01*
X24536424Y25605657D01*
X24491005Y25636005D01*
X24460657Y25681424D01*
X24450000Y25735000D01*
X24450000Y26075000D01*
X24460657Y26128576D01*
X24491005Y26173995D01*
X24536424Y26204343D01*
X24590000Y26215000D01*
X24870000Y26215000D01*
X24923576Y26204343D01*
G37*
G36*
X4782459Y26192000D02*
G01*
X4807181Y26175482D01*
X4823699Y26150760D01*
X4829499Y26121600D01*
X4829499Y25740600D01*
X4823699Y25711440D01*
X4807181Y25686718D01*
X4782459Y25670200D01*
X4753299Y25664400D01*
X4600899Y25664400D01*
X4571739Y25670200D01*
X4547017Y25686718D01*
X4530499Y25711440D01*
X4524699Y25740600D01*
X4524699Y26121600D01*
X4530499Y26150760D01*
X4547017Y26175482D01*
X4571739Y26192000D01*
X4600899Y26197800D01*
X4753299Y26197800D01*
X4782459Y26192000D01*
G37*
G36*
X5282460Y26192000D02*
G01*
X5307182Y26175482D01*
X5323700Y26150760D01*
X5329500Y26121600D01*
X5329500Y25740600D01*
X5323700Y25711440D01*
X5307182Y25686718D01*
X5282460Y25670200D01*
X5253300Y25664400D01*
X5100900Y25664400D01*
X5071740Y25670200D01*
X5047018Y25686718D01*
X5030500Y25711440D01*
X5024700Y25740600D01*
X5024700Y26121600D01*
X5030500Y26150760D01*
X5047018Y26175482D01*
X5071740Y26192000D01*
X5100900Y26197800D01*
X5253300Y26197800D01*
X5282460Y26192000D01*
G37*
G36*
X5782460Y26192000D02*
G01*
X5807182Y26175482D01*
X5823700Y26150760D01*
X5829500Y26121600D01*
X5829500Y25740600D01*
X5823700Y25711440D01*
X5807182Y25686718D01*
X5782460Y25670200D01*
X5753300Y25664400D01*
X5600900Y25664400D01*
X5571740Y25670200D01*
X5547018Y25686718D01*
X5530500Y25711440D01*
X5524700Y25740600D01*
X5524700Y26121600D01*
X5530500Y26150760D01*
X5547018Y26175482D01*
X5571740Y26192000D01*
X5600900Y26197800D01*
X5753300Y26197800D01*
X5782460Y26192000D01*
G37*
G36*
X6282461Y26192000D02*
G01*
X6307183Y26175482D01*
X6323701Y26150760D01*
X6329501Y26121600D01*
X6329501Y25740600D01*
X6323701Y25711440D01*
X6307183Y25686718D01*
X6282461Y25670200D01*
X6253301Y25664400D01*
X6100901Y25664400D01*
X6071741Y25670200D01*
X6047019Y25686718D01*
X6030501Y25711440D01*
X6024701Y25740600D01*
X6024701Y26121600D01*
X6030501Y26150760D01*
X6047019Y26175482D01*
X6071741Y26192000D01*
X6100901Y26197800D01*
X6253301Y26197800D01*
X6282461Y26192000D01*
G37*
G36*
X20041418Y26012742D02*
G01*
X20061694Y25999194D01*
X20075242Y25978918D01*
X20080000Y25955000D01*
X20080000Y25830000D01*
X20075242Y25806082D01*
X20061694Y25785806D01*
X20041418Y25772258D01*
X20017500Y25767500D01*
X19267500Y25767500D01*
X19243582Y25772258D01*
X19223306Y25785806D01*
X19209758Y25806082D01*
X19205000Y25830000D01*
X19205000Y25955000D01*
X19209758Y25978918D01*
X19223306Y25999194D01*
X19243582Y26012742D01*
X19267500Y26017500D01*
X20017500Y26017500D01*
X20041418Y26012742D01*
G37*
G36*
X22916418Y26012742D02*
G01*
X22936694Y25999194D01*
X22950242Y25978918D01*
X22955000Y25955000D01*
X22955000Y25830000D01*
X22950242Y25806082D01*
X22936694Y25785806D01*
X22916418Y25772258D01*
X22892500Y25767500D01*
X22142500Y25767500D01*
X22118582Y25772258D01*
X22098306Y25785806D01*
X22084758Y25806082D01*
X22080000Y25830000D01*
X22080000Y25955000D01*
X22084758Y25978918D01*
X22098306Y25999194D01*
X22118582Y26012742D01*
X22142500Y26017500D01*
X22892500Y26017500D01*
X22916418Y26012742D01*
G37*
G36*
X10619903Y27213582D02*
G01*
X10668566Y27181066D01*
X10701082Y27132403D01*
X10712500Y27075000D01*
X10712500Y26050000D01*
X10701082Y25992597D01*
X10668566Y25943934D01*
X10619903Y25911418D01*
X10562500Y25900000D01*
X10262500Y25900000D01*
X10205097Y25911418D01*
X10156434Y25943934D01*
X10123918Y25992597D01*
X10112500Y26050000D01*
X10112500Y27075000D01*
X10123918Y27132403D01*
X10156434Y27181066D01*
X10205097Y27213582D01*
X10262500Y27225000D01*
X10562500Y27225000D01*
X10619903Y27213582D01*
G37*
G36*
X11569903Y27213582D02*
G01*
X11618566Y27181066D01*
X11651082Y27132403D01*
X11662500Y27075000D01*
X11662500Y26050000D01*
X11651082Y25992597D01*
X11618566Y25943934D01*
X11569903Y25911418D01*
X11512500Y25900000D01*
X11212500Y25900000D01*
X11155097Y25911418D01*
X11106434Y25943934D01*
X11073918Y25992597D01*
X11062500Y26050000D01*
X11062500Y27075000D01*
X11073918Y27132403D01*
X11106434Y27181066D01*
X11155097Y27213582D01*
X11212500Y27225000D01*
X11512500Y27225000D01*
X11569903Y27213582D01*
G37*
G36*
X12519903Y27213582D02*
G01*
X12568566Y27181066D01*
X12601082Y27132403D01*
X12612500Y27075000D01*
X12612500Y26050000D01*
X12601082Y25992597D01*
X12568566Y25943934D01*
X12519903Y25911418D01*
X12462500Y25900000D01*
X12162500Y25900000D01*
X12105097Y25911418D01*
X12056434Y25943934D01*
X12023918Y25992597D01*
X12012500Y26050000D01*
X12012500Y27075000D01*
X12023918Y27132403D01*
X12056434Y27181066D01*
X12105097Y27213582D01*
X12162500Y27225000D01*
X12462500Y27225000D01*
X12519903Y27213582D01*
G37*
G36*
X20041418Y26512742D02*
G01*
X20061694Y26499194D01*
X20075242Y26478918D01*
X20080000Y26455000D01*
X20080000Y26330000D01*
X20075242Y26306082D01*
X20061694Y26285806D01*
X20041418Y26272258D01*
X20017500Y26267500D01*
X19267500Y26267500D01*
X19243582Y26272258D01*
X19223306Y26285806D01*
X19209758Y26306082D01*
X19205000Y26330000D01*
X19205000Y26455000D01*
X19209758Y26478918D01*
X19223306Y26499194D01*
X19243582Y26512742D01*
X19267500Y26517500D01*
X20017500Y26517500D01*
X20041418Y26512742D01*
G37*
G36*
X22916418Y26512742D02*
G01*
X22936694Y26499194D01*
X22950242Y26478918D01*
X22955000Y26455000D01*
X22955000Y26330000D01*
X22950242Y26306082D01*
X22936694Y26285806D01*
X22916418Y26272258D01*
X22892500Y26267500D01*
X22142500Y26267500D01*
X22118582Y26272258D01*
X22098306Y26285806D01*
X22084758Y26306082D01*
X22080000Y26330000D01*
X22080000Y26455000D01*
X22084758Y26478918D01*
X22098306Y26499194D01*
X22118582Y26512742D01*
X22142500Y26517500D01*
X22892500Y26517500D01*
X22916418Y26512742D01*
G37*
G36*
X16553576Y26954343D02*
G01*
X16598995Y26923995D01*
X16629343Y26878576D01*
X16640000Y26825000D01*
X16640000Y26545000D01*
X16629343Y26491424D01*
X16598995Y26446005D01*
X16553576Y26415657D01*
X16500000Y26405000D01*
X16160000Y26405000D01*
X16106424Y26415657D01*
X16061005Y26446005D01*
X16030657Y26491424D01*
X16020000Y26545000D01*
X16020000Y26825000D01*
X16030657Y26878576D01*
X16061005Y26923995D01*
X16106424Y26954343D01*
X16160000Y26965000D01*
X16500000Y26965000D01*
X16553576Y26954343D01*
G37*
G36*
X17566662Y26964724D02*
G01*
X17610459Y26935459D01*
X17639724Y26891662D01*
X17650000Y26840000D01*
X17650000Y26570000D01*
X17639724Y26518338D01*
X17610459Y26474541D01*
X17566662Y26445276D01*
X17515000Y26435000D01*
X17145000Y26435000D01*
X17093338Y26445276D01*
X17049541Y26474541D01*
X17020276Y26518338D01*
X17010000Y26570000D01*
X17010000Y26840000D01*
X17020276Y26891662D01*
X17049541Y26935459D01*
X17093338Y26964724D01*
X17145000Y26975000D01*
X17515000Y26975000D01*
X17566662Y26964724D01*
G37*
G36*
X18566662Y26974724D02*
G01*
X18610459Y26945459D01*
X18639724Y26901662D01*
X18650000Y26850000D01*
X18650000Y26580000D01*
X18639724Y26528338D01*
X18610459Y26484541D01*
X18566662Y26455276D01*
X18515000Y26445000D01*
X18145000Y26445000D01*
X18093338Y26455276D01*
X18049541Y26484541D01*
X18020276Y26528338D01*
X18010000Y26580000D01*
X18010000Y26850000D01*
X18020276Y26901662D01*
X18049541Y26945459D01*
X18093338Y26974724D01*
X18145000Y26985000D01*
X18515000Y26985000D01*
X18566662Y26974724D01*
G37*
G36*
X20416418Y27512742D02*
G01*
X20436694Y27499194D01*
X20450242Y27478918D01*
X20455000Y27455000D01*
X20455000Y26705000D01*
X20450242Y26681082D01*
X20436694Y26660806D01*
X20416418Y26647258D01*
X20392500Y26642500D01*
X20267500Y26642500D01*
X20243582Y26647258D01*
X20223306Y26660806D01*
X20209758Y26681082D01*
X20205000Y26705000D01*
X20205000Y27455000D01*
X20209758Y27478918D01*
X20223306Y27499194D01*
X20243582Y27512742D01*
X20267500Y27517500D01*
X20392500Y27517500D01*
X20416418Y27512742D01*
G37*
G36*
X20916418Y27512742D02*
G01*
X20936694Y27499194D01*
X20950242Y27478918D01*
X20955000Y27455000D01*
X20955000Y26705000D01*
X20950242Y26681082D01*
X20936694Y26660806D01*
X20916418Y26647258D01*
X20892500Y26642500D01*
X20767500Y26642500D01*
X20743582Y26647258D01*
X20723306Y26660806D01*
X20709758Y26681082D01*
X20705000Y26705000D01*
X20705000Y27455000D01*
X20709758Y27478918D01*
X20723306Y27499194D01*
X20743582Y27512742D01*
X20767500Y27517500D01*
X20892500Y27517500D01*
X20916418Y27512742D01*
G37*
G36*
X21416418Y27512742D02*
G01*
X21436694Y27499194D01*
X21450242Y27478918D01*
X21455000Y27455000D01*
X21455000Y26705000D01*
X21450242Y26681082D01*
X21436694Y26660806D01*
X21416418Y26647258D01*
X21392500Y26642500D01*
X21267500Y26642500D01*
X21243582Y26647258D01*
X21223306Y26660806D01*
X21209758Y26681082D01*
X21205000Y26705000D01*
X21205000Y27455000D01*
X21209758Y27478918D01*
X21223306Y27499194D01*
X21243582Y27512742D01*
X21267500Y27517500D01*
X21392500Y27517500D01*
X21416418Y27512742D01*
G37*
G36*
X21916418Y27512742D02*
G01*
X21936694Y27499194D01*
X21950242Y27478918D01*
X21955000Y27455000D01*
X21955000Y26705000D01*
X21950242Y26681082D01*
X21936694Y26660806D01*
X21916418Y26647258D01*
X21892500Y26642500D01*
X21767500Y26642500D01*
X21743582Y26647258D01*
X21723306Y26660806D01*
X21709758Y26681082D01*
X21705000Y26705000D01*
X21705000Y27455000D01*
X21709758Y27478918D01*
X21723306Y27499194D01*
X21743582Y27512742D01*
X21767500Y27517500D01*
X21892500Y27517500D01*
X21916418Y27512742D01*
G37*
G36*
X6440676Y27409343D02*
G01*
X6486095Y27378995D01*
X6516443Y27333576D01*
X6527100Y27280000D01*
X6527100Y26940000D01*
X6516443Y26886424D01*
X6486095Y26841005D01*
X6440676Y26810657D01*
X6387100Y26800000D01*
X6107100Y26800000D01*
X6053524Y26810657D01*
X6008105Y26841005D01*
X5977757Y26886424D01*
X5967100Y26940000D01*
X5967100Y27280000D01*
X5977757Y27333576D01*
X6008105Y27378995D01*
X6053524Y27409343D01*
X6107100Y27420000D01*
X6387100Y27420000D01*
X6440676Y27409343D01*
G37*
G36*
X7400676Y27409343D02*
G01*
X7446095Y27378995D01*
X7476443Y27333576D01*
X7487100Y27280000D01*
X7487100Y26940000D01*
X7476443Y26886424D01*
X7446095Y26841005D01*
X7400676Y26810657D01*
X7347100Y26800000D01*
X7067100Y26800000D01*
X7013524Y26810657D01*
X6968105Y26841005D01*
X6937757Y26886424D01*
X6927100Y26940000D01*
X6927100Y27280000D01*
X6937757Y27333576D01*
X6968105Y27378995D01*
X7013524Y27409343D01*
X7067100Y27420000D01*
X7347100Y27420000D01*
X7400676Y27409343D01*
G37*
G36*
X17633946Y28713772D02*
G01*
X17681798Y28681798D01*
X17713772Y28633946D01*
X17725000Y28577500D01*
X17725000Y28232500D01*
X17713772Y28176054D01*
X17681798Y28128202D01*
X17633946Y28096228D01*
X17577500Y28085000D01*
X17282500Y28085000D01*
X17226054Y28096228D01*
X17178202Y28128202D01*
X17146228Y28176054D01*
X17135000Y28232500D01*
X17135000Y28577500D01*
X17146228Y28633946D01*
X17178202Y28681798D01*
X17226054Y28713772D01*
X17282500Y28725000D01*
X17577500Y28725000D01*
X17633946Y28713772D01*
G37*
G36*
X18603946Y28713772D02*
G01*
X18651798Y28681798D01*
X18683772Y28633946D01*
X18695000Y28577500D01*
X18695000Y28232500D01*
X18683772Y28176054D01*
X18651798Y28128202D01*
X18603946Y28096228D01*
X18547500Y28085000D01*
X18252500Y28085000D01*
X18196054Y28096228D01*
X18148202Y28128202D01*
X18116228Y28176054D01*
X18105000Y28232500D01*
X18105000Y28577500D01*
X18116228Y28633946D01*
X18148202Y28681798D01*
X18196054Y28713772D01*
X18252500Y28725000D01*
X18547500Y28725000D01*
X18603946Y28713772D01*
G37*
G36*
X20958946Y28688772D02*
G01*
X21006798Y28656798D01*
X21038772Y28608946D01*
X21050000Y28552500D01*
X21050000Y28257500D01*
X21038772Y28201054D01*
X21006798Y28153202D01*
X20958946Y28121228D01*
X20902500Y28110000D01*
X20557500Y28110000D01*
X20501054Y28121228D01*
X20453202Y28153202D01*
X20421228Y28201054D01*
X20410000Y28257500D01*
X20410000Y28552500D01*
X20421228Y28608946D01*
X20453202Y28656798D01*
X20501054Y28688772D01*
X20557500Y28700000D01*
X20902500Y28700000D01*
X20958946Y28688772D01*
G37*
G36*
X10619903Y29488582D02*
G01*
X10668566Y29456066D01*
X10701082Y29407403D01*
X10712500Y29350000D01*
X10712500Y28325000D01*
X10701082Y28267597D01*
X10668566Y28218934D01*
X10619903Y28186418D01*
X10562500Y28175000D01*
X10262500Y28175000D01*
X10205097Y28186418D01*
X10156434Y28218934D01*
X10123918Y28267597D01*
X10112500Y28325000D01*
X10112500Y29350000D01*
X10123918Y29407403D01*
X10156434Y29456066D01*
X10205097Y29488582D01*
X10262500Y29500000D01*
X10562500Y29500000D01*
X10619903Y29488582D01*
G37*
G36*
X11569903Y29488582D02*
G01*
X11618566Y29456066D01*
X11651082Y29407403D01*
X11662500Y29350000D01*
X11662500Y28325000D01*
X11651082Y28267597D01*
X11618566Y28218934D01*
X11569903Y28186418D01*
X11512500Y28175000D01*
X11212500Y28175000D01*
X11155097Y28186418D01*
X11106434Y28218934D01*
X11073918Y28267597D01*
X11062500Y28325000D01*
X11062500Y29350000D01*
X11073918Y29407403D01*
X11106434Y29456066D01*
X11155097Y29488582D01*
X11212500Y29500000D01*
X11512500Y29500000D01*
X11569903Y29488582D01*
G37*
G36*
X12519903Y29488582D02*
G01*
X12568566Y29456066D01*
X12601082Y29407403D01*
X12612500Y29350000D01*
X12612500Y28325000D01*
X12601082Y28267597D01*
X12568566Y28218934D01*
X12519903Y28186418D01*
X12462500Y28175000D01*
X12162500Y28175000D01*
X12105097Y28186418D01*
X12056434Y28218934D01*
X12023918Y28267597D01*
X12012500Y28325000D01*
X12012500Y29350000D01*
X12023918Y29407403D01*
X12056434Y29456066D01*
X12105097Y29488582D01*
X12162500Y29500000D01*
X12462500Y29500000D01*
X12519903Y29488582D01*
G37*
G36*
X20958946Y29658772D02*
G01*
X21006798Y29626798D01*
X21038772Y29578946D01*
X21050000Y29522500D01*
X21050000Y29227500D01*
X21038772Y29171054D01*
X21006798Y29123202D01*
X20958946Y29091228D01*
X20902500Y29080000D01*
X20557500Y29080000D01*
X20501054Y29091228D01*
X20453202Y29123202D01*
X20421228Y29171054D01*
X20410000Y29227500D01*
X20410000Y29522500D01*
X20421228Y29578946D01*
X20453202Y29626798D01*
X20501054Y29658772D01*
X20557500Y29670000D01*
X20902500Y29670000D01*
X20958946Y29658772D01*
G37*
G36*
X13336662Y30539724D02*
G01*
X13380459Y30510459D01*
X13409724Y30466662D01*
X13420000Y30415000D01*
X13420000Y30145000D01*
X13409724Y30093338D01*
X13380459Y30049541D01*
X13336662Y30020276D01*
X13285000Y30010000D01*
X12915000Y30010000D01*
X12863338Y30020276D01*
X12819541Y30049541D01*
X12790276Y30093338D01*
X12780000Y30145000D01*
X12780000Y30415000D01*
X12790276Y30466662D01*
X12819541Y30510459D01*
X12863338Y30539724D01*
X12915000Y30550000D01*
X13285000Y30550000D01*
X13336662Y30539724D01*
G37*
G36*
X7496662Y31359724D02*
G01*
X7540459Y31330459D01*
X7569724Y31286662D01*
X7580000Y31235000D01*
X7580000Y30865000D01*
X7569724Y30813338D01*
X7540459Y30769541D01*
X7496662Y30740276D01*
X7445000Y30730000D01*
X7175000Y30730000D01*
X7123338Y30740276D01*
X7079541Y30769541D01*
X7050276Y30813338D01*
X7040000Y30865000D01*
X7040000Y31235000D01*
X7050276Y31286662D01*
X7079541Y31330459D01*
X7123338Y31359724D01*
X7175000Y31370000D01*
X7445000Y31370000D01*
X7496662Y31359724D01*
G37*
G36*
X8516662Y31359724D02*
G01*
X8560459Y31330459D01*
X8589724Y31286662D01*
X8600000Y31235000D01*
X8600000Y30865000D01*
X8589724Y30813338D01*
X8560459Y30769541D01*
X8516662Y30740276D01*
X8465000Y30730000D01*
X8195000Y30730000D01*
X8143338Y30740276D01*
X8099541Y30769541D01*
X8070276Y30813338D01*
X8060000Y30865000D01*
X8060000Y31235000D01*
X8070276Y31286662D01*
X8099541Y31330459D01*
X8143338Y31359724D01*
X8195000Y31370000D01*
X8465000Y31370000D01*
X8516662Y31359724D01*
G37*
G36*
X13336662Y31559724D02*
G01*
X13380459Y31530459D01*
X13409724Y31486662D01*
X13420000Y31435000D01*
X13420000Y31165000D01*
X13409724Y31113338D01*
X13380459Y31069541D01*
X13336662Y31040276D01*
X13285000Y31030000D01*
X12915000Y31030000D01*
X12863338Y31040276D01*
X12819541Y31069541D01*
X12790276Y31113338D01*
X12780000Y31165000D01*
X12780000Y31435000D01*
X12790276Y31486662D01*
X12819541Y31530459D01*
X12863338Y31559724D01*
X12915000Y31570000D01*
X13285000Y31570000D01*
X13336662Y31559724D01*
G37*
G36*
X21528744Y33449755D02*
G01*
X21582555Y33447111D01*
X21589178Y33445794D01*
X21603316Y33444867D01*
X21630622Y33437551D01*
X21699100Y33423930D01*
X21731423Y33410541D01*
X21754610Y33404328D01*
X21775401Y33392324D01*
X21807722Y33378936D01*
X21865770Y33340150D01*
X21890257Y33326012D01*
X21896959Y33319310D01*
X21905482Y33313615D01*
X21988614Y33230483D01*
X21994308Y33221961D01*
X22001012Y33215257D01*
X22015151Y33190767D01*
X22053935Y33132723D01*
X22067321Y33100406D01*
X22079328Y33079610D01*
X22085541Y33056420D01*
X22098929Y33024101D01*
X22112548Y32955629D01*
X22119867Y32928316D01*
X22119867Y32918836D01*
X22121866Y32908786D01*
X22121866Y32791215D01*
X22119867Y32781166D01*
X22119867Y32771684D01*
X22112547Y32744369D01*
X22098929Y32675900D01*
X22085542Y32643584D01*
X22079328Y32620390D01*
X22067320Y32599593D01*
X22053935Y32567278D01*
X22015155Y32509241D01*
X22001012Y32484743D01*
X21994306Y32478038D01*
X21988614Y32469518D01*
X21905482Y32386386D01*
X21896962Y32380694D01*
X21890257Y32373988D01*
X21865759Y32359845D01*
X21807722Y32321065D01*
X21775407Y32307680D01*
X21754610Y32295672D01*
X21731416Y32289458D01*
X21699100Y32276071D01*
X21630636Y32262454D01*
X21603316Y32255133D01*
X21589170Y32254206D01*
X21582555Y32252890D01*
X21528749Y32250246D01*
X21525000Y32250000D01*
X21523749Y32250000D01*
X20976251Y32250000D01*
X20975000Y32250000D01*
X20971250Y32250246D01*
X20917444Y32252890D01*
X20910827Y32254206D01*
X20896684Y32255133D01*
X20869366Y32262453D01*
X20800899Y32276071D01*
X20768580Y32289459D01*
X20745390Y32295672D01*
X20724594Y32307679D01*
X20692277Y32321065D01*
X20634233Y32359849D01*
X20609743Y32373988D01*
X20603039Y32380692D01*
X20594517Y32386386D01*
X20511385Y32469518D01*
X20505690Y32478041D01*
X20498988Y32484743D01*
X20484850Y32509230D01*
X20446064Y32567278D01*
X20432676Y32599599D01*
X20420672Y32620390D01*
X20414459Y32643577D01*
X20401070Y32675900D01*
X20387450Y32744375D01*
X20380133Y32771684D01*
X20380133Y32781165D01*
X20378134Y32791215D01*
X20378134Y32908786D01*
X20380133Y32918837D01*
X20380133Y32928316D01*
X20387449Y32955623D01*
X20401070Y33024101D01*
X20414459Y33056427D01*
X20420672Y33079610D01*
X20432674Y33100400D01*
X20446064Y33132723D01*
X20484854Y33190778D01*
X20498988Y33215257D01*
X20505688Y33221958D01*
X20511385Y33230483D01*
X20594517Y33313615D01*
X20603042Y33319312D01*
X20609743Y33326012D01*
X20634222Y33340146D01*
X20692277Y33378936D01*
X20724600Y33392326D01*
X20745390Y33404328D01*
X20768573Y33410541D01*
X20800899Y33423930D01*
X20869380Y33437552D01*
X20896684Y33444867D01*
X20910820Y33445794D01*
X20917444Y33447111D01*
X20971256Y33449755D01*
X20975000Y33450000D01*
X21525000Y33450000D01*
X21528744Y33449755D01*
G37*
G36*
X8367403Y33773582D02*
G01*
X8416066Y33741066D01*
X8448582Y33692403D01*
X8460000Y33635000D01*
X8460000Y32785000D01*
X8448582Y32727597D01*
X8416066Y32678934D01*
X8367403Y32646418D01*
X8310000Y32635000D01*
X8010000Y32635000D01*
X7952597Y32646418D01*
X7903934Y32678934D01*
X7871418Y32727597D01*
X7860000Y32785000D01*
X7860000Y33635000D01*
X7871418Y33692403D01*
X7903934Y33741066D01*
X7952597Y33773582D01*
X8010000Y33785000D01*
X8310000Y33785000D01*
X8367403Y33773582D01*
G37*
G36*
X9167403Y33773582D02*
G01*
X9216066Y33741066D01*
X9248582Y33692403D01*
X9260000Y33635000D01*
X9260000Y32785000D01*
X9248582Y32727597D01*
X9216066Y32678934D01*
X9167403Y32646418D01*
X9110000Y32635000D01*
X8810000Y32635000D01*
X8752597Y32646418D01*
X8703934Y32678934D01*
X8671418Y32727597D01*
X8660000Y32785000D01*
X8660000Y33635000D01*
X8671418Y33692403D01*
X8703934Y33741066D01*
X8752597Y33773582D01*
X8810000Y33785000D01*
X9110000Y33785000D01*
X9167403Y33773582D01*
G37*
G36*
X9713701Y33779291D02*
G01*
X9738033Y33763033D01*
X9754291Y33738701D01*
X9760000Y33710000D01*
X9760000Y32710000D01*
X9754291Y32681299D01*
X9738033Y32656967D01*
X9713701Y32640709D01*
X9685000Y32635000D01*
X9535000Y32635000D01*
X9506299Y32640709D01*
X9481967Y32656967D01*
X9465709Y32681299D01*
X9460000Y32710000D01*
X9460000Y33710000D01*
X9465709Y33738701D01*
X9481967Y33763033D01*
X9506299Y33779291D01*
X9535000Y33785000D01*
X9685000Y33785000D01*
X9713701Y33779291D01*
G37*
G36*
X10213701Y33779291D02*
G01*
X10238033Y33763033D01*
X10254291Y33738701D01*
X10260000Y33710000D01*
X10260000Y32710000D01*
X10254291Y32681299D01*
X10238033Y32656967D01*
X10213701Y32640709D01*
X10185000Y32635000D01*
X10035000Y32635000D01*
X10006299Y32640709D01*
X9981967Y32656967D01*
X9965709Y32681299D01*
X9960000Y32710000D01*
X9960000Y33710000D01*
X9965709Y33738701D01*
X9981967Y33763033D01*
X10006299Y33779291D01*
X10035000Y33785000D01*
X10185000Y33785000D01*
X10213701Y33779291D01*
G37*
G36*
X10713701Y33779291D02*
G01*
X10738033Y33763033D01*
X10754291Y33738701D01*
X10760000Y33710000D01*
X10760000Y32710000D01*
X10754291Y32681299D01*
X10738033Y32656967D01*
X10713701Y32640709D01*
X10685000Y32635000D01*
X10535000Y32635000D01*
X10506299Y32640709D01*
X10481967Y32656967D01*
X10465709Y32681299D01*
X10460000Y32710000D01*
X10460000Y33710000D01*
X10465709Y33738701D01*
X10481967Y33763033D01*
X10506299Y33779291D01*
X10535000Y33785000D01*
X10685000Y33785000D01*
X10713701Y33779291D01*
G37*
G36*
X11213701Y33779291D02*
G01*
X11238033Y33763033D01*
X11254291Y33738701D01*
X11260000Y33710000D01*
X11260000Y32710000D01*
X11254291Y32681299D01*
X11238033Y32656967D01*
X11213701Y32640709D01*
X11185000Y32635000D01*
X11035000Y32635000D01*
X11006299Y32640709D01*
X10981967Y32656967D01*
X10965709Y32681299D01*
X10960000Y32710000D01*
X10960000Y33710000D01*
X10965709Y33738701D01*
X10981967Y33763033D01*
X11006299Y33779291D01*
X11035000Y33785000D01*
X11185000Y33785000D01*
X11213701Y33779291D01*
G37*
G36*
X11713701Y33779291D02*
G01*
X11738033Y33763033D01*
X11754291Y33738701D01*
X11760000Y33710000D01*
X11760000Y32710000D01*
X11754291Y32681299D01*
X11738033Y32656967D01*
X11713701Y32640709D01*
X11685000Y32635000D01*
X11535000Y32635000D01*
X11506299Y32640709D01*
X11481967Y32656967D01*
X11465709Y32681299D01*
X11460000Y32710000D01*
X11460000Y33710000D01*
X11465709Y33738701D01*
X11481967Y33763033D01*
X11506299Y33779291D01*
X11535000Y33785000D01*
X11685000Y33785000D01*
X11713701Y33779291D01*
G37*
G36*
X12213701Y33779291D02*
G01*
X12238033Y33763033D01*
X12254291Y33738701D01*
X12260000Y33710000D01*
X12260000Y32710000D01*
X12254291Y32681299D01*
X12238033Y32656967D01*
X12213701Y32640709D01*
X12185000Y32635000D01*
X12035000Y32635000D01*
X12006299Y32640709D01*
X11981967Y32656967D01*
X11965709Y32681299D01*
X11960000Y32710000D01*
X11960000Y33710000D01*
X11965709Y33738701D01*
X11981967Y33763033D01*
X12006299Y33779291D01*
X12035000Y33785000D01*
X12185000Y33785000D01*
X12213701Y33779291D01*
G37*
G36*
X12713701Y33779291D02*
G01*
X12738033Y33763033D01*
X12754291Y33738701D01*
X12760000Y33710000D01*
X12760000Y32710000D01*
X12754291Y32681299D01*
X12738033Y32656967D01*
X12713701Y32640709D01*
X12685000Y32635000D01*
X12535000Y32635000D01*
X12506299Y32640709D01*
X12481967Y32656967D01*
X12465709Y32681299D01*
X12460000Y32710000D01*
X12460000Y33710000D01*
X12465709Y33738701D01*
X12481967Y33763033D01*
X12506299Y33779291D01*
X12535000Y33785000D01*
X12685000Y33785000D01*
X12713701Y33779291D01*
G37*
G36*
X13213701Y33779291D02*
G01*
X13238033Y33763033D01*
X13254291Y33738701D01*
X13260000Y33710000D01*
X13260000Y32710000D01*
X13254291Y32681299D01*
X13238033Y32656967D01*
X13213701Y32640709D01*
X13185000Y32635000D01*
X13035000Y32635000D01*
X13006299Y32640709D01*
X12981967Y32656967D01*
X12965709Y32681299D01*
X12960000Y32710000D01*
X12960000Y33710000D01*
X12965709Y33738701D01*
X12981967Y33763033D01*
X13006299Y33779291D01*
X13035000Y33785000D01*
X13185000Y33785000D01*
X13213701Y33779291D01*
G37*
G36*
X13967403Y33773582D02*
G01*
X14016066Y33741066D01*
X14048582Y33692403D01*
X14060000Y33635000D01*
X14060000Y32785000D01*
X14048582Y32727597D01*
X14016066Y32678934D01*
X13967403Y32646418D01*
X13910000Y32635000D01*
X13610000Y32635000D01*
X13552597Y32646418D01*
X13503934Y32678934D01*
X13471418Y32727597D01*
X13460000Y32785000D01*
X13460000Y33635000D01*
X13471418Y33692403D01*
X13503934Y33741066D01*
X13552597Y33773582D01*
X13610000Y33785000D01*
X13910000Y33785000D01*
X13967403Y33773582D01*
G37*
G36*
X14767403Y33773582D02*
G01*
X14816066Y33741066D01*
X14848582Y33692403D01*
X14860000Y33635000D01*
X14860000Y32785000D01*
X14848582Y32727597D01*
X14816066Y32678934D01*
X14767403Y32646418D01*
X14710000Y32635000D01*
X14410000Y32635000D01*
X14352597Y32646418D01*
X14303934Y32678934D01*
X14271418Y32727597D01*
X14260000Y32785000D01*
X14260000Y33635000D01*
X14271418Y33692403D01*
X14303934Y33741066D01*
X14352597Y33773582D01*
X14410000Y33785000D01*
X14710000Y33785000D01*
X14767403Y33773582D01*
G37*
G36*
X7231342Y34796940D02*
G01*
X7344381Y34731677D01*
X7436677Y34639381D01*
X7501940Y34526342D01*
X7535722Y34400263D01*
X7540000Y34335000D01*
X7540000Y33235000D01*
X7535722Y33169737D01*
X7501940Y33043658D01*
X7436677Y32930619D01*
X7344381Y32838323D01*
X7231342Y32773060D01*
X7105263Y32739278D01*
X6974737Y32739278D01*
X6848658Y32773060D01*
X6735619Y32838323D01*
X6643323Y32930619D01*
X6578060Y33043658D01*
X6544278Y33169737D01*
X6540000Y33235000D01*
X6540000Y34335000D01*
X6544278Y34400263D01*
X6578060Y34526342D01*
X6643323Y34639381D01*
X6735619Y34731677D01*
X6848658Y34796940D01*
X6974737Y34830722D01*
X7105263Y34830722D01*
X7231342Y34796940D01*
G37*
G36*
X15871342Y34796940D02*
G01*
X15984381Y34731677D01*
X16076677Y34639381D01*
X16141940Y34526342D01*
X16175722Y34400263D01*
X16180000Y34335000D01*
X16180000Y33235000D01*
X16175722Y33169737D01*
X16141940Y33043658D01*
X16076677Y32930619D01*
X15984381Y32838323D01*
X15871342Y32773060D01*
X15745263Y32739278D01*
X15614737Y32739278D01*
X15488658Y32773060D01*
X15375619Y32838323D01*
X15283323Y32930619D01*
X15218060Y33043658D01*
X15184278Y33169737D01*
X15180000Y33235000D01*
X15180000Y34335000D01*
X15184278Y34400263D01*
X15218060Y34526342D01*
X15283323Y34639381D01*
X15375619Y34731677D01*
X15488658Y34796940D01*
X15614737Y34830722D01*
X15745263Y34830722D01*
X15871342Y34796940D01*
G37*
G36*
X8497174Y34605063D02*
G01*
X8526436Y34605063D01*
X8548978Y34596859D01*
X8570237Y34593491D01*
X8600265Y34578191D01*
X8632500Y34566458D01*
X8646735Y34554513D01*
X8660658Y34547419D01*
X8689175Y34518902D01*
X8718964Y34493906D01*
X8725511Y34482566D01*
X8732418Y34475659D01*
X8754345Y34432625D01*
X8775400Y34396157D01*
X8776708Y34388734D01*
X8778490Y34385238D01*
X8788770Y34320332D01*
X8795000Y34285000D01*
X8788769Y34249665D01*
X8778490Y34184763D01*
X8776709Y34181269D01*
X8775400Y34173843D01*
X8754340Y34137369D01*
X8732418Y34094342D01*
X8725512Y34087437D01*
X8718964Y34076094D01*
X8689168Y34051093D01*
X8660658Y34022582D01*
X8646738Y34015490D01*
X8632500Y34003542D01*
X8600258Y33991807D01*
X8570237Y33976510D01*
X8548983Y33973144D01*
X8526436Y33964937D01*
X8497168Y33964937D01*
X8470000Y33960634D01*
X8442832Y33964937D01*
X8413564Y33964937D01*
X8391017Y33973144D01*
X8369762Y33976510D01*
X8339737Y33991809D01*
X8307500Y34003542D01*
X8293262Y34015489D01*
X8279341Y34022582D01*
X8250824Y34051099D01*
X8221036Y34076094D01*
X8214488Y34087435D01*
X8207581Y34094342D01*
X8185650Y34137383D01*
X8164600Y34173843D01*
X8163291Y34181266D01*
X8161509Y34184763D01*
X8151220Y34249721D01*
X8145000Y34285000D01*
X8151220Y34320277D01*
X8161509Y34385238D01*
X8163291Y34388737D01*
X8164600Y34396157D01*
X8185646Y34432610D01*
X8207581Y34475659D01*
X8214489Y34482568D01*
X8221036Y34493906D01*
X8250818Y34518897D01*
X8279341Y34547419D01*
X8293265Y34554515D01*
X8307500Y34566458D01*
X8339731Y34578190D01*
X8369762Y34593491D01*
X8391022Y34596859D01*
X8413564Y34605063D01*
X8442825Y34605063D01*
X8470000Y34609367D01*
X8497174Y34605063D01*
G37*
G36*
X14277174Y34605063D02*
G01*
X14306436Y34605063D01*
X14328978Y34596859D01*
X14350237Y34593491D01*
X14380265Y34578191D01*
X14412500Y34566458D01*
X14426735Y34554513D01*
X14440658Y34547419D01*
X14469175Y34518902D01*
X14498964Y34493906D01*
X14505511Y34482566D01*
X14512418Y34475659D01*
X14534345Y34432625D01*
X14555400Y34396157D01*
X14556708Y34388734D01*
X14558490Y34385238D01*
X14568770Y34320332D01*
X14575000Y34285000D01*
X14568769Y34249665D01*
X14558490Y34184763D01*
X14556709Y34181269D01*
X14555400Y34173843D01*
X14534340Y34137369D01*
X14512418Y34094342D01*
X14505512Y34087437D01*
X14498964Y34076094D01*
X14469168Y34051093D01*
X14440658Y34022582D01*
X14426738Y34015490D01*
X14412500Y34003542D01*
X14380258Y33991807D01*
X14350237Y33976510D01*
X14328983Y33973144D01*
X14306436Y33964937D01*
X14277168Y33964937D01*
X14250000Y33960634D01*
X14222832Y33964937D01*
X14193564Y33964937D01*
X14171017Y33973144D01*
X14149762Y33976510D01*
X14119737Y33991809D01*
X14087500Y34003542D01*
X14073262Y34015489D01*
X14059341Y34022582D01*
X14030824Y34051099D01*
X14001036Y34076094D01*
X13994488Y34087435D01*
X13987581Y34094342D01*
X13965650Y34137383D01*
X13944600Y34173843D01*
X13943291Y34181266D01*
X13941509Y34184763D01*
X13931220Y34249721D01*
X13925000Y34285000D01*
X13931220Y34320277D01*
X13941509Y34385238D01*
X13943291Y34388737D01*
X13944600Y34396157D01*
X13965646Y34432610D01*
X13987581Y34475659D01*
X13994489Y34482568D01*
X14001036Y34493906D01*
X14030818Y34518897D01*
X14059341Y34547419D01*
X14073265Y34554515D01*
X14087500Y34566458D01*
X14119731Y34578190D01*
X14149762Y34593491D01*
X14171022Y34596859D01*
X14193564Y34605063D01*
X14222825Y34605063D01*
X14250000Y34609367D01*
X14277174Y34605063D01*
G37*
G36*
X21528744Y35449755D02*
G01*
X21582555Y35447111D01*
X21589178Y35445794D01*
X21603316Y35444867D01*
X21630622Y35437551D01*
X21699100Y35423930D01*
X21731423Y35410541D01*
X21754610Y35404328D01*
X21775401Y35392324D01*
X21807722Y35378936D01*
X21865770Y35340150D01*
X21890257Y35326012D01*
X21896959Y35319310D01*
X21905482Y35313615D01*
X21988614Y35230483D01*
X21994308Y35221961D01*
X22001012Y35215257D01*
X22015151Y35190767D01*
X22053935Y35132723D01*
X22067321Y35100406D01*
X22079328Y35079610D01*
X22085541Y35056420D01*
X22098929Y35024101D01*
X22112548Y34955629D01*
X22119867Y34928316D01*
X22119867Y34918836D01*
X22121866Y34908786D01*
X22121866Y34791215D01*
X22119867Y34781166D01*
X22119867Y34771684D01*
X22112547Y34744369D01*
X22098929Y34675900D01*
X22085542Y34643584D01*
X22079328Y34620390D01*
X22067320Y34599593D01*
X22053935Y34567278D01*
X22015155Y34509241D01*
X22001012Y34484743D01*
X21994306Y34478038D01*
X21988614Y34469518D01*
X21905482Y34386386D01*
X21896962Y34380694D01*
X21890257Y34373988D01*
X21865759Y34359845D01*
X21807722Y34321065D01*
X21775407Y34307680D01*
X21754610Y34295672D01*
X21731416Y34289458D01*
X21699100Y34276071D01*
X21630636Y34262454D01*
X21603316Y34255133D01*
X21589170Y34254206D01*
X21582555Y34252890D01*
X21528749Y34250246D01*
X21525000Y34250000D01*
X21523749Y34250000D01*
X20976251Y34250000D01*
X20975000Y34250000D01*
X20971250Y34250246D01*
X20917444Y34252890D01*
X20910827Y34254206D01*
X20896684Y34255133D01*
X20869366Y34262453D01*
X20800899Y34276071D01*
X20768580Y34289459D01*
X20745390Y34295672D01*
X20724594Y34307679D01*
X20692277Y34321065D01*
X20634233Y34359849D01*
X20609743Y34373988D01*
X20603039Y34380692D01*
X20594517Y34386386D01*
X20511385Y34469518D01*
X20505690Y34478041D01*
X20498988Y34484743D01*
X20484850Y34509230D01*
X20446064Y34567278D01*
X20432676Y34599599D01*
X20420672Y34620390D01*
X20414459Y34643577D01*
X20401070Y34675900D01*
X20387450Y34744375D01*
X20380133Y34771684D01*
X20380133Y34781165D01*
X20378134Y34791215D01*
X20378134Y34908786D01*
X20380133Y34918837D01*
X20380133Y34928316D01*
X20387449Y34955623D01*
X20401070Y35024101D01*
X20414459Y35056427D01*
X20420672Y35079610D01*
X20432674Y35100400D01*
X20446064Y35132723D01*
X20484854Y35190778D01*
X20498988Y35215257D01*
X20505688Y35221958D01*
X20511385Y35230483D01*
X20594517Y35313615D01*
X20603042Y35319312D01*
X20609743Y35326012D01*
X20634222Y35340146D01*
X20692277Y35378936D01*
X20724600Y35392326D01*
X20745390Y35404328D01*
X20768573Y35410541D01*
X20800899Y35423930D01*
X20869380Y35437552D01*
X20896684Y35444867D01*
X20910820Y35445794D01*
X20917444Y35447111D01*
X20971256Y35449755D01*
X20975000Y35450000D01*
X21525000Y35450000D01*
X21528744Y35449755D01*
G37*
G36*
X3197680Y37345304D02*
G01*
X3246862Y37345304D01*
X3301632Y37335066D01*
X3354845Y37329825D01*
X3395268Y37317563D01*
X3437283Y37309709D01*
X3495474Y37287166D01*
X3551818Y37270074D01*
X3584009Y37252868D01*
X3617931Y37239726D01*
X3676876Y37203229D01*
X3733349Y37173043D01*
X3757075Y37153572D01*
X3782634Y37137746D01*
X3839263Y37086121D01*
X3892462Y37042462D01*
X3908228Y37023252D01*
X3925800Y37007232D01*
X3976810Y36939683D01*
X4023043Y36883349D01*
X4031983Y36866623D01*
X4042542Y36852641D01*
X4084541Y36768294D01*
X4120074Y36701818D01*
X4123864Y36689324D01*
X4128891Y36679228D01*
X4158590Y36574846D01*
X4179825Y36504845D01*
X4180522Y36497764D01*
X4181908Y36492894D01*
X4196315Y36337414D01*
X4200000Y36300000D01*
X4196314Y36262584D01*
X4181908Y36107107D01*
X4180522Y36102238D01*
X4179825Y36095155D01*
X4158585Y36025139D01*
X4128891Y35920773D01*
X4123865Y35910680D01*
X4120074Y35898182D01*
X4084534Y35831693D01*
X4042542Y35747360D01*
X4031985Y35733381D01*
X4023043Y35716651D01*
X3976801Y35660306D01*
X3925800Y35592769D01*
X3908231Y35576753D01*
X3892462Y35557538D01*
X3839252Y35513871D01*
X3782634Y35462255D01*
X3757080Y35446433D01*
X3733349Y35426957D01*
X3676865Y35396766D01*
X3617931Y35360275D01*
X3584016Y35347137D01*
X3551818Y35329926D01*
X3495463Y35312831D01*
X3437283Y35290292D01*
X3395275Y35282440D01*
X3354845Y35270175D01*
X3301629Y35264934D01*
X3246862Y35254696D01*
X3197680Y35254696D01*
X3150000Y35250000D01*
X3102320Y35254696D01*
X3053138Y35254696D01*
X2998369Y35264934D01*
X2945155Y35270175D01*
X2904726Y35282439D01*
X2862716Y35290292D01*
X2804532Y35312833D01*
X2748182Y35329926D01*
X2715986Y35347136D01*
X2682068Y35360275D01*
X2623127Y35396770D01*
X2566651Y35426957D01*
X2542922Y35446431D01*
X2517365Y35462255D01*
X2460737Y35513879D01*
X2407538Y35557538D01*
X2391771Y35576750D01*
X2374199Y35592769D01*
X2323186Y35660321D01*
X2276957Y35716651D01*
X2268017Y35733377D01*
X2257457Y35747360D01*
X2215450Y35831721D01*
X2179926Y35898182D01*
X2176136Y35910675D01*
X2171108Y35920773D01*
X2141397Y36025193D01*
X2120175Y36095155D01*
X2119477Y36102233D01*
X2118091Y36107107D01*
X2103668Y36262756D01*
X2100000Y36300000D01*
X2103667Y36337242D01*
X2118091Y36492894D01*
X2119478Y36497770D01*
X2120175Y36504845D01*
X2141393Y36574793D01*
X2171108Y36679228D01*
X2176137Y36689329D01*
X2179926Y36701818D01*
X2215443Y36768267D01*
X2257457Y36852641D01*
X2268019Y36866628D01*
X2276957Y36883349D01*
X2323176Y36939668D01*
X2374199Y37007232D01*
X2391774Y37023255D01*
X2407538Y37042462D01*
X2460726Y37086113D01*
X2517365Y37137746D01*
X2542927Y37153574D01*
X2566651Y37173043D01*
X2623115Y37203225D01*
X2682068Y37239726D01*
X2715993Y37252869D01*
X2748182Y37270074D01*
X2804520Y37287165D01*
X2862716Y37309709D01*
X2904732Y37317564D01*
X2945155Y37329825D01*
X2998366Y37335066D01*
X3053138Y37345304D01*
X3102320Y37345304D01*
X3150000Y37350000D01*
X3197680Y37345304D01*
G37*
G36*
X27047680Y37495304D02*
G01*
X27096862Y37495304D01*
X27151632Y37485066D01*
X27204845Y37479825D01*
X27245268Y37467563D01*
X27287283Y37459709D01*
X27345474Y37437166D01*
X27401818Y37420074D01*
X27434009Y37402868D01*
X27467931Y37389726D01*
X27526876Y37353229D01*
X27583349Y37323043D01*
X27607075Y37303572D01*
X27632634Y37287746D01*
X27689263Y37236121D01*
X27742462Y37192462D01*
X27758228Y37173252D01*
X27775800Y37157232D01*
X27826810Y37089683D01*
X27873043Y37033349D01*
X27881983Y37016623D01*
X27892542Y37002641D01*
X27934541Y36918294D01*
X27970074Y36851818D01*
X27973864Y36839324D01*
X27978891Y36829228D01*
X28008590Y36724846D01*
X28029825Y36654845D01*
X28030522Y36647764D01*
X28031908Y36642894D01*
X28046315Y36487414D01*
X28050000Y36450000D01*
X28046314Y36412584D01*
X28031908Y36257107D01*
X28030522Y36252238D01*
X28029825Y36245155D01*
X28008585Y36175139D01*
X27978891Y36070773D01*
X27973865Y36060680D01*
X27970074Y36048182D01*
X27934534Y35981693D01*
X27892542Y35897360D01*
X27881985Y35883381D01*
X27873043Y35866651D01*
X27826801Y35810306D01*
X27775800Y35742769D01*
X27758231Y35726753D01*
X27742462Y35707538D01*
X27689252Y35663871D01*
X27632634Y35612255D01*
X27607080Y35596433D01*
X27583349Y35576957D01*
X27526865Y35546766D01*
X27467931Y35510275D01*
X27434016Y35497137D01*
X27401818Y35479926D01*
X27345463Y35462831D01*
X27287283Y35440292D01*
X27245275Y35432440D01*
X27204845Y35420175D01*
X27151629Y35414934D01*
X27096862Y35404696D01*
X27047680Y35404696D01*
X27000000Y35400000D01*
X26952320Y35404696D01*
X26903138Y35404696D01*
X26848369Y35414934D01*
X26795155Y35420175D01*
X26754726Y35432439D01*
X26712716Y35440292D01*
X26654532Y35462833D01*
X26598182Y35479926D01*
X26565986Y35497136D01*
X26532068Y35510275D01*
X26473127Y35546770D01*
X26416651Y35576957D01*
X26392922Y35596431D01*
X26367365Y35612255D01*
X26310737Y35663879D01*
X26257538Y35707538D01*
X26241771Y35726750D01*
X26224199Y35742769D01*
X26173186Y35810321D01*
X26126957Y35866651D01*
X26118017Y35883377D01*
X26107457Y35897360D01*
X26065450Y35981721D01*
X26029926Y36048182D01*
X26026136Y36060675D01*
X26021108Y36070773D01*
X25991397Y36175193D01*
X25970175Y36245155D01*
X25969477Y36252233D01*
X25968091Y36257107D01*
X25953668Y36412756D01*
X25950000Y36450000D01*
X25953667Y36487242D01*
X25968091Y36642894D01*
X25969478Y36647770D01*
X25970175Y36654845D01*
X25991393Y36724793D01*
X26021108Y36829228D01*
X26026137Y36839329D01*
X26029926Y36851818D01*
X26065443Y36918267D01*
X26107457Y37002641D01*
X26118019Y37016628D01*
X26126957Y37033349D01*
X26173176Y37089668D01*
X26224199Y37157232D01*
X26241774Y37173255D01*
X26257538Y37192462D01*
X26310726Y37236113D01*
X26367365Y37287746D01*
X26392927Y37303574D01*
X26416651Y37323043D01*
X26473115Y37353225D01*
X26532068Y37389726D01*
X26565993Y37402869D01*
X26598182Y37420074D01*
X26654520Y37437165D01*
X26712716Y37459709D01*
X26754732Y37467564D01*
X26795155Y37479825D01*
X26848366Y37485066D01*
X26903138Y37495304D01*
X26952320Y37495304D01*
X27000000Y37500000D01*
X27047680Y37495304D01*
G37*
G36*
X21879116Y37449182D02*
G01*
X21930379Y37443234D01*
X21947892Y37435501D01*
X21970671Y37430970D01*
X21995057Y37414676D01*
X22015788Y37405522D01*
X22029946Y37391364D01*
X22051777Y37376777D01*
X22066363Y37354947D01*
X22080521Y37340789D01*
X22089673Y37320061D01*
X22105970Y37295671D01*
X22110501Y37272891D01*
X22118233Y37255380D01*
X22124178Y37204128D01*
X22125000Y37200000D01*
X22125000Y36500000D01*
X22124178Y36495872D01*
X22118233Y36444621D01*
X22110501Y36427112D01*
X22105970Y36404329D01*
X22089672Y36379938D01*
X22080521Y36359212D01*
X22066365Y36345057D01*
X22051777Y36323223D01*
X22029943Y36308635D01*
X22015788Y36294479D01*
X21995062Y36285328D01*
X21970671Y36269030D01*
X21947888Y36264499D01*
X21930379Y36256767D01*
X21879129Y36250822D01*
X21875000Y36250000D01*
X20625000Y36250000D01*
X20620873Y36250821D01*
X20569620Y36256767D01*
X20552109Y36264499D01*
X20529329Y36269030D01*
X20504939Y36285327D01*
X20484211Y36294479D01*
X20470053Y36308637D01*
X20448223Y36323223D01*
X20433636Y36345054D01*
X20419478Y36359212D01*
X20410324Y36379943D01*
X20394030Y36404329D01*
X20389499Y36427108D01*
X20381766Y36444621D01*
X20375818Y36495883D01*
X20375000Y36500000D01*
X20375000Y37200000D01*
X20375818Y37204115D01*
X20381766Y37255380D01*
X20389499Y37272895D01*
X20394030Y37295671D01*
X20410323Y37320056D01*
X20419478Y37340789D01*
X20433638Y37354950D01*
X20448223Y37376777D01*
X20470050Y37391362D01*
X20484211Y37405522D01*
X20504944Y37414677D01*
X20529329Y37430970D01*
X20552105Y37435501D01*
X20569620Y37443234D01*
X20620884Y37449182D01*
X20625000Y37450000D01*
X21875000Y37450000D01*
X21879116Y37449182D01*
G37*
G36*
X7231342Y38826940D02*
G01*
X7344381Y38761677D01*
X7436677Y38669381D01*
X7501940Y38556342D01*
X7535722Y38430263D01*
X7540000Y38365000D01*
X7540000Y37565000D01*
X7535722Y37499737D01*
X7501940Y37373658D01*
X7436677Y37260619D01*
X7344381Y37168323D01*
X7231342Y37103060D01*
X7105263Y37069278D01*
X6974737Y37069278D01*
X6848658Y37103060D01*
X6735619Y37168323D01*
X6643323Y37260619D01*
X6578060Y37373658D01*
X6544278Y37499737D01*
X6540000Y37565000D01*
X6540000Y38365000D01*
X6544278Y38430263D01*
X6578060Y38556342D01*
X6643323Y38669381D01*
X6735619Y38761677D01*
X6848658Y38826940D01*
X6974737Y38860722D01*
X7105263Y38860722D01*
X7231342Y38826940D01*
G37*
G36*
X15871342Y38826940D02*
G01*
X15984381Y38761677D01*
X16076677Y38669381D01*
X16141940Y38556342D01*
X16175722Y38430263D01*
X16180000Y38365000D01*
X16180000Y37565000D01*
X16175722Y37499737D01*
X16141940Y37373658D01*
X16076677Y37260619D01*
X15984381Y37168323D01*
X15871342Y37103060D01*
X15745263Y37069278D01*
X15614737Y37069278D01*
X15488658Y37103060D01*
X15375619Y37168323D01*
X15283323Y37260619D01*
X15218060Y37373658D01*
X15184278Y37499737D01*
X15180000Y37565000D01*
X15180000Y38365000D01*
X15184278Y38430263D01*
X15218060Y38556342D01*
X15283323Y38669381D01*
X15375619Y38761677D01*
X15488658Y38826940D01*
X15614737Y38860722D01*
X15745263Y38860722D01*
X15871342Y38826940D01*
G37*
M02*
