%TF.GenerationSoftware,KiCad,Pcbnew,8.0.4*%
%TF.CreationDate,2024-11-22T16:24:22-05:00*%
%TF.ProjectId,stm32wb_base,73746d33-3277-4625-9f62-6173652e6b69,rev?*%
%TF.SameCoordinates,PX6422c40PY66c2270*%
%TF.FileFunction,Copper,L1,Top*%
%TF.FilePolarity,Positive*%
%FSLAX46Y46*%
G04 Gerber Fmt 4.6, Leading zero omitted, Abs format (unit mm)*
G04 Created by KiCad (PCBNEW 8.0.4) date 2024-11-22 16:24:22*
%MOMM*%
%LPD*%
G01*
G04 APERTURE LIST*
G04 Aperture macros list*
%AMRoundRect*
0 Rectangle with rounded corners*
0 $1 Rounding radius*
0 $2 $3 $4 $5 $6 $7 $8 $9 X,Y pos of 4 corners*
0 Add a 4 corners polygon primitive as box body*
4,1,4,$2,$3,$4,$5,$6,$7,$8,$9,$2,$3,0*
0 Add four circle primitives for the rounded corners*
1,1,$1+$1,$2,$3*
1,1,$1+$1,$4,$5*
1,1,$1+$1,$6,$7*
1,1,$1+$1,$8,$9*
0 Add four rect primitives between the rounded corners*
20,1,$1+$1,$2,$3,$4,$5,0*
20,1,$1+$1,$4,$5,$6,$7,0*
20,1,$1+$1,$6,$7,$8,$9,0*
20,1,$1+$1,$8,$9,$2,$3,0*%
G04 Aperture macros list end*
%TA.AperFunction,SMDPad,CuDef*%
%ADD10R,0.900000X0.800000*%
%TD*%
%TA.AperFunction,SMDPad,CuDef*%
%ADD11R,1.100000X0.600000*%
%TD*%
%TA.AperFunction,SMDPad,CuDef*%
%ADD12RoundRect,0.062500X-0.375000X-0.062500X0.375000X-0.062500X0.375000X0.062500X-0.375000X0.062500X0*%
%TD*%
%TA.AperFunction,SMDPad,CuDef*%
%ADD13RoundRect,0.062500X-0.062500X-0.375000X0.062500X-0.375000X0.062500X0.375000X-0.062500X0.375000X0*%
%TD*%
%TA.AperFunction,HeatsinkPad*%
%ADD14R,5.600000X5.600000*%
%TD*%
%TA.AperFunction,SMDPad,CuDef*%
%ADD15RoundRect,0.135000X0.185000X-0.135000X0.185000X0.135000X-0.185000X0.135000X-0.185000X-0.135000X0*%
%TD*%
%TA.AperFunction,ComponentPad*%
%ADD16O,1.000000X1.800000*%
%TD*%
%TA.AperFunction,ComponentPad*%
%ADD17O,1.000000X2.100000*%
%TD*%
%TA.AperFunction,SMDPad,CuDef*%
%ADD18RoundRect,0.150000X0.150000X0.425000X-0.150000X0.425000X-0.150000X-0.425000X0.150000X-0.425000X0*%
%TD*%
%TA.AperFunction,SMDPad,CuDef*%
%ADD19RoundRect,0.075000X0.075000X0.500000X-0.075000X0.500000X-0.075000X-0.500000X0.075000X-0.500000X0*%
%TD*%
%TA.AperFunction,SMDPad,CuDef*%
%ADD20R,0.300000X0.750000*%
%TD*%
%TA.AperFunction,SMDPad,CuDef*%
%ADD21R,1.450000X1.750000*%
%TD*%
%TA.AperFunction,SMDPad,CuDef*%
%ADD22RoundRect,0.135000X-0.185000X0.135000X-0.185000X-0.135000X0.185000X-0.135000X0.185000X0.135000X0*%
%TD*%
%TA.AperFunction,SMDPad,CuDef*%
%ADD23RoundRect,0.140000X0.140000X0.170000X-0.140000X0.170000X-0.140000X-0.170000X0.140000X-0.170000X0*%
%TD*%
%TA.AperFunction,SMDPad,CuDef*%
%ADD24RoundRect,0.147500X-0.147500X-0.172500X0.147500X-0.172500X0.147500X0.172500X-0.147500X0.172500X0*%
%TD*%
%TA.AperFunction,ComponentPad*%
%ADD25RoundRect,0.250000X-0.625000X0.350000X-0.625000X-0.350000X0.625000X-0.350000X0.625000X0.350000X0*%
%TD*%
%TA.AperFunction,ComponentPad*%
%ADD26O,1.750000X1.200000*%
%TD*%
%TA.AperFunction,SMDPad,CuDef*%
%ADD27RoundRect,0.140000X-0.170000X0.140000X-0.170000X-0.140000X0.170000X-0.140000X0.170000X0.140000X0*%
%TD*%
%TA.AperFunction,SMDPad,CuDef*%
%ADD28RoundRect,0.061250X-0.061250X-0.163750X0.061250X-0.163750X0.061250X0.163750X-0.061250X0.163750X0*%
%TD*%
%TA.AperFunction,SMDPad,CuDef*%
%ADD29RoundRect,0.068750X-0.281250X0.068750X-0.281250X-0.068750X0.281250X-0.068750X0.281250X0.068750X0*%
%TD*%
%TA.AperFunction,ComponentPad*%
%ADD30R,1.700000X1.700000*%
%TD*%
%TA.AperFunction,ComponentPad*%
%ADD31O,1.700000X1.700000*%
%TD*%
%TA.AperFunction,SMDPad,CuDef*%
%ADD32RoundRect,0.140000X0.170000X-0.140000X0.170000X0.140000X-0.170000X0.140000X-0.170000X-0.140000X0*%
%TD*%
%TA.AperFunction,SMDPad,CuDef*%
%ADD33R,1.500000X1.500000*%
%TD*%
%TA.AperFunction,SMDPad,CuDef*%
%ADD34RoundRect,0.140000X-0.140000X-0.170000X0.140000X-0.170000X0.140000X0.170000X-0.140000X0.170000X0*%
%TD*%
%TA.AperFunction,SMDPad,CuDef*%
%ADD35RoundRect,0.147500X0.147500X0.172500X-0.147500X0.172500X-0.147500X-0.172500X0.147500X-0.172500X0*%
%TD*%
%TA.AperFunction,SMDPad,CuDef*%
%ADD36RoundRect,0.147500X-0.172500X0.147500X-0.172500X-0.147500X0.172500X-0.147500X0.172500X0.147500X0*%
%TD*%
%TA.AperFunction,SMDPad,CuDef*%
%ADD37RoundRect,0.135000X0.135000X0.185000X-0.135000X0.185000X-0.135000X-0.185000X0.135000X-0.185000X0*%
%TD*%
%TA.AperFunction,SMDPad,CuDef*%
%ADD38RoundRect,0.135000X-0.135000X-0.185000X0.135000X-0.185000X0.135000X0.185000X-0.135000X0.185000X0*%
%TD*%
%TA.AperFunction,SMDPad,CuDef*%
%ADD39RoundRect,0.147500X0.172500X-0.147500X0.172500X0.147500X-0.172500X0.147500X-0.172500X-0.147500X0*%
%TD*%
%TA.AperFunction,SMDPad,CuDef*%
%ADD40RoundRect,0.218750X-0.218750X-0.381250X0.218750X-0.381250X0.218750X0.381250X-0.218750X0.381250X0*%
%TD*%
%TA.AperFunction,SMDPad,CuDef*%
%ADD41RoundRect,0.062500X0.375000X0.062500X-0.375000X0.062500X-0.375000X-0.062500X0.375000X-0.062500X0*%
%TD*%
%TA.AperFunction,SMDPad,CuDef*%
%ADD42RoundRect,0.062500X0.062500X0.375000X-0.062500X0.375000X-0.062500X-0.375000X0.062500X-0.375000X0*%
%TD*%
%TA.AperFunction,HeatsinkPad*%
%ADD43R,1.600000X1.600000*%
%TD*%
%TA.AperFunction,SMDPad,CuDef*%
%ADD44RoundRect,0.150000X-0.150000X0.512500X-0.150000X-0.512500X0.150000X-0.512500X0.150000X0.512500X0*%
%TD*%
%TA.AperFunction,SMDPad,CuDef*%
%ADD45RoundRect,0.250000X-0.275000X0.850000X-0.275000X-0.850000X0.275000X-0.850000X0.275000X0.850000X0*%
%TD*%
%TA.AperFunction,SMDPad,CuDef*%
%ADD46RoundRect,0.250000X-0.250000X0.275000X-0.250000X-0.275000X0.250000X-0.275000X0.250000X0.275000X0*%
%TD*%
%TA.AperFunction,SMDPad,CuDef*%
%ADD47RoundRect,0.076200X0.076200X0.190500X-0.076200X0.190500X-0.076200X-0.190500X0.076200X-0.190500X0*%
%TD*%
%TA.AperFunction,SMDPad,CuDef*%
%ADD48RoundRect,0.076200X0.190500X-0.076200X0.190500X0.076200X-0.190500X0.076200X-0.190500X-0.076200X0*%
%TD*%
%TA.AperFunction,ViaPad*%
%ADD49C,0.610000*%
%TD*%
%TA.AperFunction,ViaPad*%
%ADD50C,0.457200*%
%TD*%
%TA.AperFunction,ViaPad*%
%ADD51C,0.406400*%
%TD*%
%TA.AperFunction,Conductor*%
%ADD52C,0.304800*%
%TD*%
%TA.AperFunction,Conductor*%
%ADD53C,0.508000*%
%TD*%
%TA.AperFunction,Conductor*%
%ADD54C,0.250000*%
%TD*%
%TA.AperFunction,Conductor*%
%ADD55C,0.254000*%
%TD*%
%TA.AperFunction,Conductor*%
%ADD56C,0.152400*%
%TD*%
G04 APERTURE END LIST*
D10*
%TO.P,Y1,1,1*%
%TO.N,HSE_OUT*%
X17950000Y10980000D03*
%TO.P,Y1,2,2*%
%TO.N,GND*%
X19350000Y10980000D03*
%TO.P,Y1,3,3*%
%TO.N,HSE_IN*%
X19350000Y12080000D03*
%TO.P,Y1,4,4*%
%TO.N,GND*%
X17950000Y12080000D03*
%TD*%
D11*
%TO.P,Y2,1,1*%
%TO.N,LSE_OUT*%
X5680000Y18430000D03*
%TO.P,Y2,2,2*%
%TO.N,LSE_IN*%
X5680000Y19830000D03*
%TD*%
D12*
%TO.P,U1,1,VBAT*%
%TO.N,+3V3*%
X9262500Y18800000D03*
%TO.P,U1,2,PC14*%
%TO.N,LSE_IN*%
X9262500Y18300000D03*
%TO.P,U1,3,PC15*%
%TO.N,LSE_OUT*%
X9262500Y17800000D03*
%TO.P,U1,4,PH3*%
%TO.N,BL*%
X9262500Y17300000D03*
%TO.P,U1,5,PB8*%
%TO.N,SCL*%
X9262500Y16800000D03*
%TO.P,U1,6,PB9*%
%TO.N,SDA*%
X9262500Y16300000D03*
%TO.P,U1,7,NRST*%
%TO.N,unconnected-(U1-NRST-Pad7)*%
X9262500Y15800000D03*
%TO.P,U1,8,VDDA*%
%TO.N,+3V3*%
X9262500Y15300000D03*
%TO.P,U1,9,PA0*%
%TO.N,unconnected-(U1-PA0-Pad9)*%
X9262500Y14800000D03*
%TO.P,U1,10,PA1*%
%TO.N,unconnected-(U1-PA1-Pad10)*%
X9262500Y14300000D03*
%TO.P,U1,11,PA2*%
%TO.N,unconnected-(U1-PA2-Pad11)*%
X9262500Y13800000D03*
%TO.P,U1,12,PA3*%
%TO.N,unconnected-(U1-PA3-Pad12)*%
X9262500Y13300000D03*
D13*
%TO.P,U1,13,PA4*%
%TO.N,unconnected-(U1-PA4-Pad13)*%
X9950000Y12612500D03*
%TO.P,U1,14,PA5*%
%TO.N,unconnected-(U1-PA5-Pad14)*%
X10450000Y12612500D03*
%TO.P,U1,15,PA6*%
%TO.N,unconnected-(U1-PA6-Pad15)*%
X10950000Y12612500D03*
%TO.P,U1,16,PA7*%
%TO.N,unconnected-(U1-PA7-Pad16)*%
X11450000Y12612500D03*
%TO.P,U1,17,PA8*%
%TO.N,unconnected-(U1-PA8-Pad17)*%
X11950000Y12612500D03*
%TO.P,U1,18,PA9*%
%TO.N,unconnected-(U1-PA9-Pad18)*%
X12450000Y12612500D03*
%TO.P,U1,19,PB2*%
%TO.N,unconnected-(U1-PB2-Pad19)*%
X12950000Y12612500D03*
%TO.P,U1,20,VDD*%
%TO.N,+3V3*%
X13450000Y12612500D03*
%TO.P,U1,21,RF1*%
%TO.N,RF*%
X13950000Y12612500D03*
%TO.P,U1,22,VSSRF*%
%TO.N,GND*%
X14450000Y12612500D03*
%TO.P,U1,23,VDDRF*%
%TO.N,+3V3*%
X14950000Y12612500D03*
%TO.P,U1,24,OSC_OUT*%
%TO.N,HSE_OUT*%
X15450000Y12612500D03*
D12*
%TO.P,U1,25,OSC_IN*%
%TO.N,HSE_IN*%
X16137500Y13300000D03*
%TO.P,U1,26,AT0*%
%TO.N,unconnected-(U1-AT0-Pad26)*%
X16137500Y13800000D03*
%TO.P,U1,27,AT1*%
%TO.N,unconnected-(U1-AT1-Pad27)*%
X16137500Y14300000D03*
%TO.P,U1,28,PB0*%
%TO.N,unconnected-(U1-PB0-Pad28)*%
X16137500Y14800000D03*
%TO.P,U1,29,PB1*%
%TO.N,unconnected-(U1-PB1-Pad29)*%
X16137500Y15300000D03*
%TO.P,U1,30,PE4*%
%TO.N,unconnected-(U1-PE4-Pad30)*%
X16137500Y15800000D03*
%TO.P,U1,31,VFBSMPS*%
%TO.N,GND*%
X16137500Y16300000D03*
%TO.P,U1,32,VSSSMPS*%
X16137500Y16800000D03*
%TO.P,U1,33,VLXSMPS*%
%TO.N,Net-(U1-VLXSMPS)*%
X16137500Y17300000D03*
%TO.P,U1,34,VDDSMPS*%
%TO.N,+3V3*%
X16137500Y17800000D03*
%TO.P,U1,35,VDD*%
X16137500Y18300000D03*
%TO.P,U1,36,PA10*%
%TO.N,unconnected-(U1-PA10-Pad36)*%
X16137500Y18800000D03*
D13*
%TO.P,U1,37,PA11*%
%TO.N,USB_D-*%
X15450000Y19487500D03*
%TO.P,U1,38,PA12*%
%TO.N,USB_D+*%
X14950000Y19487500D03*
%TO.P,U1,39,PA13*%
%TO.N,SWDIO*%
X14450000Y19487500D03*
%TO.P,U1,40,VDDUSB*%
%TO.N,+3V3*%
X13950000Y19487500D03*
%TO.P,U1,41,PA14*%
%TO.N,SWDCLK*%
X13450000Y19487500D03*
%TO.P,U1,42,PA15*%
%TO.N,unconnected-(U1-PA15-Pad42)*%
X12950000Y19487500D03*
%TO.P,U1,43,PB3*%
%TO.N,unconnected-(U1-PB3-Pad43)*%
X12450000Y19487500D03*
%TO.P,U1,44,PB4*%
%TO.N,unconnected-(U1-PB4-Pad44)*%
X11950000Y19487500D03*
%TO.P,U1,45,PB5*%
%TO.N,unconnected-(U1-PB5-Pad45)*%
X11450000Y19487500D03*
%TO.P,U1,46,PB6*%
%TO.N,IMU_INT2*%
X10950000Y19487500D03*
%TO.P,U1,47,PB7*%
%TO.N,IMU_INT1*%
X10450000Y19487500D03*
%TO.P,U1,48,VDD*%
%TO.N,+3V3*%
X9950000Y19487500D03*
D14*
%TO.P,U1,49,VSS*%
%TO.N,GND*%
X12700000Y16050000D03*
%TD*%
D15*
%TO.P,R11,1*%
%TO.N,GND*%
X21330000Y21985000D03*
%TO.P,R11,2*%
%TO.N,Net-(U4-ITERM)*%
X21330000Y23005000D03*
%TD*%
D16*
%TO.P,J3,S1,SHIELD*%
%TO.N,GND*%
X7040000Y37965000D03*
D17*
X7040000Y33785000D03*
D16*
X15680000Y37965000D03*
D17*
X15680000Y33785000D03*
D18*
%TO.P,J3,B12,GND*%
X14560000Y33210000D03*
%TO.P,J3,B9,VBUS*%
%TO.N,VBUS*%
X13760000Y33210000D03*
D19*
%TO.P,J3,B8,SBU2*%
%TO.N,unconnected-(J3-SBU2-PadB8)*%
X13110000Y33210000D03*
%TO.P,J3,B7,D-*%
%TO.N,Net-(J3-D--PadA7)*%
X12110000Y33210000D03*
%TO.P,J3,B6,D+*%
%TO.N,Net-(J3-D+-PadA6)*%
X10610000Y33210000D03*
%TO.P,J3,B5,CC2*%
%TO.N,Net-(J3-CC2)*%
X9610000Y33210000D03*
D18*
%TO.P,J3,B4,VBUS*%
%TO.N,VBUS*%
X8960000Y33210000D03*
%TO.P,J3,B1,GND*%
%TO.N,GND*%
X8160000Y33210000D03*
%TO.P,J3,A12,GND*%
X8160000Y33210000D03*
%TO.P,J3,A9,VBUS*%
%TO.N,VBUS*%
X8960000Y33210000D03*
D19*
%TO.P,J3,A8,SBU1*%
%TO.N,unconnected-(J3-SBU1-PadA8)*%
X10110000Y33210000D03*
%TO.P,J3,A7,D-*%
%TO.N,Net-(J3-D--PadA7)*%
X11110000Y33210000D03*
%TO.P,J3,A6,D+*%
%TO.N,Net-(J3-D+-PadA6)*%
X11610000Y33210000D03*
%TO.P,J3,A5,CC1*%
%TO.N,Net-(J3-CC1)*%
X12610000Y33210000D03*
D18*
%TO.P,J3,A4,VBUS*%
%TO.N,VBUS*%
X13760000Y33210000D03*
%TO.P,J3,A1,GND*%
%TO.N,GND*%
X14560000Y33210000D03*
%TD*%
D20*
%TO.P,U5,1,Vfb*%
%TO.N,Net-(U5-Vfb)*%
X27187500Y21102500D03*
%TO.P,U5,2,V_{CC}*%
%TO.N,Net-(U5-V_{CC})*%
X26687500Y21102500D03*
%TO.P,U5,3,EN*%
%TO.N,Pwr Pth*%
X26187500Y21102500D03*
%TO.P,U5,4,V_{IN}*%
X25687500Y21102500D03*
%TO.P,U5,5,GND*%
%TO.N,GND*%
X25687500Y18202500D03*
%TO.P,U5,6,SW*%
%TO.N,Net-(U5-SW)*%
X26187500Y18202500D03*
%TO.P,U5,7,BOOST*%
%TO.N,Net-(U5-BOOST)*%
X26687500Y18202500D03*
%TO.P,U5,8,GND*%
%TO.N,GND*%
X27187500Y18202500D03*
D21*
%TO.P,U5,9,GND*%
X26437500Y19652500D03*
%TD*%
D22*
%TO.P,R12,1*%
%TO.N,Net-(U5-Vfb)*%
X28100000Y16810000D03*
%TO.P,R12,2*%
%TO.N,+3V3*%
X28100000Y15790000D03*
%TD*%
D23*
%TO.P,C1,1*%
%TO.N,+3V3*%
X26880000Y13790000D03*
%TO.P,C1,2*%
%TO.N,GND*%
X25920000Y13790000D03*
%TD*%
D24*
%TO.P,L1,1,1*%
%TO.N,Net-(U1-VLXSMPS)*%
X17460000Y16950000D03*
%TO.P,L1,2,2*%
%TO.N,Net-(L1-Pad2)*%
X18430000Y16950000D03*
%TD*%
%TO.P,L4,1,1*%
%TO.N,Net-(U5-SW)*%
X25930000Y15890000D03*
%TO.P,L4,2,2*%
%TO.N,+3V3*%
X26900000Y15890000D03*
%TD*%
D25*
%TO.P,J4,1,Pin_1*%
%TO.N,Net-(J4-Pin_1)*%
X21250000Y36850000D03*
D26*
%TO.P,J4,2,Pin_2*%
%TO.N,Net-(J4-Pin_2)*%
X21250000Y34850000D03*
%TO.P,J4,3,Pin_3*%
%TO.N,GND*%
X21250000Y32850000D03*
%TD*%
D27*
%TO.P,C16,1*%
%TO.N,BL*%
X4875000Y17180000D03*
%TO.P,C16,2*%
%TO.N,GND*%
X4875000Y16220000D03*
%TD*%
D23*
%TO.P,C11,1*%
%TO.N,Net-(C11-Pad1)*%
X18430000Y15910000D03*
%TO.P,C11,2*%
%TO.N,GND*%
X17470000Y15910000D03*
%TD*%
D28*
%TO.P,FLT1,4,GND*%
%TO.N,GND*%
X13682500Y6517500D03*
D29*
%TO.P,FLT1,3,OUT*%
%TO.N,Net-(FLT1-OUT)*%
X13910000Y5905000D03*
D28*
%TO.P,FLT1,2,GND*%
%TO.N,GND*%
X14137500Y6517500D03*
D29*
%TO.P,FLT1,1,IN*%
%TO.N,Net-(FLT1-IN)*%
X13910000Y7130000D03*
%TD*%
D30*
%TO.P,J2,1,Pin_1*%
%TO.N,GND*%
X26925000Y8050000D03*
D31*
%TO.P,J2,2,Pin_2*%
%TO.N,SWDCLK*%
X24385000Y8050000D03*
%TO.P,J2,3,Pin_3*%
%TO.N,SWDIO*%
X21845000Y8050000D03*
%TO.P,J2,4,Pin_4*%
%TO.N,+3V3*%
X19305000Y8050000D03*
%TD*%
D32*
%TO.P,C22,1*%
%TO.N,Net-(U5-V_{CC})*%
X26700000Y22290000D03*
%TO.P,C22,2*%
%TO.N,GND*%
X26700000Y23250000D03*
%TD*%
%TO.P,C2,1*%
%TO.N,+3V3*%
X13525000Y21575000D03*
%TO.P,C2,2*%
%TO.N,GND*%
X13525000Y22535000D03*
%TD*%
D15*
%TO.P,R7,1*%
%TO.N,Pwr Pth*%
X18330000Y25695000D03*
%TO.P,R7,2*%
%TO.N,Net-(D1-A)*%
X18330000Y26715000D03*
%TD*%
D33*
%TO.P,SW1,1,1*%
%TO.N,Net-(R2-Pad2)*%
X2550000Y14450000D03*
%TO.P,SW1,2,2*%
%TO.N,+3V3*%
X2550000Y6650000D03*
%TD*%
D34*
%TO.P,C20,1*%
%TO.N,Net-(J4-Pin_2)*%
X23770000Y25905000D03*
%TO.P,C20,2*%
%TO.N,GND*%
X24730000Y25905000D03*
%TD*%
D35*
%TO.P,D2,1,K*%
%TO.N,Net-(D2-K)*%
X18400000Y28405000D03*
%TO.P,D2,2,A*%
%TO.N,Net-(D2-A)*%
X17430000Y28405000D03*
%TD*%
D15*
%TO.P,R13,1*%
%TO.N,GND*%
X28950000Y19940000D03*
%TO.P,R13,2*%
%TO.N,Net-(U5-Vfb)*%
X28950000Y20960000D03*
%TD*%
D23*
%TO.P,C6,1*%
%TO.N,+3V3*%
X12970000Y11230000D03*
%TO.P,C6,2*%
%TO.N,GND*%
X12010000Y11230000D03*
%TD*%
D36*
%TO.P,L3,1,1*%
%TO.N,RF*%
X13970000Y10180000D03*
%TO.P,L3,2,2*%
%TO.N,Net-(FLT1-IN)*%
X13970000Y9210000D03*
%TD*%
D22*
%TO.P,R4,1*%
%TO.N,Net-(J3-CC1)*%
X13100000Y31300000D03*
%TO.P,R4,2*%
%TO.N,GND*%
X13100000Y30280000D03*
%TD*%
D37*
%TO.P,R3,1*%
%TO.N,Net-(J3-CC2)*%
X8330000Y31050000D03*
%TO.P,R3,2*%
%TO.N,GND*%
X7310000Y31050000D03*
%TD*%
D38*
%TO.P,R5,1*%
%TO.N,+3V3*%
X2047100Y23960000D03*
%TO.P,R5,2*%
%TO.N,SDA*%
X3067100Y23960000D03*
%TD*%
D34*
%TO.P,C25,1*%
%TO.N,Net-(U5-SW)*%
X25940000Y16990000D03*
%TO.P,C25,2*%
%TO.N,Net-(U5-BOOST)*%
X26900000Y16990000D03*
%TD*%
D22*
%TO.P,R1,1*%
%TO.N,BL*%
X3775000Y17230000D03*
%TO.P,R1,2*%
%TO.N,GND*%
X3775000Y16210000D03*
%TD*%
D34*
%TO.P,C9,1*%
%TO.N,+3V3*%
X18440000Y18950000D03*
%TO.P,C9,2*%
%TO.N,GND*%
X19400000Y18950000D03*
%TD*%
D27*
%TO.P,C18,1*%
%TO.N,+3V3*%
X7527100Y24060000D03*
%TO.P,C18,2*%
%TO.N,GND*%
X7527100Y23100000D03*
%TD*%
D34*
%TO.P,C14,1*%
%TO.N,RF*%
X13960000Y11220000D03*
%TO.P,C14,2*%
%TO.N,GND*%
X14920000Y11220000D03*
%TD*%
D27*
%TO.P,C21,1*%
%TO.N,VBUS*%
X20330000Y23065000D03*
%TO.P,C21,2*%
%TO.N,GND*%
X20330000Y22105000D03*
%TD*%
D34*
%TO.P,C10,1*%
%TO.N,+3V3*%
X17450000Y17960000D03*
%TO.P,C10,2*%
%TO.N,GND*%
X18410000Y17960000D03*
%TD*%
D38*
%TO.P,R6,1*%
%TO.N,+3V3*%
X2047100Y25010000D03*
%TO.P,R6,2*%
%TO.N,SCL*%
X3067100Y25010000D03*
%TD*%
D39*
%TO.P,D1,1,K*%
%TO.N,Net-(D1-K)*%
X20730000Y28405000D03*
%TO.P,D1,2,A*%
%TO.N,Net-(D1-A)*%
X20730000Y29375000D03*
%TD*%
D23*
%TO.P,C3,1*%
%TO.N,+3V3*%
X7910000Y14960000D03*
%TO.P,C3,2*%
%TO.N,GND*%
X6950000Y14960000D03*
%TD*%
%TO.P,C13,1*%
%TO.N,LSE_IN*%
X4240000Y19780000D03*
%TO.P,C13,2*%
%TO.N,GND*%
X3280000Y19780000D03*
%TD*%
D40*
%TO.P,L2,1,1*%
%TO.N,Net-(L1-Pad2)*%
X19795000Y16725000D03*
%TO.P,L2,2,2*%
%TO.N,Net-(C11-Pad1)*%
X21920000Y16725000D03*
%TD*%
D34*
%TO.P,C15,1*%
%TO.N,Net-(FLT1-IN)*%
X13910000Y8150000D03*
%TO.P,C15,2*%
%TO.N,GND*%
X14870000Y8150000D03*
%TD*%
%TO.P,C17,1*%
%TO.N,+3V3*%
X6247100Y27110000D03*
%TO.P,C17,2*%
%TO.N,GND*%
X7207100Y27110000D03*
%TD*%
D41*
%TO.P,U4,1,TS*%
%TO.N,Net-(J4-Pin_1)*%
X22517500Y24892500D03*
%TO.P,U4,2,BAT*%
%TO.N,Net-(J4-Pin_2)*%
X22517500Y25392500D03*
%TO.P,U4,3,BAT*%
X22517500Y25892500D03*
%TO.P,U4,4,~{CE}*%
%TO.N,GND*%
X22517500Y26392500D03*
D42*
%TO.P,U4,5,EN2*%
%TO.N,Pwr Pth*%
X21830000Y27080000D03*
%TO.P,U4,6,EN1*%
%TO.N,GND*%
X21330000Y27080000D03*
%TO.P,U4,7,~{PGOOD}*%
%TO.N,Net-(D1-K)*%
X20830000Y27080000D03*
%TO.P,U4,8,VSS*%
%TO.N,GND*%
X20330000Y27080000D03*
D41*
%TO.P,U4,9,~{CHG}*%
%TO.N,Net-(D2-K)*%
X19642500Y26392500D03*
%TO.P,U4,10,OUT*%
%TO.N,Pwr Pth*%
X19642500Y25892500D03*
%TO.P,U4,11,OUT*%
X19642500Y25392500D03*
%TO.P,U4,12,ILIM*%
%TO.N,Net-(U4-ILIM)*%
X19642500Y24892500D03*
D42*
%TO.P,U4,13,IN*%
%TO.N,VBUS*%
X20330000Y24205000D03*
%TO.P,U4,14,TMR*%
%TO.N,GND*%
X20830000Y24205000D03*
%TO.P,U4,15,ITERM*%
%TO.N,Net-(U4-ITERM)*%
X21330000Y24205000D03*
%TO.P,U4,16,ISET*%
%TO.N,Net-(U4-ISET)*%
X21830000Y24205000D03*
D43*
%TO.P,U4,17,VSS*%
%TO.N,GND*%
X21080000Y25642500D03*
%TD*%
D32*
%TO.P,C4,2*%
%TO.N,GND*%
X9940000Y21680000D03*
%TO.P,C4,1*%
%TO.N,+3V3*%
X9940000Y20720000D03*
%TD*%
D44*
%TO.P,U2,1,I/O1*%
%TO.N,Net-(J3-D--PadA7)*%
X12312500Y28837500D03*
%TO.P,U2,2,GND*%
%TO.N,GND*%
X11362500Y28837500D03*
%TO.P,U2,3,I/O2*%
%TO.N,Net-(J3-D+-PadA6)*%
X10412500Y28837500D03*
%TO.P,U2,4,I/O2*%
%TO.N,USB_D+*%
X10412500Y26562500D03*
%TO.P,U2,5,VBUS*%
%TO.N,VBUS*%
X11362500Y26562500D03*
%TO.P,U2,6,I/O1*%
%TO.N,USB_D-*%
X12312500Y26562500D03*
%TD*%
D22*
%TO.P,R9,1*%
%TO.N,Net-(U4-ILIM)*%
X18330000Y24705000D03*
%TO.P,R9,2*%
%TO.N,GND*%
X18330000Y23685000D03*
%TD*%
D32*
%TO.P,C5,1*%
%TO.N,+3V3*%
X17490000Y18920000D03*
%TO.P,C5,2*%
%TO.N,GND*%
X17490000Y19880000D03*
%TD*%
%TO.P,C19,1*%
%TO.N,Pwr Pth*%
X16330000Y25725000D03*
%TO.P,C19,2*%
%TO.N,GND*%
X16330000Y26685000D03*
%TD*%
D22*
%TO.P,R2,1*%
%TO.N,BL*%
X2615000Y17230000D03*
%TO.P,R2,2*%
%TO.N,Net-(R2-Pad2)*%
X2615000Y16210000D03*
%TD*%
D27*
%TO.P,C8,1*%
%TO.N,+3V3*%
X15900000Y11250000D03*
%TO.P,C8,2*%
%TO.N,GND*%
X15900000Y10290000D03*
%TD*%
D45*
%TO.P,J1,2,Ext*%
%TO.N,GND*%
X12470000Y2790000D03*
X15420000Y2790000D03*
D46*
%TO.P,J1,1,In*%
%TO.N,Net-(FLT1-OUT)*%
X13945000Y4315000D03*
%TD*%
D23*
%TO.P,C24,1*%
%TO.N,+3V3*%
X26900000Y14790000D03*
%TO.P,C24,2*%
%TO.N,GND*%
X25940000Y14790000D03*
%TD*%
D15*
%TO.P,R10,1*%
%TO.N,GND*%
X22320000Y21995000D03*
%TO.P,R10,2*%
%TO.N,Net-(U4-ISET)*%
X22320000Y23015000D03*
%TD*%
D47*
%TO.P,U3,1,SDO/SA0*%
%TO.N,GND*%
X4677099Y23568900D03*
%TO.P,U3,2,SDx*%
X5177100Y23568900D03*
%TO.P,U3,3,SCx*%
X5677100Y23568900D03*
%TO.P,U3,4,INT1*%
%TO.N,IMU_INT1*%
X6177101Y23568900D03*
D48*
%TO.P,U3,5,VDDIO*%
%TO.N,+3V3*%
X6354200Y24250001D03*
%TO.P,U3,6,GND*%
%TO.N,GND*%
X6354200Y24750000D03*
%TO.P,U3,7,GND*%
X6354200Y25249999D03*
D47*
%TO.P,U3,8,VDD*%
%TO.N,+3V3*%
X6177101Y25931100D03*
%TO.P,U3,9,INT2*%
%TO.N,IMU_INT2*%
X5677100Y25931100D03*
%TO.P,U3,10,OCS_Aux*%
%TO.N,unconnected-(U3-OCS_Aux-Pad10)*%
X5177100Y25931100D03*
%TO.P,U3,11,SDO_Aux*%
%TO.N,unconnected-(U3-SDO_Aux-Pad11)*%
X4677099Y25931100D03*
D48*
%TO.P,U3,12,CS*%
%TO.N,+3V3*%
X4500000Y25249999D03*
%TO.P,U3,13,SCL*%
%TO.N,SCL*%
X4500000Y24750000D03*
%TO.P,U3,14,SDA*%
%TO.N,SDA*%
X4500000Y24250001D03*
%TD*%
D23*
%TO.P,C12,1*%
%TO.N,LSE_OUT*%
X4230000Y18360000D03*
%TO.P,C12,2*%
%TO.N,GND*%
X3270000Y18360000D03*
%TD*%
D32*
%TO.P,C7,1*%
%TO.N,+3V3*%
X7980000Y19460000D03*
%TO.P,C7,2*%
%TO.N,GND*%
X7980000Y20420000D03*
%TD*%
D15*
%TO.P,R8,1*%
%TO.N,Pwr Pth*%
X17330000Y25685000D03*
%TO.P,R8,2*%
%TO.N,Net-(D2-A)*%
X17330000Y26705000D03*
%TD*%
D49*
%TO.N,+3V3*%
X12807900Y21570000D03*
X16725000Y10625000D03*
X6250000Y27850000D03*
X1250000Y23950000D03*
X18850000Y5550000D03*
X18425000Y19668550D03*
X20050000Y5525000D03*
X8250000Y24050000D03*
X5275000Y6325000D03*
X9225000Y20725000D03*
X28100000Y14750000D03*
X5275000Y7025000D03*
X7200000Y19450000D03*
X28100000Y13800000D03*
X12975000Y10506450D03*
X3450000Y26050000D03*
X7925000Y14231450D03*
X1250000Y25000000D03*
D50*
%TO.N,Pwr Pth*%
X16300000Y24875000D03*
X22650000Y28225000D03*
%TO.N,Net-(J4-Pin_2)*%
X25825000Y28975000D03*
X23600000Y24925000D03*
%TO.N,Net-(D1-A)*%
X18350000Y27500000D03*
X19550000Y29350000D03*
%TO.N,SWDCLK*%
X16125000Y22075000D03*
X12600000Y20700000D03*
%TO.N,SWDIO*%
X16150000Y21275000D03*
X14525000Y20650000D03*
%TO.N,Net-(J4-Pin_1)*%
X23925000Y28975000D03*
X23600000Y24300000D03*
%TO.N,SDA*%
X1600000Y16200000D03*
X7750000Y16000000D03*
%TO.N,SCL*%
X7725000Y16766600D03*
X675000Y17125000D03*
D49*
%TO.N,GND*%
X14800000Y6525000D03*
X14940000Y10460000D03*
X14550000Y32300000D03*
X21340000Y21180000D03*
X26710000Y24020000D03*
D51*
X21400000Y25325000D03*
D49*
X19195000Y17965000D03*
X7960000Y21215000D03*
D51*
X14125000Y17875000D03*
X12575000Y14250000D03*
D49*
X20195000Y18940000D03*
X17950000Y13100000D03*
X17275000Y3350000D03*
X28940000Y19135000D03*
X17325000Y2325000D03*
X22350000Y21250000D03*
X7450000Y25600000D03*
D51*
X14350000Y14275000D03*
D49*
X11225000Y11250000D03*
X5850000Y22300000D03*
D51*
X20650000Y25975000D03*
X11000000Y16125000D03*
D49*
X2480000Y18360000D03*
X15530000Y26710000D03*
X11360000Y29920000D03*
X26375000Y10625000D03*
X4450000Y22300000D03*
X25130000Y13810000D03*
X25130000Y14810000D03*
D51*
X12400000Y17875000D03*
D49*
X5125000Y14975000D03*
X17465000Y15140000D03*
X6940000Y14210000D03*
D51*
X12450000Y16150000D03*
D49*
X15900000Y9500000D03*
X25570000Y25890000D03*
D51*
X14175000Y16150000D03*
D49*
X8290000Y23090000D03*
D51*
X26150000Y20075000D03*
D49*
X6500000Y31050000D03*
X7210000Y27870000D03*
X13840000Y30280000D03*
X10575000Y3325000D03*
X5150000Y22300000D03*
X17510000Y20665000D03*
X15650000Y8150000D03*
X10600000Y2375000D03*
X20340000Y21280000D03*
D51*
X11000000Y14200000D03*
D49*
X12765000Y22545000D03*
X17530000Y23660000D03*
X8150000Y32250000D03*
D51*
X26775000Y19200000D03*
D49*
X13000000Y6500000D03*
X2530000Y19810000D03*
X23925000Y33350000D03*
X23950000Y32550000D03*
D51*
X10975000Y17850000D03*
D49*
X9950000Y22500000D03*
X27325000Y10600000D03*
X20525000Y10950000D03*
X7450000Y24900000D03*
%TD*%
D52*
%TO.N,Net-(FLT1-OUT)*%
X13945000Y4315000D02*
X13945000Y5870000D01*
X13945000Y5870000D02*
X13910000Y5905000D01*
D53*
%TO.N,VBUS*%
X14300000Y27650000D02*
X15100000Y28450000D01*
X15100000Y28450000D02*
X15100000Y30250000D01*
X15100000Y30250000D02*
X13838600Y31511400D01*
X13838600Y33131400D02*
X13760000Y33210000D01*
X13838600Y31511400D02*
X13838600Y33131400D01*
D52*
%TO.N,Net-(J3-CC1)*%
X12610000Y33210000D02*
X12610000Y31790000D01*
X12610000Y31790000D02*
X13100000Y31300000D01*
%TO.N,Net-(J4-Pin_1)*%
X23925000Y28975000D02*
X22800000Y30100000D01*
X22800000Y30100000D02*
X17525000Y30100000D01*
X18100000Y36850000D02*
X21250000Y36850000D01*
X17450000Y36200000D02*
X18100000Y36850000D01*
X17525000Y30100000D02*
X17450000Y30175000D01*
X17450000Y30175000D02*
X17450000Y36200000D01*
%TO.N,+3V3*%
X13525000Y21575000D02*
X13525000Y21000000D01*
D53*
X16100000Y11250000D02*
X16725000Y10625000D01*
D52*
X3450000Y26050000D02*
X3950000Y25550000D01*
X9950000Y19487500D02*
X9950000Y20710000D01*
D53*
X6250000Y27850000D02*
X6250000Y27062900D01*
D52*
X16137500Y18300000D02*
X16870000Y18300000D01*
X8093550Y18800000D02*
X7980000Y18913550D01*
D53*
X8250000Y24050000D02*
X7462900Y24050000D01*
X2037100Y23950000D02*
X2047100Y23960000D01*
D52*
X13545000Y21555000D02*
X13525000Y21575000D01*
D53*
X1250000Y23950000D02*
X2037100Y23950000D01*
D54*
X4500000Y25249999D02*
X3950001Y25249999D01*
D53*
X18425000Y19668550D02*
X18425000Y18881450D01*
D52*
X13525000Y21000000D02*
X13950000Y20575000D01*
D54*
X6200000Y26350000D02*
X6177101Y26327101D01*
D53*
X12807900Y21570000D02*
X13595000Y21570000D01*
D52*
X7910000Y14960000D02*
X8250000Y15300000D01*
X7980000Y19460000D02*
X7210000Y19460000D01*
X6247100Y26397100D02*
X6200000Y26350000D01*
X17490000Y18920000D02*
X18410000Y18920000D01*
X13950000Y20575000D02*
X13950000Y19487500D01*
D54*
X6354200Y24250001D02*
X6799999Y24250001D01*
X3950000Y25250000D02*
X3950001Y25249999D01*
D52*
X6247100Y27110000D02*
X6247100Y26397100D01*
X7527100Y24060000D02*
X6990000Y24060000D01*
X17290000Y17800000D02*
X17450000Y17960000D01*
X12970000Y11230000D02*
X13450000Y11710000D01*
X18410000Y18920000D02*
X18440000Y18950000D01*
D53*
X2037100Y25000000D02*
X2047100Y25010000D01*
D52*
X13450000Y11710000D02*
X13450000Y12612500D01*
D54*
X6177101Y25931100D02*
X6177101Y26327101D01*
D52*
X8250000Y15300000D02*
X9262500Y15300000D01*
X8700000Y18800000D02*
X8093550Y18800000D01*
D53*
X1250000Y25000000D02*
X2037100Y25000000D01*
X12975000Y10506450D02*
X12975000Y11293550D01*
D52*
X9950000Y20710000D02*
X9940000Y20720000D01*
D55*
X9262500Y18800000D02*
X8700000Y18800000D01*
D52*
X7980000Y18913550D02*
X7980000Y19460000D01*
D54*
X6799999Y24250001D02*
X6800000Y24250000D01*
D52*
X7210000Y19460000D02*
X7200000Y19450000D01*
X6990000Y24060000D02*
X6800000Y24250000D01*
D53*
X9225000Y20725000D02*
X10012100Y20725000D01*
D52*
X3950000Y25550000D02*
X3950000Y25250000D01*
D53*
X7925000Y14231450D02*
X7925000Y15018550D01*
D52*
X16137500Y17800000D02*
X17290000Y17800000D01*
D53*
X15900000Y11250000D02*
X16100000Y11250000D01*
D52*
X16870000Y18300000D02*
X17490000Y18920000D01*
%TO.N,Net-(C11-Pad1)*%
X19065000Y15275000D02*
X18430000Y15910000D01*
X21550000Y15275000D02*
X19065000Y15275000D01*
X21920000Y16725000D02*
X21920000Y15645000D01*
X21920000Y15645000D02*
X21550000Y15275000D01*
%TO.N,LSE_OUT*%
X5680000Y18430000D02*
X4300000Y18430000D01*
X9237700Y17824800D02*
X6285200Y17824800D01*
X6285200Y17824800D02*
X5680000Y18430000D01*
X9262500Y17800000D02*
X9237700Y17824800D01*
X4300000Y18430000D02*
X4230000Y18360000D01*
%TO.N,LSE_IN*%
X4290000Y19830000D02*
X4240000Y19780000D01*
X5680000Y19830000D02*
X7210000Y18300000D01*
X5680000Y19830000D02*
X4290000Y19830000D01*
X7210000Y18300000D02*
X9262500Y18300000D01*
%TO.N,RF*%
X13970000Y10180000D02*
X13970000Y11210000D01*
X13950000Y11230000D02*
X13960000Y11220000D01*
X13950000Y12612500D02*
X13950000Y11230000D01*
X13970000Y11210000D02*
X13960000Y11220000D01*
%TO.N,Net-(FLT1-IN)*%
X13910000Y8150000D02*
X13910000Y7130000D01*
X13970000Y8210000D02*
X13910000Y8150000D01*
X13970000Y9210000D02*
X13970000Y8210000D01*
%TO.N,BL*%
X9262500Y17300000D02*
X4995000Y17300000D01*
X3825000Y17180000D02*
X3775000Y17230000D01*
X4875000Y17180000D02*
X3825000Y17180000D01*
X4995000Y17300000D02*
X4875000Y17180000D01*
X3775000Y17230000D02*
X2615000Y17230000D01*
%TO.N,Pwr Pth*%
X26179800Y27595200D02*
X26179800Y24354800D01*
X22550000Y28125000D02*
X22650000Y28225000D01*
X19642500Y25892500D02*
X18527500Y25892500D01*
X18320000Y25685000D02*
X18330000Y25695000D01*
X16330000Y25725000D02*
X16150000Y25725000D01*
X16330000Y24905000D02*
X16300000Y24875000D01*
X25687500Y23862500D02*
X25687500Y21102500D01*
X22550000Y27800000D02*
X22550000Y28125000D01*
X17330000Y25685000D02*
X18320000Y25685000D01*
X17290000Y25725000D02*
X17330000Y25685000D01*
X26179800Y24354800D02*
X25687500Y23862500D01*
X25975000Y27800000D02*
X26179800Y27595200D01*
X21830000Y27080000D02*
X22550000Y27800000D01*
X16150000Y25725000D02*
X17290000Y25725000D01*
X16330000Y25725000D02*
X16330000Y24905000D01*
X22550000Y27800000D02*
X25975000Y27800000D01*
X18527500Y25892500D02*
X18330000Y25695000D01*
%TO.N,Net-(J4-Pin_2)*%
X23132500Y25392500D02*
X23600000Y24925000D01*
X25825000Y33425000D02*
X24400000Y34850000D01*
X25825000Y28975000D02*
X25825000Y33425000D01*
X23730101Y25865101D02*
X22517500Y25865101D01*
X22517500Y25392500D02*
X23132500Y25392500D01*
X24400000Y34850000D02*
X21250000Y34850000D01*
X23770000Y25905000D02*
X23730101Y25865101D01*
D53*
%TO.N,VBUS*%
X11362500Y26562500D02*
X11362500Y27224999D01*
X14300000Y27650000D02*
X14300000Y25025000D01*
D52*
X20330000Y23065000D02*
X20330000Y24205000D01*
D53*
X20090000Y22825000D02*
X20330000Y23065000D01*
X14300000Y25025000D02*
X16500000Y22825000D01*
X16500000Y22825000D02*
X20090000Y22825000D01*
X11787501Y27650000D02*
X14300000Y27650000D01*
X11362500Y27224999D02*
X11787501Y27650000D01*
D52*
%TO.N,Net-(U5-V_{CC})*%
X26687500Y21102500D02*
X26687500Y22277500D01*
X26687500Y22277500D02*
X26700000Y22290000D01*
%TO.N,Net-(U5-BOOST)*%
X26687500Y18202500D02*
X26687500Y17202500D01*
X26687500Y17202500D02*
X26900000Y16990000D01*
%TO.N,Net-(U5-SW)*%
X25930000Y16980000D02*
X25940000Y16990000D01*
X26187500Y17237500D02*
X25940000Y16990000D01*
X25930000Y15890000D02*
X25930000Y16980000D01*
X26187500Y18202500D02*
X26187500Y17237500D01*
%TO.N,Net-(D1-A)*%
X20730000Y29375000D02*
X19575000Y29375000D01*
X19575000Y29375000D02*
X19550000Y29350000D01*
X18330000Y26715000D02*
X18330000Y27480000D01*
X18330000Y27480000D02*
X18350000Y27500000D01*
%TO.N,Net-(D1-K)*%
X20830000Y27080000D02*
X20830000Y28305000D01*
X20830000Y28305000D02*
X20730000Y28405000D01*
%TO.N,Net-(D2-A)*%
X17330000Y26705000D02*
X17330000Y28305000D01*
X17330000Y28305000D02*
X17430000Y28405000D01*
%TO.N,Net-(D2-K)*%
X19642500Y26392500D02*
X19642500Y27162500D01*
X19642500Y27162500D02*
X18400000Y28405000D01*
%TO.N,Net-(FLT1-OUT)*%
X13935000Y4325000D02*
X13945000Y4315000D01*
%TO.N,SWDCLK*%
X24385000Y19815000D02*
X24385000Y8050000D01*
X13450000Y19487500D02*
X13450000Y19946172D01*
X18675000Y22075000D02*
X20179800Y20570200D01*
X16125000Y22075000D02*
X18675000Y22075000D01*
X24375000Y8015000D02*
X24390000Y8000000D01*
X13450000Y19946172D02*
X12696172Y20700000D01*
X20179800Y20570200D02*
X23629800Y20570200D01*
X23629800Y20570200D02*
X24385000Y19815000D01*
X12696172Y20700000D02*
X12600000Y20700000D01*
%TO.N,SWDIO*%
X14450000Y20575000D02*
X14525000Y20650000D01*
X16150000Y21275000D02*
X18375000Y21275000D01*
X19800000Y19850000D02*
X22225000Y19850000D01*
X23025000Y19050000D02*
X23025000Y14925000D01*
X21845000Y13745000D02*
X21845000Y8050000D01*
X22225000Y19850000D02*
X23025000Y19050000D01*
X23025000Y14925000D02*
X21845000Y13745000D01*
X21825000Y8025000D02*
X21850000Y8000000D01*
X18375000Y21275000D02*
X19800000Y19850000D01*
X14450000Y19487500D02*
X14450000Y20575000D01*
%TO.N,Net-(J3-D--PadA7)*%
X12110000Y29915000D02*
X12110000Y33210000D01*
X12312500Y28837500D02*
X12312500Y29712500D01*
X12312500Y29712500D02*
X12110000Y29915000D01*
%TO.N,Net-(J3-CC2)*%
X9610000Y31585000D02*
X9610000Y33210000D01*
X8330000Y31050000D02*
X9075000Y31050000D01*
X9075000Y31050000D02*
X9610000Y31585000D01*
%TO.N,Net-(J3-D+-PadA6)*%
X10610000Y29035000D02*
X10412500Y28837500D01*
X10412500Y28837500D02*
X10412500Y29712500D01*
X10610000Y29910000D02*
X10610000Y33210000D01*
X10412500Y29712500D02*
X10610000Y29910000D01*
%TO.N,Net-(J4-Pin_1)*%
X22517500Y24892500D02*
X23110000Y24300000D01*
X23110000Y24300000D02*
X23600000Y24300000D01*
%TO.N,Net-(U1-VLXSMPS)*%
X17110000Y17300000D02*
X17460000Y16950000D01*
X16137500Y17300000D02*
X17110000Y17300000D01*
%TO.N,Net-(L1-Pad2)*%
X19570000Y16950000D02*
X19795000Y16725000D01*
X18430000Y16950000D02*
X19570000Y16950000D01*
%TO.N,Net-(R2-Pad2)*%
X2615000Y16210000D02*
X2615000Y14515000D01*
X2615000Y14515000D02*
X2550000Y14450000D01*
%TO.N,SDA*%
X3007100Y23900000D02*
X3067100Y23960000D01*
X1600000Y16200000D02*
X1600000Y22492900D01*
X3150000Y23900000D02*
X3007100Y23900000D01*
X9262500Y16300000D02*
X8050000Y16300000D01*
X8050000Y16300000D02*
X7750000Y16000000D01*
X3150000Y24042900D02*
X3150000Y23900000D01*
X1600000Y22492900D02*
X3067100Y23960000D01*
X3357101Y24250001D02*
X3150000Y24042900D01*
X4500000Y24250001D02*
X3357101Y24250001D01*
%TO.N,SCL*%
X3067100Y25482900D02*
X3067100Y25010000D01*
X3327100Y24750000D02*
X3200000Y24877100D01*
X675000Y17125000D02*
X640200Y17159800D01*
X640200Y17159800D02*
X640200Y25390200D01*
X3200000Y25000000D02*
X3077100Y25000000D01*
X640200Y25390200D02*
X1200000Y25950000D01*
X3077100Y25000000D02*
X3067100Y25010000D01*
X3200000Y24877100D02*
X3200000Y25000000D01*
X1200000Y25950000D02*
X2600000Y25950000D01*
X9262500Y16800000D02*
X7758400Y16800000D01*
X4500000Y24750000D02*
X3327100Y24750000D01*
X7758400Y16800000D02*
X7725000Y16766600D01*
X2600000Y25950000D02*
X3067100Y25482900D01*
%TO.N,Net-(U4-ILIM)*%
X18330000Y24705000D02*
X19455000Y24705000D01*
X19455000Y24705000D02*
X19642500Y24892500D01*
%TO.N,Net-(U4-ISET)*%
X21830000Y23505000D02*
X22320000Y23015000D01*
X21830000Y24205000D02*
X21830000Y23505000D01*
%TO.N,Net-(U4-ITERM)*%
X21330000Y23005000D02*
X21330000Y24205000D01*
%TO.N,Net-(U5-Vfb)*%
X28000000Y16910000D02*
X28100000Y16810000D01*
X28807500Y21102500D02*
X28950000Y20960000D01*
X27187500Y21102500D02*
X27825000Y21102500D01*
X27825000Y21102500D02*
X28807500Y21102500D01*
X27825000Y21102500D02*
X28000000Y21102500D01*
X28000000Y21102500D02*
X28000000Y16910000D01*
D56*
%TO.N,USB_D-*%
X15450000Y20143751D02*
X15450000Y19487500D01*
X15015751Y23278793D02*
X15015751Y22074777D01*
X12312500Y26562500D02*
X12312500Y25568749D01*
X11514900Y24650628D02*
X12388128Y23777400D01*
X12312500Y25568749D02*
X11514900Y24771149D01*
X14517144Y23777400D02*
X15015751Y23278793D01*
X11514900Y24771149D02*
X11514900Y24650628D01*
X15352400Y20241351D02*
X15450000Y20143751D01*
X15015751Y22074777D02*
X15352400Y21738128D01*
X12388128Y23777400D02*
X14517144Y23777400D01*
X15352400Y21738128D02*
X15352400Y20241351D01*
D55*
%TO.N,IMU_INT2*%
X11200000Y22875000D02*
X8000000Y26075000D01*
X8000000Y26075000D02*
X8000000Y28500000D01*
X5677100Y26202806D02*
X5677100Y25931100D01*
X10950000Y19487500D02*
X10950000Y20248262D01*
X5475000Y26404906D02*
X5677100Y26202806D01*
X11200000Y20498262D02*
X11200000Y22875000D01*
X8000000Y28500000D02*
X5625000Y28500000D01*
X10950000Y20248262D02*
X11200000Y20498262D01*
X5625000Y28500000D02*
X5475000Y28350000D01*
X5475000Y28350000D02*
X5475000Y26404906D01*
D52*
%TO.N,HSE_OUT*%
X15957900Y12612500D02*
X17590400Y10980000D01*
X15450000Y12612500D02*
X15957900Y12612500D01*
X17590400Y10980000D02*
X17950000Y10980000D01*
D55*
%TO.N,IMU_INT1*%
X8400000Y22125000D02*
X9359400Y23084400D01*
X6575000Y23171001D02*
X6575000Y22500000D01*
X10415600Y23084400D02*
X10725000Y22775000D01*
X10450000Y20322998D02*
X10450000Y19487500D01*
X10725000Y20597998D02*
X10450000Y20322998D01*
X10725000Y22775000D02*
X10725000Y20597998D01*
X6575000Y22500000D02*
X6950000Y22125000D01*
X6950000Y22125000D02*
X8400000Y22125000D01*
X9359400Y23084400D02*
X10415600Y23084400D01*
X6177101Y23568900D02*
X6575000Y23171001D01*
D52*
%TO.N,HSE_IN*%
X19350000Y13450000D02*
X19350000Y12080000D01*
X16137500Y13300000D02*
X17000000Y13300000D01*
X19090200Y13709800D02*
X19350000Y13450000D01*
X17000000Y13300000D02*
X17409800Y13709800D01*
X17409800Y13709800D02*
X19090200Y13709800D01*
D56*
%TO.N,USB_D+*%
X11210100Y24524372D02*
X12261872Y23472600D01*
X11210100Y24771149D02*
X11210100Y24524372D01*
X14950000Y20143751D02*
X14950000Y19487500D01*
X15047600Y21611872D02*
X15047600Y20241351D01*
X14710951Y21948521D02*
X15047600Y21611872D01*
X12261872Y23472600D02*
X14390888Y23472600D01*
X10412500Y25568749D02*
X11210100Y24771149D01*
X14710951Y23152537D02*
X14710951Y21948521D01*
X10412500Y26562500D02*
X10412500Y25568749D01*
X15047600Y20241351D02*
X14950000Y20143751D01*
X14390888Y23472600D02*
X14710951Y23152537D01*
D52*
%TO.N,GND*%
X16137500Y16300000D02*
X12950000Y16300000D01*
D53*
X12045000Y11240000D02*
X11235000Y11240000D01*
D52*
X13682500Y6517500D02*
X13017500Y6517500D01*
X5850000Y22300000D02*
X5850000Y22950000D01*
D54*
X6354200Y25249999D02*
X6849999Y25249999D01*
X21330000Y25395000D02*
X21400000Y25325000D01*
D53*
X19375000Y18950000D02*
X20185000Y18950000D01*
D54*
X21330000Y25892500D02*
X21080000Y25642500D01*
X5677100Y23122900D02*
X5700000Y23100000D01*
D53*
X17475000Y15960000D02*
X17475000Y15150000D01*
X17500000Y19845000D02*
X17500000Y20655000D01*
D52*
X7450000Y25600000D02*
X7200000Y25600000D01*
X7450000Y24900000D02*
X7300000Y24750000D01*
D54*
X20330000Y26642501D02*
X21080000Y25892501D01*
X4677099Y23568900D02*
X4677099Y23127099D01*
D53*
X15910000Y10320000D02*
X15910000Y9510000D01*
D54*
X6354200Y24750000D02*
X6850000Y24750000D01*
D52*
X14137500Y6517500D02*
X14792500Y6517500D01*
D53*
X13575000Y22545000D02*
X12765000Y22545000D01*
D52*
X5850000Y22950000D02*
X5700000Y23100000D01*
D54*
X5177100Y23077100D02*
X5150000Y23050000D01*
D52*
X22447300Y26322300D02*
X21759800Y26322300D01*
D54*
X27187500Y18202500D02*
X27187500Y18902500D01*
X20650000Y26322501D02*
X20650000Y25975000D01*
D52*
X20495000Y10980000D02*
X20525000Y10950000D01*
D53*
X3300000Y18350000D02*
X2490000Y18350000D01*
X16350000Y26700000D02*
X15540000Y26700000D01*
D52*
X7300000Y24750000D02*
X6850000Y24750000D01*
D53*
X28950000Y19955000D02*
X28950000Y19145000D01*
D52*
X5150000Y22300000D02*
X5150000Y23050000D01*
D53*
X26700000Y23200000D02*
X26700000Y24010000D01*
X7320000Y31040000D02*
X6510000Y31040000D01*
D54*
X5177100Y23568900D02*
X5177100Y23077100D01*
X5677100Y23568900D02*
X5677100Y23122900D01*
D52*
X4450000Y22300000D02*
X4450000Y22900000D01*
D54*
X21080000Y25892501D02*
X21080000Y25642500D01*
D53*
X3350000Y19800000D02*
X2540000Y19800000D01*
D52*
X7200000Y25600000D02*
X6850000Y25250000D01*
D54*
X25687500Y18202500D02*
X25687500Y18902500D01*
D56*
X13465000Y22475000D02*
X13525000Y22535000D01*
D53*
X22325000Y22005000D02*
X22325000Y21195000D01*
X18350000Y23650000D02*
X17540000Y23650000D01*
X7200000Y27050000D02*
X7200000Y27860000D01*
D54*
X21330000Y27080000D02*
X21330000Y25892500D01*
D53*
X17940000Y12280000D02*
X17940000Y13090000D01*
D54*
X4677099Y23127099D02*
X4650000Y23100000D01*
D53*
X18375000Y17975000D02*
X19185000Y17975000D01*
D52*
X14450000Y12612500D02*
X14450000Y14300000D01*
D53*
X8160000Y33070000D02*
X8160000Y32260000D01*
D54*
X6850000Y25250000D02*
X6849999Y25249999D01*
D53*
X7470000Y23100000D02*
X8280000Y23100000D01*
D52*
X4450000Y22900000D02*
X4650000Y23100000D01*
X13017500Y6517500D02*
X13000000Y6500000D01*
X14792500Y6517500D02*
X14800000Y6525000D01*
D53*
X25950000Y14800000D02*
X25140000Y14800000D01*
X9940000Y22490000D02*
X9950000Y22500000D01*
X9940000Y21680000D02*
X9940000Y22490000D01*
D52*
X14450000Y14300000D02*
X12700000Y16050000D01*
X16137500Y16800000D02*
X13450000Y16800000D01*
D54*
X25687500Y18902500D02*
X26437500Y19652500D01*
D53*
X6950000Y15030000D02*
X6950000Y14220000D01*
D52*
X13450000Y16800000D02*
X12700000Y16050000D01*
D54*
X20830000Y24205000D02*
X20830000Y25392500D01*
X27187500Y18902500D02*
X26437500Y19652500D01*
D53*
X14950000Y11280000D02*
X14950000Y10470000D01*
X14560000Y33120000D02*
X14560000Y32310000D01*
D52*
X19350000Y10980000D02*
X20495000Y10980000D01*
D53*
X14830000Y8160000D02*
X15640000Y8160000D01*
X7950000Y20395000D02*
X7950000Y21205000D01*
D54*
X20830000Y25392500D02*
X21080000Y25642500D01*
D53*
X20350000Y22100000D02*
X20350000Y21290000D01*
X11350000Y29100000D02*
X11350000Y29910000D01*
D52*
X21759800Y26322300D02*
X21080000Y25642500D01*
D54*
X20330000Y27080000D02*
X20330000Y26642501D01*
D53*
X24750000Y25900000D02*
X25560000Y25900000D01*
D52*
X22517500Y26392500D02*
X22447300Y26322300D01*
X12950000Y16300000D02*
X12700000Y16050000D01*
D53*
X25950000Y13800000D02*
X25140000Y13800000D01*
X13020000Y30290000D02*
X13830000Y30290000D01*
X21350000Y22000000D02*
X21350000Y21190000D01*
%TD*%
%TA.AperFunction,Conductor*%
%TO.N,+3V3*%
G36*
X5826302Y7375301D02*
G01*
X5860861Y7360736D01*
X5875000Y7326302D01*
X5875000Y5974000D01*
X5860648Y5939352D01*
X5826000Y5925000D01*
X1874000Y5925000D01*
X1839352Y5939352D01*
X1825000Y5974000D01*
X1825000Y7350697D01*
X1839352Y7385345D01*
X1874000Y7399697D01*
X1874185Y7399697D01*
X5826302Y7375301D01*
G37*
%TD.AperFunction*%
%TD*%
%TA.AperFunction,Conductor*%
%TO.N,GND*%
G36*
X5485648Y16435648D02*
G01*
X5500000Y16401000D01*
X5500000Y14399000D01*
X5485648Y14364352D01*
X5451000Y14350000D01*
X4749000Y14350000D01*
X4714352Y14364352D01*
X4700000Y14399000D01*
X4700000Y15575000D01*
X3547620Y15575000D01*
X3512972Y15589352D01*
X3498640Y15622601D01*
X3476440Y16399601D01*
X3489796Y16434645D01*
X3524021Y16449980D01*
X3525420Y16450000D01*
X5451000Y16450000D01*
X5485648Y16435648D01*
G37*
%TD.AperFunction*%
%TD*%
%TA.AperFunction,Conductor*%
%TO.N,+3V3*%
G36*
X27446632Y16446632D02*
G01*
X27450000Y16438500D01*
X27450000Y16150000D01*
X28638500Y16150000D01*
X28646632Y16146632D01*
X28650000Y16138500D01*
X28650000Y13261500D01*
X28646632Y13253368D01*
X28638500Y13250000D01*
X27500000Y13250000D01*
X26561322Y13250000D01*
X26553190Y13253368D01*
X26549823Y13261320D01*
X26549820Y13261500D01*
X26500182Y16438322D01*
X26503423Y16446504D01*
X26511501Y16449999D01*
X26511681Y16450000D01*
X27438500Y16450000D01*
X27446632Y16446632D01*
G37*
%TD.AperFunction*%
%TD*%
%TA.AperFunction,Conductor*%
%TO.N,GND*%
G36*
X17811161Y3935648D02*
G01*
X17825510Y3901516D01*
X17849474Y1624953D01*
X17835488Y1590155D01*
X17800993Y1575440D01*
X17800047Y1575439D01*
X15048570Y1599574D01*
X15014049Y1614229D01*
X15000000Y1648572D01*
X15000000Y3901000D01*
X15014352Y3935648D01*
X15049000Y3950000D01*
X17776513Y3950000D01*
X17811161Y3935648D01*
G37*
%TD.AperFunction*%
%TD*%
%TA.AperFunction,Conductor*%
%TO.N,GND*%
G36*
X27985648Y11035648D02*
G01*
X28000000Y11001000D01*
X28000000Y7049000D01*
X27985648Y7014352D01*
X27951000Y7000000D01*
X25873399Y7000000D01*
X25838751Y7014352D01*
X25824403Y7048395D01*
X25775612Y11000395D01*
X25789535Y11035218D01*
X25824003Y11049996D01*
X25824608Y11050000D01*
X27951000Y11050000D01*
X27985648Y11035648D01*
G37*
%TD.AperFunction*%
%TD*%
%TA.AperFunction,Conductor*%
%TO.N,GND*%
G36*
X24336324Y33885648D02*
G01*
X24350671Y33851680D01*
X24374310Y32149680D01*
X24360441Y32114836D01*
X24325995Y32100005D01*
X24325315Y32100000D01*
X23399000Y32100000D01*
X23364352Y32114352D01*
X23350000Y32149000D01*
X23350000Y32250000D01*
X20474000Y32250000D01*
X20439352Y32264352D01*
X20425000Y32299000D01*
X20425000Y33525576D01*
X20439352Y33560224D01*
X20474000Y33574576D01*
X20474408Y33574575D01*
X23325000Y33550000D01*
X23325000Y33550001D01*
X23325000Y33851000D01*
X23339352Y33885648D01*
X23374000Y33900000D01*
X24301676Y33900000D01*
X24336324Y33885648D01*
G37*
%TD.AperFunction*%
%TD*%
%TA.AperFunction,Conductor*%
%TO.N,+3V3*%
G36*
X20361526Y9185648D02*
G01*
X20375870Y9151885D01*
X20449108Y5099316D01*
X20435385Y5064414D01*
X20401001Y5049439D01*
X20400679Y5049434D01*
X18324266Y5025567D01*
X18289455Y5039520D01*
X18274706Y5074000D01*
X18250295Y9150708D01*
X18264439Y9185440D01*
X18299001Y9199999D01*
X18299294Y9200000D01*
X20326878Y9200000D01*
X20361526Y9185648D01*
G37*
%TD.AperFunction*%
%TD*%
%TA.AperFunction,Conductor*%
%TO.N,GND*%
G36*
X12826432Y3950427D02*
G01*
X12860951Y3935772D01*
X12875000Y3901429D01*
X12875000Y1673569D01*
X12860648Y1638921D01*
X12826434Y1624571D01*
X10098916Y1600433D01*
X10064142Y1614478D01*
X10049485Y1648915D01*
X10025525Y3925050D01*
X10039511Y3959846D01*
X10074006Y3974561D01*
X10074934Y3974562D01*
X12826432Y3950427D01*
G37*
%TD.AperFunction*%
%TD*%
M02*
